<?xml version="1.0" encoding="UTF-8"?> <svg xmlns="http://www.w3.org/2000/svg" width="464" height="463" viewBox="0 0 464 463" fill="none"><path fill-rule="evenodd" clip-rule="evenodd" d="M336.5 0C338.1 0 341.5 0.6 344 1.5C346.5 2.3 350.7 4.9 353.3 7.2C356.1 9.7 358.8 13.2 359.7 15.5C360.7 18.1 361 21.7 360.8 26C360.4 31.9 359.2 35.1 331.3 93.5L331.8 100.5C332.2 106.2 331.9 108.4 328 117L378.8 250.4C429.3 383.3 429.5 383.8 432.5 384.4C434.1 384.7 438.3 386.3 441.7 388C445.2 389.6 450.4 393.4 453.3 396.2C457 399.9 459.4 403.3 461 407.5C462.3 410.8 463.5 416.4 463.8 420C464.1 424.4 463.6 428.6 462.4 433C461.4 436.6 458.9 442 456.9 445C454.9 448 451.1 452.2 448.4 454.2C445.7 456.2 440.4 459 429.5 463H33L26.2 460.2C22.5 458.7 17.8 456.1 15.6 454.5C13.5 452.8 10.5 449.9 9 448C7.5 446.1 5.5 442.9 4.5 441C3.5 439.1 2.1 435.5 1.4 433C0.6 430.5 0 426 0 423C0 420 0.9 414.8 2 411.5C3.1 408.2 5.7 403.1 7.8 400.1C9.8 397.1 14 393 17 390.8C20 388.7 24.7 386.2 27.5 385.4C30.2 384.5 37.9 383.6 56.5 382.8L58.5 376.6C59.5 373.3 62.1 368 64 365C66 362 69.6 357.8 72.1 355.7C74.5 353.5 79 350.6 82 349C85 347.5 89.3 345.6 91.5 344.9C94.7 343.8 118.9 343.5 332.8 342.5L292.4 237C270.2 179 251.6 130.5 251 129.2C250 127 249.9 127 196.3 126.5L191.5 123.5C188.7 121.8 185.4 118.6 183.8 116C181.8 112.9 180.7 109.6 180.3 105.5C179.9 100.5 180.2 98.6 182.1 94.1C183.4 91.1 186.1 87.3 188 85.7C189.9 84 193.1 82 195 81.1C198 79.7 205.2 79.4 285.2 78.5L301.1 45C311.3 23.5 318.2 10.3 320.3 8.1C322.1 6.3 325.7 3.7 328.5 2.4C331.2 1.2 334.9 0.1 336.5 0V0ZM316.6 49C309.1 64.7 303 77.7 303 78C303 78.3 305.6 78.8 308.7 79.3C311.9 79.7 315.6 80.1 316.9 80.3C319.1 80.5 320.3 78.3 332.1 53.5C339.2 38.6 345 25.4 345 24C345 22.6 344.1 20.5 343 19.2C341.7 17.8 339.9 17 337.6 17C335.8 17 333.3 17.8 332.2 18.7C331.1 19.7 324.1 33.3 316.6 49V49ZM197.6 99.2C196.7 100.5 196 102.4 196 103.5C195.9 104.6 196.8 106.7 198 108.2L200 111H312C315.2 106.7 316.1 104.5 316 103.2C316 102 314.9 99.8 313.6 98.2L311.2 95.5C227.7 95.2 202.5 95.5 201.4 96C200.2 96.5 198.5 97.9 197.6 99.2ZM317.3 256.8L365.5 383C401.5 383 412 382.7 412 382.2C412 381.8 390.6 325.5 364.4 257C338.2 188.5 316.4 131.3 315.9 129.7L315 127C269.2 127 267.7 127.1 268.4 128.7C268.8 129.7 290.8 187.3 317.3 256.8V256.8ZM87.5 364C85.8 365 82.7 367.8 80.6 370.1C78.4 372.5 75.8 376.3 74.9 378.5L73.1 382.5L203.2 383.5C206.9 387.8 208 390 208 391.2C208.1 392.5 207.2 394.7 206 396.2L204 399C102.5 399 73 399.3 73 399.7C73 400.2 74.4 403.2 76.1 406.5C78.3 410.9 79.2 414.5 79.7 420C80.1 425.5 79.8 429.1 78.6 433.5C77.6 436.8 76 441 74.9 442.7C73.9 444.5 73 446.2 73 446.5C73 446.8 134.1 447 208.8 447H344.5C346.5 438.9 348.4 433.6 350.1 430C351.8 426.4 354.8 421.3 356.8 418.7C358.8 416 364.2 410.9 368.7 407.2C373.2 403.5 376.6 400.1 376.2 399.7C375.8 399.3 351.3 399 321.8 399H268C264.8 394.7 263.9 392.5 264 391.2C264 390 265.1 387.8 266.4 386.2L268.8 383.5C345.6 383 348 382.9 347.5 381.2C347.2 380.3 345.3 375 343.1 369.5L339.2 359.5C117.7 359.2 100.8 359.3 96 360.6C93 361.4 89.1 362.9 87.5 364ZM387.7 412.3C379.1 419.6 370.9 426.9 369.6 428.5C368.3 430.1 366.1 433.7 364.7 436.5C363.3 439.2 361.9 442.7 361.6 444.2L361 447L431.7 446.5C439.6 441.6 442.6 438.6 444.4 435.6C447.1 431.3 447.5 429.8 447.5 423.6C447.4 418.4 446.9 415.4 445.4 412.5C444.2 410.3 441.5 407 439.4 405.2C437.3 403.4 433.3 401.3 430.5 400.5C427.3 399.5 421.5 399 414.5 399L403.5 399.1L387.7 412.3ZM20.4 410.5C18.5 413.2 16.7 417.3 16.3 419.5C16 421.7 16.2 425.7 16.8 428.5C17.6 431.9 19.3 435 22.2 438.4C24.6 441.1 28.3 444.1 30.5 445.1C32.7 446.2 36.9 447 40 447C43 447 47 446.4 49 445.6C50.9 444.8 53.8 443.1 55.4 441.8C57 440.5 59.3 437.7 60.6 435.5C61.9 433.3 63.2 429.2 63.6 426.5C63.9 423.7 63.7 419.6 63.1 417.2C62.5 414.9 60.5 411.1 58.7 408.8C56.9 406.5 53.4 403.6 51 402.3C47.6 400.7 44.8 400.1 40 400C34.7 400 32.5 400.6 28.7 402.8C25.8 404.4 22.5 407.5 20.4 410.5V410.5ZM237.5 383.4C242.5 383.7 243.8 384.2 245.7 386.4C247 387.8 248 390 248 391.2C248 392.5 247.1 394.7 246 396.2C244.1 398.8 243.5 399 236 399C228.4 399 227.9 398.8 225.9 396.2C224.8 394.7 223.9 392.6 223.9 391.5C223.9 390.4 224.7 388.5 225.6 387.2C226.4 385.9 228.1 384.4 229.3 383.9C230.5 383.4 234.2 383.2 237.5 383.4ZM310.1 415.5L312.6 418.2C313.9 419.8 315 422.1 315 423.5C315 424.9 313.9 427.1 310.1 431H258L255.5 428.5C254.1 427.1 253 425 253 423.7C253 422.5 253.7 420.5 254.6 419.2C255.4 417.9 257.1 416.5 258.3 416C259.5 415.5 271.6 415.2 310.1 415.5Z" fill="#E0B388"></path></svg> 