<?xml version="1.0" encoding="UTF-8"?> <svg xmlns="http://www.w3.org/2000/svg" width="514" height="510" viewBox="0 0 514 510" fill="none"><path fill-rule="evenodd" clip-rule="evenodd" d="M143.9 94.4047C147.2 94.6047 152.2 95.3047 154.9 95.9047C157.7 96.4047 171.4 101.605 185.4 107.405C199.4 113.205 212.7 118.805 214.9 120.005C217.1 121.105 220.7 123.405 222.9 125.105C225.1 126.805 228.8 130.205 231.1 132.705C233.4 135.205 236.9 139.905 238.8 143.205C240.8 146.505 243.3 151.905 244.4 155.205C245.4 158.505 246.5 164.605 246.9 168.705C247.3 173.205 247.1 178.805 246.4 182.705C245.8 186.305 243.2 194.405 240.7 200.705C238.1 207.205 229.8 223.305 221.6 237.705C207.4 262.905 206.9 264.005 177.2 335.205C160.8 374.805 145.8 409.605 144.1 412.605C142.3 415.505 138.6 420.005 135.8 422.605C132.9 425.105 128.2 428.405 125.3 429.905C122.3 431.405 117 433.405 113.4 434.305C108.7 435.505 104.9 435.805 99.9 435.305C96.1 434.905 90.9 434.005 88.4 433.305C85.9 432.505 71.7 426.905 56.9 420.705C42.1 414.505 27.7 408.205 24.9 406.705C22.2 405.105 17.7 401.605 14.9 398.805C12.2 396.005 8.7 391.605 7.2 389.005C5.6 386.305 3.6 381.705 2.7 378.705C1.6 375.205 1 369.905 1 364.205C1 359.305 1.6 353.405 2.3 351.205C3 349.005 16.9 315.305 33.2 276.205C62.7 205.305 62.7 205.205 70.9 176.205C75.4 160.305 81 142.705 83.3 137.205C85.6 131.705 89.4 124.305 91.7 120.805C94 117.305 98.4 112.205 101.4 109.505C104.4 106.805 109.8 103.105 113.4 101.305C117 99.5048 122.8 97.2047 126.4 96.3047C130 95.5047 134 94.6047 135.4 94.4047C136.8 94.2047 140.6 94.2047 143.9 94.4047ZM121.9 114.005C117.7 116.005 112.8 119.405 109.7 122.505C106.8 125.405 104.4 128.105 104.4 128.705C104.4 129.305 106.5 130.005 109.2 130.305C111.8 130.705 116.8 130.505 120.4 129.905C124 129.205 129.8 127.305 133.4 125.505C137 123.705 142.2 119.905 145.2 117.005C148 114.105 150.4 111.205 150.4 110.705C150.4 110.105 149.1 109.705 147.4 109.705C145.7 109.705 143.8 109.505 143.2 109.305C142.5 109.105 139 109.305 135.4 109.805C131.6 110.305 126 112.105 121.9 114.005ZM152.9 130.405C150.2 132.805 144.5 136.505 140.4 138.605C136.3 140.705 129.3 143.205 124.9 144.205C119 145.505 115 145.805 109.4 145.305C105.3 145.005 100.8 144.405 99.4 144.105C97.1 143.605 96.7 144.005 94.7 149.405C93.4 152.605 89 167.305 84.9 182.205C77.4 208.905 76.9 210.105 47.7 280.205C31.4 319.305 17.5 353.905 16.7 357.205C15.8 360.805 15.5 365.205 15.9 368.205C16.2 370.905 17.5 375.405 18.7 378.205C20 380.905 22.8 385.205 25 387.605C27.1 390.005 30.9 393.005 33.4 394.205C35.9 395.505 50.1 401.505 64.9 407.705C79.7 413.805 94.4 419.405 97.4 420.005C101.5 420.805 104.4 420.705 108.9 419.805C112.2 419.105 116.5 417.705 118.4 416.705C120.3 415.705 123.9 413.005 126.3 410.605C128.9 408.005 132.1 403.205 134 399.205C135.7 395.305 149.8 361.805 165.2 324.705C192.8 258.205 193.5 256.805 207.5 232.205C215.3 218.405 222.6 205.005 223.8 202.305L225.9 197.405C221.3 194.205 216.9 190.305 213.3 186.705C209 182.505 205.5 177.705 203.2 173.205C201.2 169.305 198.8 163.505 197.8 160.205C196.6 156.005 196.1 151.305 196.2 144.705C196.3 139.505 196.5 133.705 196.6 131.805L196.9 128.405C172.9 118.505 165.7 115.705 165.4 115.705C165.1 115.705 163.3 118.105 161.4 120.905C159.5 123.705 155.7 128.005 152.9 130.405ZM325.2 56.7047C325.6 56.7047 328.6 57.9047 331.9 59.3047C335.2 60.7047 338 62.0047 338.2 62.0047C338.3 62.1047 304.9 149.005 263.8 255.205C222.8 361.405 188.8 449.205 187.4 452.705L180.7 450.105C176.9 448.705 173.8 447.505 173.7 447.405C173.6 447.305 206.5 361.705 246.9 257.205C287.4 152.705 321.4 64.8047 322.5 61.9047C323.7 59.1047 324.9 56.7047 325.2 56.7047ZM409.9 94.5047C413.2 94.7047 418.4 95.5047 421.4 96.2047C424.4 96.9047 437.9 102.105 451.4 107.705C464.9 113.305 477.7 118.805 479.9 120.005C482.1 121.105 486.3 123.705 489.2 125.905C492 128.005 496.4 132.305 498.9 135.505C501.3 138.605 504.4 143.505 505.8 146.205C507.1 149.005 508.9 153.505 509.9 156.205C510.8 159.005 511.8 164.605 512.1 168.705C512.4 172.805 512.2 179.105 511.6 182.705C511 186.305 508.4 194.405 505.9 200.705C503.3 207.105 494.8 223.605 486.6 238.205C472.1 263.905 471.5 265.105 442.3 335.205C426.1 374.305 411.7 408.205 410.4 410.705C409.1 413.205 405.4 417.905 402 421.305C398.1 425.205 393.5 428.505 389.4 430.405C385.8 432.105 380.2 434.005 376.9 434.705C373.1 435.505 368.3 435.705 363.9 435.205C360 434.805 354.7 433.705 351.9 432.705C349.2 431.805 335.2 426.105 320.9 420.205C306.6 414.205 292.4 407.905 289.4 406.105C286.4 404.305 282 400.905 279.7 398.505C277.4 396.105 274.3 392.005 272.7 389.205C271 386.505 268.9 381.705 267.9 378.705C266.7 375.105 266.1 370.305 266.1 364.705C266.1 360.005 266.8 354.005 267.6 351.205C268.5 348.505 282.4 314.305 328.3 204.205L336.3 175.705C340.7 160.005 346.2 142.705 348.5 137.205C350.9 131.705 354 125.405 355.4 123.205C356.8 121.005 359.5 117.205 361.4 114.805C363.3 112.505 367.2 108.805 369.9 106.805C372.7 104.705 376.7 102.105 378.9 101.005C381.1 99.9048 385.4 98.2048 388.4 97.2048C391.4 96.2047 396.2 95.1047 398.9 94.7047C401.7 94.4047 406.6 94.2047 409.9 94.5047ZM386.9 114.105C382.7 116.205 377.7 119.805 374.4 123.105C371.4 126.205 369.3 129.005 369.7 129.405C370.2 129.905 374.5 130.205 379.2 130.105C385.4 130.005 389.5 129.405 393.4 127.905C396.4 126.705 401.3 124.105 404.3 122.005C407.3 119.905 411.1 116.505 412.8 114.505C414.5 112.405 415.7 110.505 415.4 110.305C415.1 110.105 413.1 109.805 410.9 109.505C408.7 109.305 404 109.405 400.4 109.905C396.2 110.405 391.4 111.905 386.9 114.105ZM420.2 128.305C417.9 130.605 413.7 133.905 410.9 135.805C408.2 137.605 403.4 140.005 400.4 141.205C397.4 142.405 391.8 144.005 387.9 144.705C383.6 145.505 378.2 145.705 373.9 145.305C370 145.005 365.9 144.505 364.7 144.205C362.8 143.805 362.1 144.405 360.5 148.005C359.4 150.305 354.9 165.005 350.5 180.705L342.5 209.205C296 320.805 282 355.705 281.4 358.705C280.7 362.605 280.7 365.905 281.5 370.205C282.1 373.505 283.5 377.905 284.5 380.005C285.5 382.005 287.9 385.405 289.8 387.505C291.6 389.505 295.3 392.405 298 393.805C300.7 395.305 315.7 401.805 331.4 408.305C359.7 420.005 360 420.105 367.9 420.105C374.1 420.105 377 419.605 380.9 417.805C383.7 416.605 387.5 414.305 389.4 412.805C391.3 411.305 394.3 407.805 396 405.105C397.7 402.405 412.2 368.505 428.3 329.705C457.1 260.305 457.8 258.805 472.2 233.205C480.2 218.905 487.8 205.005 489 202.205L491.2 197.205C483.4 191.805 478.9 187.705 476.2 184.705C473.6 181.705 469.8 176.305 468 172.705C466.1 169.105 463.8 163.305 462.9 159.705C461.6 154.805 461.3 150.105 461.5 140.805L461.9 128.405C440.2 119.305 433.2 116.405 432.3 116.205C431.1 115.805 429.7 117.005 427.6 119.905C425.9 122.305 422.6 126.005 420.2 128.305ZM478.3 158.705C479.5 162.505 482.1 167.705 484.7 171.205C487.1 174.505 490.7 178.405 492.7 180.005L496.4 182.705C497.2 179.205 497.4 176.005 497.4 173.205C497.4 170.505 496.7 165.505 495.8 162.205C495 158.905 493.1 154.005 491.6 151.305C490.1 148.605 486.5 144.005 483.7 141.105C480.8 138.105 478 135.705 477.4 135.705C476.8 135.705 476.4 139.105 476.4 144.005C476.4 149.305 477 154.505 478.3 158.705ZM348.3 1.20474C349.2 1.60474 352.3 2.70474 360.4 5.70474L357.8 12.5047C356.4 16.2047 355.2 19.3047 355.1 19.5047C355 19.6047 352.2 18.8047 348.9 17.6047C345.6 16.4047 342.5 15.2047 342.1 14.8047C341.6 14.5047 342.2 11.5047 343.4 8.20474C344.6 4.90474 345.8 1.80474 346.1 1.40474C346.5 0.904738 347.4 0.904738 348.3 1.20474ZM336.1 28.7047C336.5 28.7047 339.6 29.9047 342.9 31.3047C346.2 32.7047 349 34.0047 349.1 34.0047C349.3 34.1047 348.2 37.2047 346.9 41.0047C345.5 44.7047 344.1 47.7047 343.7 47.7047C343.2 47.7047 340.4 46.8047 337.4 45.6047C334.4 44.3047 331.6 43.1047 331.1 42.8047C330.7 42.5047 331 40.4047 331.8 38.2047C332.6 36.0047 333.7 33.0047 334.3 31.5047C334.9 29.9047 335.7 28.7047 336.1 28.7047ZM211.9 153.705C212.7 157.805 214.7 163.505 216.2 166.205C217.7 169.005 221.6 173.905 224.9 177.205L230.9 183.105C232.3 175.005 232.3 170.905 231.5 166.705C230.9 163.105 229.1 157.405 227.4 154.005C225.8 150.505 222.3 145.405 219.7 142.605C217 139.805 214.2 137.105 213.3 136.605C211.9 135.805 211.5 136.505 210.9 141.005C210.5 144.405 210.8 148.805 211.9 153.705ZM168.2 461.705C168.6 461.705 171.4 462.605 174.4 463.805C177.4 464.905 180.3 466.205 180.7 466.505C181.2 466.905 180.5 470.105 179.2 473.605C177.9 477.105 176.7 480.105 176.4 480.205C176.1 480.405 172.9 479.405 162.4 475.705L164.9 469.005C166.3 465.205 167.4 462.105 167.4 462.005C167.4 461.805 167.7 461.705 168.2 461.705ZM157.2 489.705C157.6 489.705 160.8 490.905 170.9 494.905L168.5 501.605C167.1 505.205 165.9 508.305 165.7 508.505C165.5 508.605 162.3 507.505 151.5 503.205L153.6 498.205C154.7 495.505 155.9 492.405 156.1 491.505C156.4 490.505 156.9 489.705 157.2 489.705ZM122.9 165.105C127.8 165.405 134.5 167.905 158.9 178.105C175.4 185.105 190.5 192.005 192.3 193.505C194.3 195.005 196.9 198.605 198.2 201.705C200.3 206.305 200.6 208.205 200.1 213.205C199.7 218.505 198.3 221.705 188.8 239.005C179.6 255.705 177.6 258.705 175.9 258.405C174.8 258.105 154.8 250.005 131.4 240.305C108 230.505 88.5 222.205 88.1 221.905C87.7 221.505 90.1 211.805 93.5 200.205C96.8 188.705 100.2 178.105 100.9 176.705C101.6 175.305 103.7 172.705 105.6 170.905C107.4 169.205 110.7 167.005 112.9 166.205C115.5 165.205 119 164.805 122.9 165.105ZM109.6 198.705C107.3 206.705 105.5 213.205 105.6 213.305C105.8 213.305 120.2 219.305 137.7 226.505C155.1 233.805 169.7 239.705 170.2 239.705C170.6 239.705 174.2 233.905 178.2 226.705C182.4 219.205 185.4 212.505 185.4 211.005C185.4 209.405 184.8 207.505 184.1 206.605C183.4 205.705 181.6 204.305 179.9 203.505C178.3 202.605 164.9 196.905 150.2 190.805C135.4 184.705 122.3 179.705 120.9 179.705C119.5 179.705 117.3 180.705 116.1 182.005C114.6 183.405 112.4 189.205 109.6 198.705ZM387.9 165.105C392.8 165.405 399.2 167.705 423.9 178.105C440.4 185.005 455 191.505 456.4 192.505C457.8 193.505 460.3 196.305 461.9 198.605C464.6 202.505 464.9 203.605 464.9 219.205L453.9 239.005C447.9 249.805 442.5 258.705 441.9 258.705C441.4 258.705 421.3 250.505 397.4 240.605C373.5 230.605 353.6 222.205 353.2 221.805C352.8 221.505 355.4 211.305 359 199.205C362.5 187.105 366.1 176.205 366.9 175.005C367.7 173.705 370 171.505 371.9 170.005C373.8 168.405 376.9 166.605 378.7 166.005C380.5 165.305 384.6 164.905 387.9 165.105ZM374.9 198.005C372.4 206.105 370.7 212.905 371.2 213.105C371.6 213.405 386.1 219.405 403.4 226.705C420.7 233.905 435.2 239.705 435.7 239.705C436.1 239.705 439.5 234.005 443.4 227.005C447.9 218.705 450.3 213.005 450.4 211.005C450.4 208.805 449.6 207.005 448.2 205.605C446.9 204.505 433.1 198.205 417.4 191.705C401.7 185.105 387.7 179.705 386.3 179.705C384.8 179.705 382.7 180.505 381.5 181.505C380 182.705 378 187.705 374.9 198.005ZM60.2 292.705C60.6 292.705 80 300.605 103.4 310.305C126.8 320.005 146 328.105 146.2 328.305C146.3 328.505 143.7 335.205 140.4 343.205C137.1 351.205 133.3 359.405 132.1 361.505C130.8 363.505 127.7 366.905 125.3 369.005C122.9 371.105 118.4 373.705 115.4 374.805C111 376.505 108.3 376.805 101.9 376.505C95 376.105 92.1 375.205 79.9 370.205C72.2 367.005 63.7 362.905 60.9 361.105C58.2 359.405 54.7 356.405 53.3 354.605C51.9 352.705 50 349.905 49.1 348.205C48.3 346.605 47.1 342.505 46.5 339.205C45.7 335.005 45.7 331.605 46.4 328.005C46.9 325.105 50.1 316.005 53.5 307.705C56.9 299.505 59.9 292.705 60.2 292.705ZM60.9 330.705C60.5 332.105 60.7 335.105 61.3 337.505C61.9 339.805 63.9 343.405 65.8 345.505C68.4 348.405 72.2 350.505 83 355.105C92.4 359.105 98.7 361.205 102.4 361.505C106.6 361.805 108.8 361.505 111.9 359.905C114.1 358.805 116.7 357.105 117.6 356.105C118.5 355.005 120.9 350.505 122.9 346.005C124.8 341.405 126.4 337.405 126.4 337.005C126.4 336.505 113.7 330.905 98.2 324.405C82.6 318.005 69.4 312.705 68.7 312.705C68.1 312.705 66.2 316.205 64.5 320.505C62.8 324.705 61.2 329.305 60.9 330.705ZM326.4 293.005C327.2 293.205 346.7 301.205 369.7 310.805C392.6 320.405 411.4 328.405 411.4 328.705C411.4 329.005 408.4 336.405 404.8 345.205C398.8 359.605 397.5 361.805 392.5 366.805C388.5 370.905 385.2 373.005 380.9 374.705C375.9 376.505 373.5 376.805 366.9 376.405C360.1 376.005 357 375.205 346.4 370.705C339.5 367.905 331.9 364.505 329.4 363.205C326.9 361.905 323.1 359.205 321 357.105C318.8 354.905 315.8 350.505 314.2 347.205C311.9 342.405 311.3 339.805 311.3 333.705C311.2 327.005 311.7 325.005 315.9 314.705C318.4 308.405 321.5 300.805 322.7 297.905C324.2 294.205 325.3 292.705 326.4 293.005ZM329.4 321.205C327.7 325.605 326.2 330.805 326.2 332.705C326.2 334.605 326.6 337.805 327.2 339.705C327.9 341.605 329.8 344.605 331.6 346.405C333.8 348.605 339.8 351.605 349.9 355.805C363.3 361.305 365.5 361.905 370.5 361.605C374.8 361.305 376.9 360.505 379.9 358.205C382.7 356.005 384.9 352.905 387.6 347.005C389.7 342.405 391.3 338.105 391.2 337.405C391.1 336.605 378.2 330.705 362.1 324.005C346.2 317.405 333 312.205 332.9 312.605C332.7 312.905 331.2 316.805 329.4 321.205ZM33.4 362.905L42.3 366.605C47.2 368.605 51.6 370.505 52 371.005C52.5 371.405 51.7 374.605 50.2 378.205C48.6 381.805 47.3 384.705 47.2 384.705C47 384.705 43.5 383.305 39.4 381.605C35.3 379.905 30.9 378.105 27.4 376.705L33.4 362.905ZM298.4 362.805L307.2 366.405C312 368.405 316.4 370.405 316.9 370.805C317.6 371.405 317.1 373.705 315.5 377.405C314.2 380.605 312.8 383.505 312.5 384.005C312.2 384.405 307.9 383.105 302.9 381.005C298 379.005 293.7 377.205 293.4 377.005C293.1 376.805 294.1 373.505 295.7 369.705L298.4 362.805ZM97.1 389.705C97.5 389.705 101.8 391.405 106.6 393.505C111.5 395.505 115.4 397.505 115.4 398.005C115.4 398.405 114.4 401.105 113.2 404.005C112 406.805 110.8 409.605 110.5 410.005C110.1 410.405 105.7 409.105 100.5 407.005C92.5 403.705 91.3 402.905 91.7 401.205C92 400.105 93.2 397.105 94.3 394.505C95.4 391.805 96.7 389.705 97.1 389.705ZM362.1 389.705C362.5 389.705 366.8 391.405 371.6 393.405C376.5 395.505 380.4 397.805 380.4 398.505C380.4 399.105 379.2 402.205 377.9 405.205C376.5 408.205 375.1 410.705 374.9 410.705C374.6 410.705 370.4 409.105 365.6 407.105C360.8 405.105 356.6 403.305 356.4 403.105C356.1 402.905 356.7 400.805 357.7 398.505C358.7 396.105 360 393.205 360.5 392.005C360.9 390.705 361.7 389.705 362.1 389.705Z" fill="#E0B388"></path><path d="M157.356 488.715C157.512 488.733 157.661 488.774 157.758 488.801C157.929 488.849 158.147 488.918 158.411 489.008C158.942 489.188 159.708 489.468 160.767 489.869C162.887 490.672 166.219 491.975 171.269 493.975L172.168 494.331L169.441 501.942L169.437 501.955L169.432 501.967C168.733 503.764 168.08 505.445 167.578 506.701C167.327 507.328 167.111 507.858 166.942 508.246C166.859 508.439 166.782 508.608 166.717 508.74C166.685 508.806 166.65 508.874 166.613 508.936C166.592 508.974 166.52 509.099 166.407 509.212L166.292 509.326L166.147 509.399C165.964 509.491 165.796 509.505 165.731 509.509C165.649 509.514 165.577 509.509 165.529 509.504C165.432 509.494 165.336 509.475 165.255 509.457C165.087 509.419 164.872 509.358 164.615 509.277C164.095 509.114 163.321 508.845 162.229 508.443C160.042 507.639 156.532 506.285 151.13 504.134L150.184 503.757L152.678 497.817C153.224 496.475 153.795 495.038 154.252 493.826C154.722 492.58 155.043 491.654 155.124 491.288L155.132 491.252L155.143 491.218C155.313 490.65 155.546 490.117 155.799 489.706C155.923 489.503 156.073 489.296 156.249 489.126C156.384 488.995 156.718 488.705 157.2 488.705L157.356 488.715ZM157.2 489.705C156.9 489.705 156.4 490.505 156.1 491.505C155.9 492.405 154.7 495.505 153.6 498.205L151.5 503.205C162.3 507.505 165.5 508.605 165.7 508.505C165.9 508.305 167.1 505.205 168.5 501.605L170.9 494.905C160.802 490.905 157.601 489.705 157.2 489.705ZM168.331 460.711C168.462 460.723 168.589 460.75 168.676 460.77C168.821 460.802 168.995 460.847 169.188 460.901C169.573 461.01 170.071 461.166 170.642 461.356C171.785 461.738 173.254 462.269 174.771 462.876C176.282 463.431 177.764 464.034 178.924 464.538C179.507 464.791 180.014 465.022 180.404 465.211C180.668 465.338 180.931 465.471 181.128 465.591L181.3 465.705L181.312 465.714L181.324 465.724C181.668 465.998 181.773 466.384 181.813 466.588C181.861 466.827 181.868 467.085 181.858 467.329C181.84 467.823 181.745 468.434 181.603 469.102C181.315 470.448 180.8 472.171 180.138 473.953C179.486 475.707 178.855 477.346 178.348 478.564C178.095 479.171 177.866 479.689 177.676 480.07C177.582 480.258 177.486 480.436 177.392 480.581C177.345 480.652 177.284 480.74 177.209 480.823C177.177 480.859 177.089 480.949 176.954 481.035L176.955 481.037C176.949 481.041 176.942 481.044 176.937 481.048C176.916 481.06 176.895 481.073 176.873 481.085C176.862 481.091 176.851 481.096 176.841 481.102C176.829 481.107 176.816 481.114 176.804 481.119C176.775 481.132 176.747 481.141 176.72 481.151C176.718 481.152 176.717 481.153 176.716 481.153L176.715 481.152C176.565 481.206 176.437 481.221 176.373 481.226C176.249 481.234 176.129 481.225 176.031 481.214C175.832 481.191 175.593 481.143 175.325 481.078C174.783 480.946 174 480.715 172.921 480.37C170.755 479.678 167.317 478.497 162.067 476.647L161.107 476.31L163.963 468.655C164.661 466.759 165.285 465.039 165.733 463.781C165.958 463.152 166.138 462.64 166.261 462.281C166.323 462.101 166.369 461.964 166.398 461.871C166.405 461.85 166.41 461.832 166.414 461.818C166.503 461.208 167.021 460.931 167.271 460.84C167.57 460.731 167.908 460.705 168.2 460.705L168.331 460.711ZM168.2 461.705C167.7 461.705 167.4 461.805 167.4 462.005C167.399 462.108 166.299 465.207 164.9 469.005L162.4 475.705C172.9 479.405 176.1 480.405 176.4 480.205C176.7 480.103 177.9 477.104 179.2 473.605C180.5 470.105 181.2 466.905 180.7 466.505C180.3 466.205 177.4 464.905 174.4 463.805C171.4 462.605 168.6 461.705 168.2 461.705ZM325.355 55.7148C325.51 55.7332 325.654 55.7724 325.737 55.7959C325.891 55.839 326.075 55.8986 326.278 55.9687C326.686 56.1096 327.216 56.3095 327.827 56.5488C329.052 57.0286 330.637 57.682 332.291 58.3838C333.948 59.0869 335.481 59.7659 336.615 60.2646C337.185 60.515 337.649 60.7174 337.982 60.8574C338.143 60.9247 338.263 60.9734 338.347 61.0049H338.614L338.907 61.2978C339.098 61.5643 339.2 61.9765 339.198 62.0761C339.194 62.1201 339.184 62.1876 339.179 62.2129C339.17 62.2547 339.16 62.2891 339.156 62.3017C339.147 62.3337 339.136 62.3665 339.128 62.3916C339.11 62.4458 339.084 62.5186 339.053 62.6054C338.989 62.7814 338.894 63.0393 338.77 63.374C338.519 64.0446 338.144 65.0371 337.652 66.334C336.668 68.9285 335.211 72.7471 333.331 77.6572C329.571 87.4783 324.12 101.67 317.383 119.177C303.908 154.19 285.283 202.465 264.732 255.565C223.735 361.76 189.731 449.569 188.328 453.076L187.961 453.995L180.338 451.037C178.441 450.338 176.717 449.689 175.452 449.2C174.819 448.956 174.296 448.749 173.924 448.598C173.739 448.522 173.584 448.457 173.469 448.406C173.412 448.381 173.355 448.355 173.305 448.33C173.28 448.318 173.247 448.3 173.211 448.279C173.201 448.273 173.095 448.214 172.993 448.112C172.804 447.848 172.7 447.437 172.702 447.337C172.706 447.292 172.716 447.224 172.721 447.198C172.729 447.156 172.739 447.122 172.743 447.109C172.752 447.077 172.763 447.044 172.771 447.02C172.79 446.966 172.815 446.893 172.846 446.808C172.908 446.634 173.002 446.38 173.125 446.051C173.371 445.39 173.74 444.412 174.225 443.135C175.194 440.579 176.63 436.818 178.48 431.981C182.182 422.309 187.547 408.333 194.179 391.096C207.441 356.62 225.767 309.094 245.967 256.844C286.468 152.34 320.467 64.4453 321.565 61.5498L321.572 61.5303L321.581 61.5107C322.186 60.0984 322.796 58.7754 323.298 57.7978C323.547 57.3128 323.78 56.8911 323.98 56.581C324.078 56.4303 324.187 56.2745 324.303 56.1455C324.359 56.0823 324.444 55.9962 324.552 55.9189C324.638 55.8573 324.87 55.7051 325.2 55.7051L325.355 55.7148ZM325.2 56.7047C324.9 56.7047 323.7 59.1047 322.5 61.9047C321.4 64.8047 287.4 152.705 246.9 257.205C206.529 361.631 173.647 447.184 173.7 447.405C173.8 447.505 176.9 448.705 180.7 450.105L187.4 452.705C188.8 449.205 222.8 361.405 263.8 255.205C304.882 149.05 338.271 62.1786 338.2 62.0047C338 62.0047 335.2 60.7047 331.9 59.3047C328.6 57.9047 325.6 56.7047 325.2 56.7047ZM135.259 93.415C136.769 93.1993 140.659 93.2061 143.961 93.4062C147.293 93.6082 152.312 94.3097 155.076 94.9199L155.402 94.9873C156.234 95.1757 157.554 95.5872 159.201 96.1504C161.112 96.8036 163.536 97.6857 166.304 98.7314C171.84 100.823 178.775 103.577 185.783 106.48C192.784 109.381 199.613 112.233 204.967 114.51C210.241 116.753 214.153 118.467 215.347 119.11C217.613 120.243 221.268 122.58 223.512 124.313C225.76 126.051 229.501 129.49 231.836 132.027C234.18 134.575 237.715 139.321 239.655 142.687L240.042 143.34C241.872 146.497 243.991 151.066 245.122 154.232L245.349 154.889L245.354 154.901L245.357 154.915C246.318 158.083 247.353 163.702 247.812 167.808L247.896 168.607L247.896 168.616C248.303 173.188 248.102 178.87 247.386 182.868L247.387 182.869C246.768 186.579 244.135 194.761 241.63 201.073L241.629 201.076C239.001 207.645 230.671 223.794 222.471 238.194L222.472 238.195C208.305 263.337 207.825 264.385 178.123 335.59C169.922 355.392 162.071 373.995 156.057 388.023C153.05 395.038 150.501 400.911 148.598 405.219C146.708 409.494 145.426 412.292 144.97 413.098L144.96 413.115L144.949 413.132C143.101 416.11 139.343 420.679 136.48 423.338L136.467 423.35L136.453 423.362C133.51 425.9 128.745 429.249 125.76 430.793L125.747 430.799C122.685 432.33 117.32 434.354 113.646 435.272L113.647 435.273C108.834 436.502 104.917 436.811 99.8008 436.3L99.7949 436.299C95.9643 435.896 90.7046 434.988 88.1309 434.268L88.1123 434.263L88.0957 434.257C85.545 433.441 71.2993 427.821 56.5137 421.627C41.7368 415.437 27.2806 409.114 24.4277 407.586L24.4092 407.576L24.3906 407.565C21.6119 405.919 17.0465 402.365 14.1934 399.512L14.1865 399.506L14.1797 399.499C11.4463 396.664 7.88852 392.199 6.33398 389.505C4.69239 386.732 2.66368 382.064 1.74219 378.992C0.601378 375.354 2.34346e-05 369.944 0 364.205C0 361.718 0.152077 358.984 0.392578 356.592C0.630461 354.226 0.962324 352.109 1.34668 350.901C1.71338 349.749 5.39152 340.71 10.9756 327.161C16.5762 313.572 24.1261 295.371 32.2764 275.82C61.7768 204.919 61.7555 204.869 69.9375 175.933L70.793 172.935C75.1247 157.879 80.1957 142.036 82.377 136.819C84.6923 131.283 88.5201 123.823 90.8643 120.256C93.2116 116.684 97.6682 111.519 100.731 108.762C103.797 106.003 109.271 102.251 112.953 100.41C116.598 98.5879 122.467 96.2575 126.157 95.3349L126.17 95.331L126.183 95.3281C129.749 94.5356 133.809 93.6222 135.259 93.415ZM398.794 93.7099C401.635 93.4056 406.604 93.201 409.99 93.5088C413.352 93.7153 418.586 94.5209 421.627 95.2304C423.21 95.5998 427.411 97.1067 432.821 99.1836C438.268 101.275 445.026 103.978 451.783 106.781C465.188 112.342 478 117.844 480.347 119.11C482.607 120.241 486.857 122.873 489.8 125.104C492.494 127.125 496.584 131.086 499.188 134.265L499.688 134.889L499.69 134.893C502.126 138.038 505.259 142.989 506.688 145.744L506.698 145.764L506.707 145.783C507.858 148.262 509.388 152.039 510.426 154.762L510.838 155.857L510.846 155.878L510.852 155.898C511.782 158.794 512.794 164.477 513.098 168.632C513.402 172.795 513.201 179.176 512.586 182.869C511.968 186.579 509.334 194.761 506.829 201.073L506.826 201.081C504.2 207.546 495.671 224.095 487.472 238.694L487.471 238.696C473.004 264.338 472.422 265.488 443.223 335.587L443.224 335.588C435.123 355.14 427.472 373.392 421.684 387.069C415.91 400.712 411.961 409.87 411.287 411.166C409.92 413.795 406.14 418.579 402.707 422.012C398.739 425.98 394.044 429.355 389.82 431.312L389.819 431.311C386.155 433.041 380.487 434.966 377.107 435.683L377.106 435.684C373.191 436.508 368.283 436.709 363.787 436.198C359.833 435.792 354.457 434.68 351.563 433.646C348.771 432.711 334.757 427.003 320.519 421.129L320.513 421.127C313.357 418.125 306.226 415.047 300.505 412.493C294.815 409.953 290.45 407.9 288.886 406.962C285.823 405.124 281.349 401.671 278.978 399.196C276.635 396.752 273.503 392.612 271.854 389.737C270.099 386.95 267.968 382.072 266.951 379.02C265.704 375.28 265.1 370.362 265.1 364.705C265.1 359.952 265.804 353.85 266.639 350.93L266.645 350.909L266.651 350.889C267.567 348.143 281.486 313.897 327.353 203.878L335.337 175.435L336.174 172.476C340.413 157.616 345.396 142.036 347.577 136.819L347.58 136.812L347.583 136.805C349.984 131.303 353.111 124.94 354.557 122.668C355.976 120.438 358.696 116.609 360.616 114.184L360.622 114.176L360.629 114.168C362.583 111.803 366.542 108.047 369.305 106.001C372.129 103.884 376.179 101.247 378.453 100.11C380.71 98.9819 385.058 97.2645 388.084 96.2558C391.143 95.2361 396.001 94.1237 398.754 93.7158L398.773 93.7129L398.794 93.7099ZM143.9 94.4047C140.6 94.2047 136.8 94.2047 135.4 94.4047C134 94.6047 130 95.5047 126.4 96.3047C122.8 97.2047 117 99.5048 113.4 101.305C109.8 103.105 104.4 106.805 101.4 109.505C98.4 112.205 94 117.305 91.7 120.805C89.4 124.305 85.6 131.705 83.3 137.205C81 142.705 75.4 160.305 70.9 176.205C62.7 205.205 62.7 205.305 33.2 276.205C16.9 315.305 3 349.005 2.3 351.205C1.6 353.405 1 359.305 1 364.205C1 369.905 1.6 375.205 2.7 378.705C3.6 381.705 5.6 386.305 7.2 389.005C8.7 391.605 12.2 396.005 14.9 398.805C17.7 401.605 22.2 405.105 24.9 406.705C27.7011 408.205 42.1008 414.505 56.9 420.705C71.7 426.905 85.9 432.505 88.4 433.305C90.9 434.005 96.1 434.905 99.9 435.305C104.9 435.805 108.7 435.505 113.4 434.305C117 433.405 122.3 431.405 125.3 429.905C128.2 428.405 132.9 425.105 135.8 422.605C138.6 420.005 142.3 415.505 144.1 412.605C145.8 409.605 160.8 374.805 177.2 335.205C206.9 264.005 207.4 262.905 221.6 237.705C229.8 223.305 238.1 207.205 240.7 200.705C243.2 194.405 245.8 186.305 246.4 182.705C247.1 178.805 247.3 173.205 246.9 168.705C246.5 164.605 245.4 158.505 244.4 155.205C243.3 151.905 240.8 146.505 238.8 143.205C236.9 139.905 233.4 135.205 231.1 132.705C228.8 130.205 225.1 126.805 222.9 125.105C220.7 123.405 217.1 121.105 214.9 120.005C212.7 118.805 199.4 113.205 185.4 107.405C171.4 101.605 157.7 96.4047 154.9 95.9047C152.2 95.3047 147.2 94.6047 143.9 94.4047ZM409.9 94.5047C406.6 94.2047 401.7 94.4047 398.9 94.7047C396.2 95.1047 391.4 96.2047 388.4 97.2048C385.4 98.2048 381.1 99.9048 378.9 101.005C376.7 102.105 372.7 104.705 369.9 106.805C367.2 108.805 363.3 112.505 361.4 114.805C359.5 117.205 356.8 121.005 355.4 123.205C354 125.405 350.9 131.705 348.5 137.205C346.2 142.705 340.7 160.005 336.3 175.705L328.3 204.205C282.4 314.305 268.5 348.505 267.6 351.205C266.8 354.005 266.1 360.005 266.1 364.705C266.1 370.305 266.7 375.105 267.9 378.705C268.9 381.705 271 386.505 272.7 389.205C274.3 392.005 277.4 396.105 279.7 398.505C282 400.905 286.4 404.305 289.4 406.105C292.4 407.905 306.6 414.205 320.9 420.205C335.2 426.105 349.2 431.805 351.9 432.705C354.7 433.705 360 434.805 363.9 435.205C368.3 435.705 373.1 435.505 376.9 434.705C380.2 434.005 385.8 432.105 389.4 430.405C393.5 428.505 398.1 425.205 402 421.305C405.4 417.905 409.1 413.205 410.4 410.705C411.7 408.205 426.1 374.305 442.3 335.205C471.5 265.105 472.1 263.905 486.6 238.205C494.8 223.605 503.3 207.105 505.9 200.705C508.4 194.405 511 186.305 511.6 182.705C512.2 179.105 512.4 172.805 512.1 168.705C511.8 164.605 510.8 159.005 509.9 156.205C508.9 153.505 507.1 149.005 505.8 146.205C504.4 143.505 501.3 138.605 498.9 135.505C496.4 132.305 492 128.005 489.2 125.905C486.3 123.705 482.1 121.105 479.9 120.005C477.7 118.805 464.9 113.305 451.4 107.705C437.9 102.105 424.4 96.9047 421.4 96.2047C418.4 95.5047 413.2 94.7047 409.9 94.5047ZM165.4 115.705C165.706 115.707 172.911 118.509 196.9 128.405L196.6 131.805C196.5 133.705 196.3 139.505 196.2 144.705C196.1 151.305 196.6 156.005 197.8 160.205C198.8 163.505 201.2 169.305 203.2 173.205C205.5 177.705 209 182.505 213.3 186.705C216.9 190.305 221.3 194.205 225.9 197.405L223.8 202.305C222.6 205.005 215.3 218.405 207.5 232.205C193.5 256.805 192.8 258.205 165.2 324.705C149.8 361.805 135.7 395.305 134 399.205C132.1 403.205 128.9 408.005 126.3 410.605C123.9 413.005 120.3 415.705 118.4 416.705C116.5 417.705 112.2 419.105 108.9 419.805C104.4 420.705 101.5 420.805 97.4 420.005C94.4 419.405 79.7 413.805 64.9 407.705C50.1009 401.505 35.9012 395.505 33.4 394.205C30.9 393.005 27.1 390.005 25 387.605C22.8 385.205 20 380.905 18.7 378.205C17.5 375.405 16.2 370.905 15.9 368.205C15.5 365.205 15.8 360.805 16.7 357.205C17.5 353.905 31.4 319.305 47.7 280.205C76.9 210.105 77.4 208.905 84.9 182.205C89 167.305 93.4 152.605 94.7 149.405C96.7 144.005 97.1 143.605 99.4 144.105C100.8 144.405 105.3 145.005 109.4 145.305C115 145.805 119 145.505 124.9 144.205C129.3 143.205 136.3 140.705 140.4 138.605C144.5 136.505 150.2 132.805 152.9 130.405C155.7 128.005 159.5 123.705 161.4 120.905C163.3 118.105 165.1 115.705 165.4 115.705ZM427.6 119.905C429.7 117.005 431.1 115.805 432.3 116.205C433.2 116.405 440.2 119.305 461.9 128.405L461.5 140.805C461.3 150.105 461.6 154.805 462.9 159.705C463.8 163.305 466.1 169.105 468 172.705C469.8 176.305 473.6 181.705 476.2 184.705C478.9 187.705 483.4 191.805 491.2 197.205L489 202.205C487.8 205.005 480.2 218.905 472.2 233.205C457.8 258.805 457.1 260.305 428.3 329.705C412.2 368.504 397.701 402.404 396 405.105C394.3 407.805 391.3 411.305 389.4 412.805C387.5 414.305 383.7 416.605 380.9 417.805C377 419.605 374.1 420.105 367.9 420.105C360 420.105 359.7 420.005 331.4 408.305C315.7 401.805 300.7 395.305 298 393.805C295.3 392.405 291.6 389.505 289.8 387.505C287.9 385.405 285.5 382.005 284.5 380.005C283.5 377.905 282.1 373.505 281.5 370.205C280.7 365.905 280.7 362.605 281.4 358.705C282 355.705 296 320.805 342.5 209.205L350.5 180.705C354.9 165.005 359.4 150.305 360.5 148.005C362.1 144.405 362.8 143.805 364.7 144.205C365.9 144.505 370 145.005 373.9 145.305C378.2 145.705 383.6 145.505 387.9 144.705C391.8 144.005 397.4 142.405 400.4 141.205C403.4 140.005 408.2 137.605 410.9 135.805C413.7 133.905 417.9 130.605 420.2 128.305C422.6 126.005 425.9 122.305 427.6 119.905ZM165.63 116.826C165.418 117.066 165.135 117.416 164.795 117.861C164.085 118.791 163.171 120.075 162.228 121.466C160.282 124.333 156.431 128.69 153.563 131.151C150.781 133.625 145.004 137.37 140.855 139.495C136.678 141.635 129.599 144.162 125.122 145.18L125.115 145.182C119.126 146.501 115.023 146.811 109.312 146.301C105.198 145.999 100.655 145.397 99.1904 145.083L99.1875 145.082C98.6139 144.957 98.3094 144.927 98.1064 144.954C97.9748 144.971 97.8579 145.013 97.6826 145.209C97.4703 145.446 97.212 145.871 96.8672 146.638C96.528 147.392 96.1379 148.401 95.6377 149.752L95.6328 149.767L95.626 149.781C94.3532 152.914 89.9708 167.546 85.8643 182.47L85.8623 182.476C78.3436 209.242 77.8198 210.497 48.623 280.589C40.4744 300.136 32.9261 318.558 27.3154 332.503C24.5099 339.476 22.1895 345.328 20.5215 349.641C18.8366 353.997 17.8521 356.697 17.6719 357.44L17.6699 357.447C16.85 360.727 16.5479 364.687 16.8271 367.521L16.8916 368.072L16.8926 368.083L16.8936 368.095C17.1797 370.669 18.4422 375.059 19.6113 377.793C20.7995 380.253 23.28 384.096 25.332 386.473L25.7529 386.946C27.653 389.118 31.0196 391.81 33.376 393.07L33.833 393.303L33.8467 393.311L33.8613 393.317C36.3127 394.592 50.4478 400.566 65.2812 406.78L68.0488 407.916C74.492 410.547 80.7762 413.028 85.9297 414.982C88.8748 416.099 91.4461 417.043 93.4648 417.743C95.5039 418.451 96.9187 418.888 97.5918 419.023L98.3184 419.157C101.889 419.778 104.576 419.649 108.692 418.826C111.949 418.135 116.149 416.759 117.935 415.819C119.725 414.877 123.246 412.245 125.593 409.897C128.088 407.402 131.221 402.716 133.087 398.794C134.804 394.853 148.889 361.39 164.276 324.321C191.876 257.822 192.597 256.37 206.631 231.71C214.443 217.888 221.711 204.543 222.886 201.898L224.661 197.754C220.244 194.605 216.048 190.867 212.593 187.412C208.223 183.143 204.66 178.259 202.31 173.66C200.288 169.719 197.863 163.863 196.843 160.495L196.839 160.479C195.603 156.152 195.099 151.346 195.2 144.689V144.686C195.3 139.48 195.501 133.668 195.602 131.752L195.604 131.717L195.839 129.049C184.225 124.259 176.632 121.169 171.891 119.27C169.474 118.303 167.802 117.646 166.717 117.231C166.243 117.051 165.886 116.918 165.63 116.826ZM431.983 117.153C431.858 117.112 431.566 117.073 430.914 117.597C430.262 118.121 429.451 119.054 428.41 120.491L428.409 120.49C426.665 122.95 423.335 126.681 420.906 129.011L420.907 129.012C418.549 131.37 414.295 134.709 411.462 136.632L411.455 136.637C408.684 138.484 403.819 140.914 400.771 142.133C397.703 143.36 392.037 144.979 388.076 145.689L388.075 145.688C383.68 146.505 378.191 146.708 373.808 146.301C369.96 146.004 365.827 145.506 364.494 145.183C364.068 145.093 363.805 145.083 363.622 145.111C363.468 145.136 363.328 145.194 363.155 145.349C362.728 145.732 362.23 146.575 361.414 148.411L361.402 148.437C361.16 148.943 360.692 150.228 360.041 152.191C359.399 154.128 358.598 156.664 357.693 159.622C356.11 164.799 354.21 171.259 352.287 178.048L343.463 209.475L343.446 209.533L343.423 209.59C320.173 265.389 305.05 302.01 295.664 325.057C290.971 336.58 287.714 344.707 285.593 350.138C284.532 352.853 283.758 354.89 283.23 356.339C282.691 357.821 282.438 358.615 282.381 358.9C281.749 362.432 281.709 365.443 282.347 369.248L282.483 370.021V370.025C283.07 373.251 284.445 377.559 285.4 379.568C286.295 381.352 288.404 384.379 290.188 386.436L290.542 386.834L290.543 386.836C292.262 388.746 295.867 391.572 298.46 392.917L298.485 392.931C301.121 394.395 316.05 400.868 331.782 407.381L341.156 411.249C349.346 414.614 354.194 416.537 357.607 417.641C362.068 419.083 364.002 419.104 367.9 419.104C374.018 419.104 376.759 418.614 380.48 416.896L380.493 416.891L380.506 416.886C383.226 415.72 386.95 413.464 388.78 412.02C390.568 410.608 393.496 407.205 395.153 404.572C395.326 404.298 395.711 403.535 396.31 402.257C396.896 401.004 397.662 399.314 398.586 397.234C400.433 393.076 402.907 387.378 405.831 380.549C411.679 366.891 419.327 348.719 427.376 329.321C456.175 259.924 456.896 258.373 471.328 232.715C479.347 218.381 486.908 204.548 488.081 201.811L488.085 201.802L489.954 197.553C482.524 192.353 478.142 188.357 475.457 185.374L475.45 185.367L475.444 185.359C472.808 182.318 468.965 176.863 467.115 173.172L466.749 172.461C464.898 168.787 462.795 163.407 461.93 159.947C460.595 154.911 460.3 150.094 460.5 140.783V140.772L460.878 129.061C450.382 124.659 443.401 121.741 438.919 119.892C436.632 118.948 435.001 118.285 433.887 117.846C433.329 117.626 432.906 117.465 432.599 117.353C432.445 117.298 432.325 117.255 432.233 117.226C432.188 117.211 432.152 117.2 432.125 117.192C432.112 117.189 432.101 117.186 432.094 117.184C432.086 117.182 432.083 117.181 432.083 117.181L432.032 117.17L431.983 117.153ZM362.211 388.71C362.317 388.72 362.407 388.741 362.45 388.751C362.534 388.771 362.625 388.797 362.718 388.825C362.905 388.882 363.141 388.962 363.414 389.06C363.962 389.255 364.699 389.534 365.564 389.873C367.298 390.552 369.581 391.48 371.984 392.481L371.994 392.485C374.473 393.548 376.711 394.665 378.341 395.615C379.152 396.088 379.837 396.533 380.331 396.921C380.575 397.112 380.803 397.313 380.979 397.516C381.067 397.617 381.161 397.741 381.237 397.885C381.31 398.021 381.4 398.237 381.4 398.505C381.4 398.705 381.356 398.916 381.318 399.074C381.275 399.254 381.217 399.461 381.146 399.684C381.006 400.131 380.807 400.687 380.573 401.308C380.104 402.551 379.472 404.092 378.817 405.603L378.812 405.615L378.807 405.628C378.099 407.145 377.388 408.54 376.826 409.561C376.546 410.07 376.296 410.499 376.097 410.809C375.999 410.96 375.9 411.105 375.806 411.221C375.761 411.276 375.695 411.353 375.613 411.426C375.573 411.462 375.504 411.517 375.413 411.568C375.335 411.613 375.151 411.705 374.9 411.705C374.741 411.705 374.592 411.666 374.555 411.656C374.481 411.638 374.398 411.613 374.313 411.587C374.143 411.534 373.921 411.458 373.661 411.366C373.138 411.181 372.426 410.914 371.578 410.588C369.881 409.934 367.623 409.03 365.216 408.027C362.814 407.027 360.559 406.075 358.878 405.348C358.038 404.984 357.337 404.674 356.83 404.441C356.578 404.326 356.366 404.225 356.206 404.145C356.127 404.105 356.051 404.065 355.985 404.027C355.962 404.014 355.849 403.949 355.739 403.853C355.412 403.572 355.352 403.191 355.337 403.07C355.312 402.875 355.324 402.676 355.343 402.512C355.381 402.172 355.476 401.759 355.601 401.319C355.853 400.429 356.27 399.286 356.783 398.106C357.285 396.902 357.861 395.576 358.371 394.405C358.878 393.243 359.315 392.244 359.563 391.65C359.795 390.922 360.134 390.27 360.491 389.779C360.673 389.529 360.878 389.294 361.099 389.111C361.278 388.963 361.635 388.705 362.1 388.705L362.211 388.71ZM97.2109 388.71C97.3173 388.72 97.4074 388.741 97.4512 388.751C97.5347 388.771 97.6259 388.798 97.7188 388.826C97.9062 388.884 98.1434 388.964 98.417 389.062C98.9665 389.26 99.7032 389.543 100.57 389.889C102.306 390.58 104.59 391.534 106.997 392.587C109.458 393.592 111.678 394.6 113.293 395.427C114.099 395.839 114.776 396.218 115.262 396.535C115.5 396.691 115.724 396.853 115.898 397.013C115.985 397.092 116.087 397.196 116.175 397.321C116.248 397.427 116.4 397.67 116.4 398.005C116.4 398.194 116.352 398.391 116.324 398.503C116.288 398.648 116.237 398.819 116.178 399.006C116.059 399.381 115.891 399.862 115.688 400.412C115.283 401.515 114.728 402.928 114.124 404.387L114.119 404.398C113.52 405.796 112.917 407.203 112.427 408.31C112.182 408.862 111.962 409.348 111.782 409.724C111.623 410.057 111.447 410.408 111.3 410.604L111.258 410.661L111.207 410.712C110.984 410.934 110.724 411.009 110.589 411.038C110.435 411.071 110.285 411.078 110.161 411.077C109.91 411.075 109.622 411.038 109.324 410.984C108.72 410.876 107.928 410.673 107.014 410.4C105.176 409.852 102.747 408.99 100.126 407.932L100.119 407.929C96.1507 406.292 93.7476 405.229 92.3994 404.339C91.7194 403.89 91.1833 403.408 90.8857 402.809C90.5658 402.163 90.5949 401.535 90.7266 400.976L90.7305 400.959L90.7354 400.941C91.0571 399.762 92.2887 396.692 93.3789 394.115C93.9435 392.731 94.5626 391.49 95.1025 390.581C95.3711 390.129 95.6346 389.735 95.874 389.442C95.9916 389.298 96.1265 389.151 96.2734 389.029C96.372 388.948 96.6738 388.705 97.0996 388.705L97.2109 388.71ZM362.1 389.705C361.7 389.705 360.9 390.705 360.5 392.005C360 393.205 358.7 396.105 357.7 398.505C356.7 400.805 356.1 402.905 356.4 403.105C356.601 403.305 360.801 405.105 365.6 407.105C370.4 409.105 374.6 410.705 374.9 410.705C375.101 410.702 376.501 408.203 377.9 405.205C379.2 402.205 380.4 399.105 380.4 398.505C380.4 397.805 376.5 395.505 371.6 393.405C366.8 391.405 362.5 389.705 362.1 389.705ZM97.1 389.705C96.6995 389.706 95.3996 391.806 94.3 394.505C93.2 397.105 92 400.105 91.7 401.205C91.3 402.905 92.5 403.705 100.5 407.005C105.7 409.105 110.1 410.405 110.5 410.005C110.8 409.605 112 406.805 113.2 404.005C114.4 401.105 115.4 398.405 115.4 398.005C115.4 397.505 111.5 395.505 106.6 393.505C101.8 391.405 97.5 389.705 97.1 389.705ZM42.6768 365.679C45.1299 366.68 47.4678 367.66 49.2451 368.454C50.1322 368.85 50.892 369.206 51.4609 369.498C51.7442 369.643 51.9943 369.78 52.1943 369.903C52.3352 369.99 52.5554 370.131 52.7236 370.314C52.9958 370.586 53.0809 370.924 53.1133 371.11C53.1556 371.354 53.1554 371.615 53.1387 371.86C53.1048 372.358 52.989 372.973 52.8203 373.647C52.4802 375.008 51.8868 376.757 51.123 378.59L51.1182 378.601L51.1143 378.611C50.3146 380.411 49.5869 382.04 49.0469 383.221C48.7774 383.81 48.5509 384.295 48.3838 384.636C48.3015 384.804 48.2267 384.95 48.165 385.061C48.1362 385.112 48.0967 385.18 48.0527 385.243C48.0331 385.271 47.9906 385.331 47.9297 385.394C47.8998 385.424 47.84 385.483 47.7539 385.539C47.6841 385.585 47.4855 385.705 47.2002 385.705C47.0824 385.705 46.9858 385.684 46.9619 385.679C46.9201 385.67 46.8815 385.659 46.8516 385.65C46.7908 385.633 46.7231 385.612 46.6553 385.589C46.5171 385.542 46.3357 385.476 46.1221 385.395C45.6926 385.234 45.1009 385.004 44.3926 384.722C42.9743 384.157 41.0692 383.379 39.0166 382.528C34.9192 380.829 30.5231 379.031 27.0283 377.633L26.0723 377.251L32.875 361.603L42.6768 365.679ZM307.579 365.479L307.585 365.481C309.993 366.485 312.303 367.489 314.076 368.294C314.962 368.696 315.72 369.051 316.291 369.333C316.576 369.473 316.821 369.599 317.016 369.705C317.187 369.799 317.384 369.911 317.524 370.023L317.538 370.034L317.551 370.046C318.018 370.447 318.164 371.021 318.199 371.495C318.236 371.987 318.168 372.551 318.04 373.151C317.783 374.355 317.23 375.918 316.426 377.78C315.124 380.985 313.7 383.948 313.357 384.52L313.331 384.563L313.3 384.604C313.076 384.903 312.772 384.999 312.634 385.032C312.473 385.071 312.317 385.078 312.197 385.077C311.954 385.075 311.675 385.036 311.392 384.982C310.814 384.874 310.05 384.671 309.167 384.397C307.392 383.848 305.036 382.986 302.513 381.927C300.064 380.927 297.764 379.978 296.037 379.252C295.173 378.889 294.449 378.58 293.921 378.35C293.657 378.234 293.438 378.136 293.272 378.06C293.143 378 292.962 377.914 292.846 377.837C292.515 377.617 292.417 377.293 292.387 377.168C292.35 377.016 292.346 376.873 292.348 376.774C292.351 376.571 292.384 376.344 292.426 376.125C292.513 375.675 292.672 375.084 292.883 374.407C293.307 373.045 293.969 371.24 294.778 369.316L297.839 361.495L307.579 365.479ZM27.4 376.705C30.9 378.105 35.3 379.905 39.4 381.605C43.5 383.305 47 384.705 47.2 384.705C47.3014 384.701 48.601 381.802 50.2 378.205C51.7 374.605 52.5 371.405 52 371.005C51.6 370.505 47.2 368.605 42.3 366.605L33.4 362.905L27.4 376.705ZM295.7 369.705C294.1 373.505 293.1 376.805 293.4 377.005C293.703 377.206 298.002 379.006 302.9 381.005C307.9 383.105 312.2 384.405 312.5 384.005C312.8 383.505 314.2 380.605 315.5 377.405C317.1 373.705 317.6 371.405 316.9 370.805C316.4 370.405 312 368.405 307.2 366.405L298.4 362.805L295.7 369.705ZM60.3018 291.71C60.3967 291.719 60.4668 291.739 60.4736 291.74C60.5154 291.751 60.5558 291.762 60.5889 291.772C60.6569 291.794 60.7387 291.822 60.8281 291.853C61.0094 291.918 61.2589 292.011 61.5684 292.129C62.1893 292.366 63.0767 292.716 64.1982 293.162C66.4425 294.056 69.6396 295.347 73.5527 296.941C81.3801 300.13 92.0821 304.53 103.783 309.381C115.484 314.231 126.136 318.682 133.888 321.945C137.763 323.577 140.916 324.912 143.112 325.853C144.21 326.322 145.071 326.694 145.666 326.956C145.963 327.087 146.198 327.192 146.363 327.269C146.445 327.306 146.517 327.341 146.574 327.369C146.602 327.383 146.635 327.399 146.668 327.418C146.684 327.427 146.709 327.442 146.737 327.461C146.744 327.465 146.767 327.479 146.798 327.503L146.907 327.598L147.021 327.712L147.095 327.857C147.192 328.051 147.2 328.226 147.202 328.278C147.205 328.353 147.199 328.416 147.195 328.453C147.187 328.528 147.173 328.596 147.162 328.643C147.139 328.741 147.106 328.855 147.069 328.972C146.995 329.21 146.883 329.536 146.741 329.931C146.456 330.724 146.033 331.839 145.507 333.192C144.454 335.9 142.976 339.581 141.324 343.586C138.025 351.585 134.203 359.839 132.968 362.001L132.954 362.025L132.938 362.05C131.573 364.151 128.403 367.618 125.959 369.757C123.464 371.94 118.866 374.594 115.76 375.736L115.761 375.737C113.508 376.607 111.651 377.135 109.522 377.397C107.411 377.658 105.067 377.654 101.854 377.504L101.842 377.503C94.7669 377.093 91.7375 376.137 79.5205 371.13L79.5166 371.128C71.8141 367.927 63.2411 363.799 60.3594 361.946C57.5967 360.205 54.0021 357.136 52.5107 355.219L52.5029 355.208L52.4951 355.198C51.0885 353.289 49.1517 350.441 48.2158 348.673L48.2109 348.662L48.2061 348.652C47.3438 346.928 46.1242 342.723 45.5176 339.391C44.6961 335.078 44.6915 331.55 45.418 327.813C45.6895 326.261 46.642 323.194 47.9189 319.549C49.2124 315.857 50.8681 311.49 52.5742 307.325L52.5762 307.321C54.2779 303.217 55.8815 299.459 57.0986 296.724C57.7065 295.358 58.2223 294.237 58.6074 293.454C58.7984 293.066 58.9655 292.743 59.1006 292.511C59.1658 292.398 59.2391 292.279 59.3154 292.179C59.3513 292.131 59.4128 292.056 59.4951 291.981C59.5367 291.944 59.6067 291.886 59.7021 291.834C59.7914 291.785 59.9662 291.705 60.2002 291.705L60.3018 291.71ZM323.9 293.354C324.55 292.488 325.469 291.727 326.642 292.035L326.643 292.034C326.647 292.035 326.652 292.037 326.657 292.038C326.659 292.039 326.661 292.039 326.663 292.04C326.781 292.072 326.953 292.135 327.115 292.195C327.315 292.27 327.583 292.373 327.912 292.502C328.571 292.76 329.492 293.128 330.643 293.593C332.945 294.522 336.18 295.842 340.105 297.455C347.957 300.681 358.584 305.081 370.085 309.882L370.087 309.883C381.538 314.683 391.965 319.084 399.531 322.323C403.313 323.942 406.384 325.273 408.511 326.218C409.573 326.69 410.406 327.069 410.978 327.341C411.26 327.476 411.492 327.59 411.658 327.68C411.738 327.723 411.825 327.772 411.9 327.822C411.934 327.845 411.999 327.889 412.064 327.95C412.096 327.979 412.157 328.038 412.217 328.124C412.262 328.188 412.4 328.398 412.4 328.705C412.4 328.853 412.365 328.981 412.361 328.997C412.349 329.047 412.333 329.098 412.319 329.143C412.291 329.234 412.251 329.348 412.205 329.477C412.112 329.736 411.977 330.093 411.808 330.532C411.468 331.412 410.978 332.645 410.378 334.14C409.177 337.13 407.526 341.183 405.726 345.583L405.723 345.59C402.728 352.777 400.88 356.988 399.144 360.026C397.385 363.105 395.743 364.974 393.215 367.502L393.216 367.503C389.121 371.7 385.704 373.881 381.268 375.635L381.253 375.641L381.238 375.645C378.706 376.557 376.777 377.109 374.621 377.372C372.477 377.633 370.153 377.604 366.84 377.403C363.403 377.201 360.852 376.895 357.81 376.057C354.792 375.226 351.318 373.878 346.024 371.631C339.118 368.828 331.482 365.414 328.938 364.092C326.357 362.749 322.472 359.991 320.293 357.811C318.142 355.66 315.317 351.573 313.623 348.287L313.298 347.637C312.132 345.204 311.371 343.275 310.91 341.154C310.451 339.043 310.3 336.789 310.3 333.72L310.289 332.501C310.283 329.764 310.432 327.722 311.016 325.318C311.674 322.609 312.879 319.465 314.974 314.327C317.475 308.024 320.575 300.425 321.776 297.522C322.53 295.665 323.218 294.264 323.9 293.354ZM60.2 292.705C59.9 292.705 56.9 299.505 53.5 307.705C50.1 316.005 46.9 325.105 46.4 328.005C45.7 331.605 45.7 335.005 46.5 339.205C47.1 342.505 48.3 346.605 49.1 348.205C50 349.905 51.9 352.705 53.3 354.605C54.7 356.405 58.2 359.405 60.9 361.105C63.7 362.905 72.2 367.005 79.9 370.205C92.1 375.205 95 376.105 101.9 376.505C108.3 376.805 111 376.505 115.4 374.805C118.4 373.705 122.9 371.105 125.3 369.005C127.7 366.905 130.8 363.505 132.1 361.505C133.3 359.405 137.1 351.205 140.4 343.205C143.7 335.205 146.3 328.505 146.2 328.305C146 328.105 126.8 320.005 103.4 310.305C80.0038 300.606 60.6061 292.707 60.2 292.705ZM326.4 293.005C325.3 292.705 324.2 294.205 322.7 297.905C321.5 300.805 318.4 308.405 315.9 314.705C311.7 325.005 311.2 327.005 311.3 333.705C311.3 339.805 311.9 342.405 314.2 347.205C315.8 350.505 318.8 354.905 321 357.105C323.1 359.205 326.9 361.905 329.4 363.205C331.9 364.505 339.5 367.905 346.4 370.705C357 375.205 360.1 376.005 366.9 376.405C373.5 376.805 375.9 376.505 380.9 374.705C385.2 373.005 388.5 370.905 392.5 366.805C397.5 361.805 398.8 359.605 404.8 345.205C408.399 336.408 411.398 329.01 411.4 328.705C411.4 328.405 392.6 320.405 369.7 310.805C346.704 301.206 327.206 293.207 326.4 293.005ZM332.9 312.605C333.007 312.208 346.204 317.407 362.1 324.005C378.197 330.704 391.096 336.603 391.2 337.405C391.3 338.105 389.7 342.405 387.6 347.005C384.9 352.905 382.7 356.005 379.9 358.205C376.9 360.505 374.8 361.305 370.5 361.605C365.5 361.905 363.3 361.305 349.9 355.805C339.8 351.605 333.8 348.605 331.6 346.405C329.8 344.605 327.9 341.605 327.2 339.705C326.6 337.805 326.2 334.605 326.2 332.705C326.2 330.805 327.7 325.605 329.4 321.205C331.2 316.805 332.7 312.905 332.9 312.605ZM68.7 312.705C69.4023 312.706 82.6015 318.005 98.2 324.405C113.7 330.905 126.4 336.505 126.4 337.005C126.4 337.405 124.8 341.405 122.9 346.005C120.9 350.505 118.5 355.005 117.6 356.105C116.7 357.105 114.1 358.805 111.9 359.905C108.8 361.505 106.6 361.805 102.4 361.505C98.7 361.205 92.4 359.105 83 355.105C72.2 350.505 68.4 348.405 65.8 345.505C63.9 343.405 61.9 339.805 61.3 337.505C60.7 335.105 60.5 332.105 60.9 330.705C61.2 329.305 62.8 324.705 64.5 320.505C66.2 316.205 68.1 312.705 68.7 312.705ZM333.446 313.838C333.252 314.308 332.991 314.957 332.679 315.738C332.056 317.294 331.231 319.367 330.332 321.564C329.493 323.736 328.704 326.107 328.125 328.163C327.534 330.263 327.2 331.912 327.2 332.705C327.2 334.517 327.587 337.588 328.145 339.375C328.796 341.132 330.608 343.998 332.307 345.697C333.286 346.676 335.21 347.917 338.242 349.464C341.245 350.996 345.24 352.784 350.279 354.88L352.667 355.855C357.939 357.999 361.185 359.233 363.62 359.917C366.001 360.585 367.589 360.722 369.565 360.649L370.44 360.606C372.539 360.46 374.033 360.195 375.345 359.716C376.651 359.239 377.833 358.528 379.282 357.418L379.768 357.022C382.166 354.985 384.184 352.065 386.69 346.589C387.732 344.307 388.648 342.103 389.288 340.392C389.609 339.534 389.856 338.812 390.016 338.27C390.072 338.078 390.113 337.916 390.145 337.784C390.114 337.764 390.081 337.741 390.044 337.718C389.687 337.49 389.142 337.183 388.412 336.802C386.959 336.043 384.852 335.03 382.232 333.826C376.997 331.42 369.76 328.275 361.717 324.928C353.77 321.629 346.501 318.683 341.21 316.611C338.563 315.575 336.419 314.761 334.934 314.231C334.33 314.017 333.845 313.855 333.485 313.743C333.473 313.774 333.46 313.805 333.446 313.838ZM68.8369 313.909C68.5866 314.251 68.2644 314.778 67.8926 315.467C67.153 316.837 66.2687 318.75 65.4297 320.872L65.4268 320.88C63.7239 325.087 62.1573 329.611 61.8779 330.914L60.9 330.705L61.8613 330.979C61.7094 331.511 61.6494 332.473 61.7227 333.669C61.7942 334.837 61.9864 336.125 62.2705 337.262C62.7931 339.254 64.5038 342.413 66.2021 344.443L66.542 344.834L66.5449 344.837C68.9706 347.542 72.5488 349.566 83.3916 354.185L85.1201 354.913C93.5631 358.437 99.1755 360.237 102.471 360.507C104.542 360.655 106.053 360.649 107.402 360.43C108.737 360.213 109.961 359.78 111.441 359.016L111.453 359.01C112.514 358.479 113.68 357.8 114.686 357.134C115.702 356.46 116.477 355.849 116.842 355.449C117.223 354.972 117.996 353.678 118.953 351.863C119.903 350.063 120.989 347.84 121.978 345.616C122.926 343.32 123.798 341.18 124.432 339.564C124.749 338.755 125.004 338.085 125.179 337.597C125.202 337.53 125.221 337.467 125.241 337.409C124.892 337.216 124.39 336.956 123.736 336.639C122.319 335.949 120.259 335.004 117.706 333.868C112.604 331.598 105.564 328.577 97.8203 325.33L92.1045 322.99C86.5403 320.719 81.4919 318.676 77.4922 317.084C74.8253 316.022 72.6289 315.162 71.0576 314.568C70.271 314.271 69.6481 314.043 69.2041 313.891C69.098 313.854 69.0034 313.825 68.9219 313.799C68.8963 313.832 68.8672 313.868 68.8369 313.909ZM382.641 164.222C384.135 164.076 385.779 164.018 387.312 164.075L387.961 164.106C390.554 164.265 393.486 164.954 398.814 166.877C404.143 168.8 411.942 171.984 424.288 177.183C432.543 180.635 440.323 183.988 446.218 186.604C449.165 187.911 451.645 189.036 453.478 189.898C454.393 190.329 455.152 190.697 455.73 190.99C456.283 191.271 456.734 191.515 456.981 191.691C457.774 192.258 458.808 193.275 459.818 194.398C460.842 195.537 461.894 196.844 462.721 198.033L462.723 198.035C463.4 199.014 463.97 199.877 464.418 200.86C464.871 201.856 465.184 202.939 465.401 204.367C465.828 207.172 465.9 211.434 465.9 219.205V219.464L454.774 239.49C451.77 244.898 448.913 249.835 446.729 253.425C445.639 255.217 444.71 256.685 444.011 257.709C443.663 258.218 443.36 258.637 443.115 258.936C442.995 259.082 442.868 259.224 442.743 259.339C442.682 259.395 442.597 259.468 442.493 259.531C442.413 259.58 442.197 259.705 441.9 259.705C441.77 259.705 441.661 259.679 441.639 259.674C441.593 259.663 441.549 259.65 441.513 259.64C441.438 259.618 441.349 259.589 441.253 259.556C441.059 259.489 440.795 259.391 440.471 259.269C439.819 259.022 438.894 258.66 437.729 258.198C435.396 257.273 432.086 255.937 428.048 254.293C419.97 251.004 408.968 246.479 397.018 241.528L397.014 241.527C385.063 236.527 374.111 231.926 366.097 228.525C362.09 226.825 358.814 225.424 356.515 224.422C355.366 223.921 354.456 223.518 353.818 223.227C353.501 223.081 353.243 222.961 353.056 222.868C352.963 222.822 352.878 222.779 352.808 222.739C352.773 222.72 352.732 222.696 352.691 222.67C352.678 222.661 352.643 222.637 352.6 222.604C352.293 222.373 352.217 222.056 352.198 221.977C352.169 221.851 352.162 221.735 352.16 221.656C352.157 221.492 352.173 221.306 352.194 221.124C352.239 220.751 352.329 220.249 352.452 219.647C352.701 218.437 353.104 216.737 353.631 214.682C354.684 210.568 356.237 204.983 358.039 198.927C359.792 192.867 361.57 187.106 363.012 182.706C363.732 180.507 364.371 178.642 364.881 177.247C365.136 176.55 365.362 175.963 365.552 175.508C365.722 175.098 365.893 174.725 366.049 174.481L366.048 174.48C366.515 173.722 367.363 172.777 368.285 171.868C369.224 170.942 370.301 169.993 371.28 169.22C373.134 167.665 376.052 165.934 378.005 165.191L378.384 165.056C379.416 164.664 380.98 164.384 382.641 164.222ZM112.559 165.265C115.336 164.201 118.988 163.801 122.977 164.107C125.571 164.268 128.58 165.01 133.929 166.952C138.622 168.656 145.179 171.307 154.915 175.358L159.286 177.182L159.291 177.185C167.547 180.687 175.457 184.166 181.53 186.959C184.566 188.355 187.15 189.582 189.091 190.557C190.061 191.044 190.878 191.471 191.514 191.827C192.102 192.157 192.592 192.457 192.899 192.705C194.014 193.541 195.234 194.906 196.324 196.42C197.416 197.935 198.425 199.665 199.109 201.289C200.17 203.612 200.814 205.334 201.111 207.143C201.407 208.944 201.347 210.769 201.097 213.279C200.677 218.842 199.141 222.251 189.677 239.486L189.676 239.487C185.082 247.826 182.261 252.792 180.37 255.634C179.431 257.046 178.674 258.008 177.998 258.601C177.293 259.219 176.554 259.535 175.727 259.39L175.681 259.382L175.637 259.369C175.437 259.315 174.943 259.13 174.272 258.872C173.57 258.601 172.602 258.22 171.403 257.743C169.005 256.789 165.668 255.444 161.636 253.807C153.571 250.531 142.718 246.079 131.017 241.229L131.014 241.228C119.312 236.327 108.585 231.801 100.733 228.463C96.8078 226.794 93.5995 225.421 91.3467 224.446C90.2207 223.959 89.331 223.57 88.709 223.293C88.3986 223.155 88.1504 223.042 87.9717 222.959C87.8832 222.918 87.8059 222.881 87.7441 222.85C87.7186 222.837 87.5985 222.779 87.5 222.705L87.4434 222.662L87.3926 222.612C87.1805 222.4 87.1173 222.156 87.0967 222.067C87.0695 221.951 87.0606 221.841 87.0576 221.76C87.0515 221.595 87.0642 221.41 87.083 221.229C87.1215 220.86 87.2028 220.369 87.3154 219.787C87.5422 218.615 87.9153 216.982 88.4043 215.014C89.3835 211.072 90.8373 205.733 92.54 199.924C94.192 194.167 95.8692 188.635 97.2217 184.365C97.898 182.23 98.4947 180.406 98.9668 179.026C99.4277 177.679 99.7942 176.681 100.006 176.258C100.781 174.708 102.974 172.015 104.912 170.179L104.913 170.178C106.67 168.519 109.78 166.406 112.104 165.442L112.559 165.265ZM387.9 165.105C384.6 164.905 380.5 165.305 378.7 166.005C376.9 166.605 373.8 168.405 371.9 170.005C370 171.505 367.7 173.705 366.9 175.005C366.1 176.205 362.5 187.105 359 199.205C355.4 211.305 352.8 221.505 353.2 221.805C353.602 222.206 373.501 230.605 397.4 240.605C421.3 250.505 441.4 258.705 441.9 258.705C442.502 258.701 447.901 249.802 453.9 239.005L464.9 219.205C464.9 203.605 464.6 202.505 461.9 198.605C460.3 196.305 457.8 193.505 456.4 192.505C455 191.505 440.4 185.005 423.9 178.105C399.2 167.705 392.8 165.405 387.9 165.105ZM122.9 165.105C119 164.805 115.5 165.205 112.9 166.205C110.7 167.005 107.4 169.205 105.6 170.905C103.7 172.705 101.6 175.305 100.9 176.705C100.2 178.105 96.8 188.705 93.5 200.205C90.1012 211.801 87.7021 221.498 88.1 221.905C88.5 222.205 108 230.505 131.4 240.305C154.8 250.005 174.8 258.105 175.9 258.405C177.6 258.704 179.601 255.704 188.8 239.005C198.3 221.705 199.7 218.505 200.1 213.205C200.6 208.205 200.3 206.305 198.2 201.705C196.9 198.605 194.3 195.005 192.3 193.505C190.5 192.005 175.4 185.105 158.9 178.105C134.5 167.905 127.8 165.405 122.9 165.105ZM120.9 179.705C122.302 179.706 135.401 184.705 150.2 190.805C164.9 196.905 178.3 202.605 179.9 203.505C181.6 204.305 183.4 205.705 184.1 206.605C184.8 207.505 185.4 209.405 185.4 211.005C185.4 212.505 182.4 219.205 178.2 226.705C174.201 233.904 170.601 239.703 170.2 239.705C169.7 239.705 155.1 233.805 137.7 226.505C120.2 219.305 105.8 213.305 105.6 213.305C105.503 213.196 107.302 206.699 109.6 198.705C112.4 189.205 114.6 183.405 116.1 182.005C117.3 180.705 119.5 179.705 120.9 179.705ZM386.3 179.705C387.7 179.705 401.7 185.105 417.4 191.705C433.1 198.205 446.9 204.505 448.2 205.605C449.6 207.005 450.4 208.805 450.4 211.005C450.3 213.005 447.9 218.705 443.4 227.005C439.501 234.004 436.101 239.703 435.7 239.705C435.2 239.705 420.7 233.905 403.4 226.705C386.1 219.405 371.6 213.405 371.2 213.105C370.7 212.905 372.4 206.105 374.9 198.005C378 187.705 380 182.705 381.5 181.505C382.7 180.505 384.8 179.705 386.3 179.705ZM120.9 180.705C120.402 180.705 119.653 180.894 118.852 181.271C118.061 181.644 117.327 182.15 116.835 182.683L116.81 182.71L116.782 182.735C116.538 182.963 116.183 183.461 115.733 184.329C115.296 185.173 114.807 186.29 114.271 187.678C113.198 190.451 111.957 194.244 110.561 198.98C109.411 202.979 108.388 206.6 107.664 209.232C107.302 210.549 107.016 211.614 106.828 212.354C106.799 212.468 106.775 212.575 106.751 212.672C107.199 212.851 107.828 213.106 108.617 213.429C110.271 214.104 112.638 215.08 115.544 216.28C118.451 217.48 121.897 218.906 125.711 220.48L138.08 225.58L138.087 225.583C146.784 229.232 154.78 232.53 160.663 234.916C163.605 236.109 166.016 237.072 167.721 237.737C168.574 238.07 169.246 238.326 169.717 238.498C169.786 238.523 169.85 238.544 169.909 238.565C170 238.444 170.11 238.295 170.235 238.115C170.676 237.481 171.278 236.549 171.999 235.38C173.439 233.046 175.332 229.809 177.326 226.219L177.327 226.216C179.416 222.486 181.203 218.961 182.465 216.19C183.096 214.804 183.591 213.618 183.926 212.695C184.093 212.234 184.216 211.849 184.296 211.547C184.381 211.226 184.4 211.059 184.4 211.005C184.4 210.32 184.269 209.543 184.055 208.831C183.836 208.107 183.556 207.535 183.311 207.219C183.039 206.869 182.494 206.356 181.775 205.817C181.068 205.287 180.251 204.775 179.475 204.409L179.441 204.395L179.41 204.376C178.672 203.961 174.995 202.34 169.57 200.024C164.187 197.726 157.164 194.778 149.816 191.729C142.423 188.681 135.458 185.91 130.17 183.902C127.524 182.898 125.305 182.087 123.665 181.528C122.844 181.249 122.177 181.036 121.68 180.894C121.43 180.822 121.233 180.772 121.086 180.74C120.92 180.704 120.875 180.705 120.9 180.705ZM386.3 180.705C385.707 180.705 384.929 180.867 384.14 181.165C383.353 181.462 382.634 181.862 382.141 182.273L382.125 182.285C381.903 182.462 381.573 182.864 381.145 183.629C380.727 184.375 380.258 185.39 379.729 186.714C378.67 189.36 377.405 193.151 375.857 198.293L374.9 198.005L375.855 198.3C374.609 202.338 373.564 206.044 372.896 208.757C372.56 210.117 372.325 211.208 372.203 211.96C372.172 212.153 372.149 212.313 372.135 212.444C372.212 212.479 372.297 212.519 372.393 212.562C372.855 212.766 373.517 213.051 374.359 213.41C376.042 214.128 378.431 215.132 381.35 216.357C387.185 218.806 395.135 222.132 403.784 225.781C412.431 229.38 420.377 232.628 426.223 234.977C429.146 236.151 431.541 237.099 433.235 237.753C434.083 238.08 434.75 238.332 435.218 238.501C435.283 238.524 435.344 238.545 435.4 238.564C435.484 238.45 435.583 238.31 435.695 238.144C436.116 237.522 436.69 236.608 437.381 235.463C438.76 233.176 440.579 230.012 442.526 226.518C444.765 222.388 446.474 218.92 447.633 216.245C448.213 214.906 448.65 213.776 448.946 212.87C449.244 211.961 449.378 211.339 449.399 210.975C449.392 209.078 448.716 207.555 447.532 206.353C447.437 206.28 447.172 206.11 446.669 205.836C446.154 205.555 445.46 205.201 444.605 204.78C442.897 203.94 440.57 202.851 437.787 201.591C432.223 199.071 424.859 195.875 417.018 192.629L417.013 192.627C409.17 189.33 401.754 186.334 396.128 184.163C393.314 183.077 390.953 182.201 389.214 181.597C388.343 181.294 387.638 181.063 387.113 180.909C386.85 180.832 386.643 180.778 386.488 180.743C386.313 180.704 386.269 180.705 386.3 180.705ZM210.9 141.005C211.5 136.505 211.9 135.805 213.3 136.605C214.2 137.105 217 139.805 219.7 142.605C222.3 145.405 225.8 150.505 227.4 154.005C229.1 157.405 230.9 163.105 231.5 166.705C232.3 170.905 232.3 175.005 230.9 183.105L224.9 177.205C221.6 173.905 217.7 169.005 216.2 166.205C214.7 163.505 212.7 157.805 211.9 153.705C210.8 148.805 210.5 144.405 210.9 141.005ZM477.4 135.705C478.001 135.706 480.801 138.105 483.7 141.105C486.5 144.005 490.1 148.605 491.6 151.305C493.1 154.005 495 158.905 495.8 162.205C496.7 165.505 497.4 170.505 497.4 173.205C497.4 176.005 497.2 179.205 496.4 182.705L492.7 180.005C490.7 178.405 487.1 174.505 484.7 171.205C482.1 167.705 479.5 162.505 478.3 158.705C477 154.505 476.4 149.305 476.4 144.005C476.4 139.105 476.8 135.705 477.4 135.705ZM212.636 137.385C212.543 137.587 212.43 137.936 212.31 138.512C212.174 139.16 212.041 140.018 211.892 141.137C211.535 144.189 211.761 148.138 212.682 152.588L212.876 153.485L212.879 153.499L212.882 153.514C213.617 157.282 215.394 162.436 216.799 165.199L217.074 165.719L217.078 165.726L217.081 165.732C218.516 168.411 222.339 173.228 225.602 176.492L230.226 181.039C231.294 174.246 231.224 170.598 230.518 166.892L230.516 166.881L230.514 166.869C229.929 163.362 228.159 157.758 226.506 154.452L226.49 154.421C224.939 151.027 221.501 146.015 218.967 143.285C217.628 141.897 216.269 140.539 215.138 139.469C214.569 138.931 214.064 138.473 213.651 138.121C213.219 137.753 212.943 137.55 212.814 137.479L212.804 137.473C212.737 137.434 212.681 137.406 212.636 137.385ZM477.833 137.073C477.776 137.355 477.719 137.708 477.668 138.136C477.5 139.543 477.4 141.575 477.4 144.005C477.4 149.239 477.993 154.33 479.253 158.403C480.347 161.869 482.658 166.568 485.028 169.95L485.503 170.608L485.509 170.616L485.966 171.232C488.311 174.339 491.534 177.791 493.324 179.223L495.733 180.98C496.256 178.156 496.4 175.547 496.4 173.205C496.4 170.606 495.715 165.695 494.835 162.468L494.831 162.454L494.828 162.44C494.048 159.222 492.179 154.407 490.726 151.79C489.282 149.191 485.743 144.661 482.98 141.8C481.547 140.317 480.146 138.989 479.037 138.039C478.568 137.637 478.16 137.312 477.833 137.073ZM135.4 109.805C139 109.305 142.5 109.105 143.2 109.305C143.8 109.505 145.7 109.705 147.4 109.705C149.1 109.705 150.4 110.105 150.4 110.705C150.399 111.206 147.999 114.105 145.2 117.005C142.2 119.905 137 123.705 133.4 125.505C129.8 127.305 124 129.205 120.4 129.905C116.8 130.505 111.8 130.705 109.2 130.305C106.5 130.005 104.4 129.305 104.4 128.705C104.4 128.105 106.8 125.405 109.7 122.505C112.8 119.405 117.7 116.005 121.9 114.005C126 112.105 131.6 110.305 135.4 109.805ZM400.4 109.905C404 109.405 408.7 109.305 410.9 109.505C413.1 109.805 415.1 110.105 415.4 110.305C415.699 110.506 414.5 112.405 412.8 114.505C411.1 116.505 407.3 119.905 404.3 122.005C401.3 124.105 396.4 126.705 393.4 127.905C389.5 129.405 385.4 130.005 379.2 130.105C374.5 130.205 370.2 129.905 369.7 129.405C369.3 129.005 371.4 126.205 374.4 123.105C377.7 119.805 382.7 116.205 386.9 114.105C391.4 111.905 396.2 110.405 400.4 109.905ZM142.188 110.228C141.735 110.227 141.143 110.247 140.449 110.29C139.064 110.376 137.314 110.548 135.537 110.795L135.53 110.796C131.858 111.279 126.357 113.041 122.32 114.912C118.217 116.868 113.418 120.201 110.407 123.212C108.967 124.652 107.66 126.033 106.719 127.121C106.246 127.667 105.88 128.124 105.637 128.468C105.632 128.474 105.628 128.48 105.624 128.486C105.753 128.543 105.912 128.605 106.104 128.669C106.784 128.896 107.732 129.106 108.831 129.252L109.311 129.311L109.331 129.313L109.353 129.316C111.808 129.694 116.685 129.507 120.224 128.919C123.742 128.233 129.444 126.365 132.953 124.61C136.445 122.864 141.553 119.135 144.492 116.297C145.873 114.866 147.151 113.441 148.079 112.317C148.546 111.752 148.913 111.276 149.159 110.922C149.161 110.919 149.163 110.915 149.165 110.912C148.759 110.791 148.147 110.705 147.4 110.705C146.515 110.705 145.582 110.653 144.79 110.575C144.057 110.503 143.35 110.399 142.925 110.266C142.938 110.269 142.89 110.257 142.737 110.245C142.599 110.235 142.416 110.229 142.188 110.228ZM410.802 110.5C408.686 110.309 404.07 110.405 400.537 110.895L400.528 110.896L400.519 110.897C396.452 111.382 391.763 112.84 387.347 114.998L387.348 114.999C383.243 117.051 378.331 120.588 375.107 123.812C373.632 125.337 372.391 126.775 371.576 127.866C371.316 128.214 371.11 128.514 370.955 128.762C371.45 128.847 372.127 128.923 372.947 128.982C374.635 129.105 376.853 129.154 379.179 129.104H379.184C385.321 129.005 389.289 128.413 393.032 126.975C395.964 125.801 400.793 123.239 403.727 121.186C406.666 119.128 410.39 115.792 412.028 113.868C412.859 112.841 413.555 111.878 414.001 111.163C414.036 111.107 414.068 111.052 414.099 111C413.974 110.977 413.84 110.952 413.695 110.928C412.909 110.795 411.887 110.648 410.802 110.5ZM338.42 61.0322C338.423 61.0332 338.425 61.0332 338.425 61.0332C338.425 61.0332 338.422 61.0326 338.417 61.0312L338.42 61.0322ZM336.255 27.7148C336.408 27.7329 336.552 27.7717 336.637 27.7949C336.792 27.8376 336.979 27.8969 337.187 27.9668C337.604 28.1074 338.146 28.3063 338.771 28.5459C340.021 29.0261 341.633 29.6805 343.291 30.3838C344.949 31.0872 346.48 31.7652 347.606 32.2656C348.171 32.5167 348.629 32.7219 348.954 32.8642C349.092 32.9246 349.201 32.9712 349.281 33.0049H349.336L349.547 33.1103C349.839 33.2563 349.978 33.4942 350.037 33.6357C350.096 33.7758 350.112 33.9001 350.118 33.9687C350.131 34.1078 350.117 34.234 350.107 34.3095C350.086 34.4748 350.041 34.6678 349.991 34.8594C349.888 35.2544 349.72 35.7942 349.513 36.4277C349.097 37.6989 348.493 39.437 347.846 41.3281L347.841 41.3437L347.835 41.3584C347.129 43.2241 346.418 44.9262 345.828 46.1709C345.535 46.789 345.26 47.3177 345.022 47.7031C344.906 47.8916 344.778 48.0798 344.643 48.2324C344.576 48.3077 344.481 48.4039 344.361 48.4883C344.257 48.5615 344.024 48.705 343.7 48.7051C343.528 48.7051 343.343 48.6709 343.206 48.6426C343.049 48.61 342.865 48.5652 342.664 48.5107C342.261 48.4013 341.753 48.2452 341.175 48.0547C340.016 47.6727 338.546 47.1403 337.028 46.5332L337.016 46.5283L337.002 46.5224C335.505 45.8738 334.051 45.2465 332.91 44.7451C331.81 44.2614 330.906 43.8538 330.586 43.6621L330.541 43.6357L330.5 43.6045C330.211 43.3875 330.086 43.0937 330.028 42.9121C329.966 42.7142 329.94 42.5092 329.93 42.3261C329.909 41.957 329.943 41.5219 330.011 41.0693C330.147 40.1547 330.442 39.0145 330.86 37.8633C331.658 35.6686 332.764 32.6519 333.371 31.1338C333.689 30.2888 334.067 29.5285 334.437 28.9599C334.621 28.6769 334.822 28.4103 335.035 28.2021C335.142 28.098 335.273 27.9867 335.427 27.8965C335.573 27.8105 335.807 27.7052 336.1 27.7051L336.255 27.7148ZM336.1 28.7047C335.7 28.7047 334.9 29.9047 334.3 31.5047C333.7 33.0047 332.6 36.0047 331.8 38.2047C331 40.4047 330.7 42.5047 331.1 42.8047C331.6 43.1047 334.4 44.3047 337.4 45.6047C340.4 46.8047 343.2 47.7047 343.7 47.7047C344.1 47.7047 345.5 44.7047 346.9 41.0047C348.2 37.2047 349.3 34.1047 349.1 34.0047C348.993 34.0015 346.196 32.7029 342.9 31.3047C339.6 29.9047 336.5 28.7047 336.1 28.7047ZM346.948 0.00681434C347.5 -0.0287702 348.083 0.078072 348.616 0.255838L348.3 1.20474L348.706 0.290994C349.567 0.67381 352.603 1.75035 360.747 4.76658L361.695 5.11814L358.734 12.8623L358.733 12.8613C358.033 14.7119 357.384 16.4135 356.896 17.6777C356.651 18.3099 356.447 18.8342 356.298 19.2138C356.162 19.5594 356.045 19.8509 355.994 19.9521L355.922 20.0967L355.807 20.2119C355.571 20.4469 355.298 20.4894 355.246 20.498C355.15 20.5139 355.069 20.5137 355.025 20.5127C354.933 20.5104 354.846 20.4981 354.784 20.4883C354.652 20.4673 354.49 20.4326 354.317 20.3906C353.965 20.305 353.483 20.1711 352.913 20C351.769 19.6566 350.225 19.1509 348.559 18.5449C346.905 17.9436 345.292 17.3386 344.038 16.832C343.413 16.5793 342.864 16.3465 342.441 16.1474C342.231 16.0482 342.038 15.9512 341.878 15.8603C341.765 15.7961 341.612 15.7016 341.475 15.584C341.152 15.3372 341.037 14.991 340.992 14.8115C340.934 14.5768 340.921 14.3263 340.924 14.0986C340.93 13.6352 341.008 13.0605 341.132 12.4355C341.382 11.1734 341.847 9.54808 342.46 7.86326C343.062 6.2085 343.665 4.59917 344.157 3.35056C344.403 2.72724 344.623 2.18644 344.804 1.77244C344.893 1.56636 344.976 1.38365 345.05 1.23435C345.113 1.10584 345.201 0.937009 345.3 0.804666L345.31 0.791971L345.319 0.780252C345.76 0.228825 346.405 0.0418541 346.948 0.00681434ZM348.3 1.20474C347.4 0.904738 346.5 0.904738 346.1 1.40474C345.8 1.80474 344.6 4.90474 343.4 8.20474C342.2 11.504 341.601 14.5037 342.1 14.8047C342.5 15.2047 345.6 16.4047 348.9 17.6047C352.197 18.8036 354.995 19.603 355.1 19.5047C355.2 19.3047 356.4 16.2047 357.8 12.5047L360.4 5.70474C352.3 2.70474 349.2 1.60474 348.3 1.20474Z" fill="#E0B388"></path></svg> 