<?xml version="1.0" encoding="UTF-8"?> <svg xmlns="http://www.w3.org/2000/svg" width="51" height="58" viewBox="0 0 51 58" fill="none"><g clip-path="url(#clip0_3101_2837)"><path d="M24.9115 10.0156L32.8246 14.5577L40.7022 19.1086C40.7559 19.1386 40.8007 19.1823 40.8318 19.2353C40.863 19.2884 40.8796 19.3487 40.8797 19.4102V37.6139C40.8782 37.6807 40.8585 37.7459 40.8224 37.8023C40.7865 37.8586 40.7357 37.9039 40.6755 37.9332L32.8246 42.4664L24.9115 47.0174C24.8595 47.0496 24.7996 47.0667 24.7385 47.0667C24.6774 47.0667 24.6175 47.0496 24.5655 47.0174L16.6879 42.4753L8.81024 37.9155C8.75653 37.8855 8.71177 37.8418 8.68058 37.7888C8.6494 37.7358 8.63291 37.6754 8.63281 37.6139V19.4102C8.63317 19.3431 8.65252 19.2775 8.68864 19.221C8.72474 19.1644 8.77614 19.1194 8.83685 19.0908L16.6879 14.5577L24.5655 10.0156C24.6175 9.98339 24.6774 9.96631 24.7385 9.96631C24.7996 9.96631 24.8595 9.98339 24.9115 10.0156ZM32.4431 15.1698L24.7429 10.7342L17.0339 15.1698L9.33364 19.6054V37.4098L17.0339 41.8455L24.7429 46.281L32.4431 41.8455L40.1522 37.4098V19.6143L32.4431 15.1786V15.1698Z" fill="black" stroke="black" stroke-width="0.5"></path><path d="M24.9214 0.0446273L37.1104 7.09723L49.2906 14.1321C49.3426 14.1632 49.3857 14.2074 49.4152 14.2603C49.4448 14.3133 49.4599 14.3731 49.4592 14.4337V42.582C49.4598 42.6493 49.441 42.7154 49.4047 42.7721C49.3685 42.8288 49.3165 42.8737 49.255 42.9014L37.1104 49.9363L24.9214 56.9799C24.8667 57.0087 24.8058 57.0237 24.744 57.0237C24.6821 57.0237 24.6213 57.0087 24.5666 56.9799L12.3687 49.9363L0.179646 42.8925C0.123927 42.8626 0.0777429 42.8176 0.0463692 42.7628C0.0149953 42.7078 -0.000302942 42.6452 0.00222203 42.582V14.4337C0.00147624 14.3664 0.0203826 14.3003 0.0566242 14.2436C0.0928659 14.1868 0.144868 14.142 0.206259 14.1143L12.3687 7.09723L24.5666 0.0446273C24.6213 0.0158765 24.6821 0.000854492 24.744 0.000854492C24.8058 0.000854492 24.8667 0.0158765 24.9214 0.0446273ZM36.7556 7.6916L24.744 0.754323L12.7235 7.6916L0.703047 14.6378V42.3957L12.7058 49.3152L24.7263 56.2526L36.7379 49.3152L48.7938 42.3957V14.6378L36.7821 7.70934L36.7556 7.6916Z" fill="black" stroke="black" stroke-width="0.5"></path><path d="M40.2497 19.6587C40.2164 19.6264 40.1899 19.5878 40.1719 19.5452C40.1538 19.5025 40.1445 19.4566 40.1445 19.4103C40.1445 19.3639 40.1538 19.3181 40.1719 19.2754C40.1899 19.2328 40.2164 19.1942 40.2497 19.1619C40.316 19.0969 40.4052 19.0604 40.4981 19.0604C40.5909 19.0604 40.6801 19.0969 40.7465 19.1619L49.3781 28.2637C49.4399 28.3282 49.4744 28.4139 49.4744 28.5033C49.4744 28.5925 49.4399 28.6784 49.3781 28.7427L40.7553 37.8535C40.689 37.9185 40.5998 37.9549 40.5069 37.9549C40.414 37.9549 40.3249 37.9185 40.2585 37.8535C40.2253 37.8212 40.1989 37.7826 40.1808 37.74C40.1627 37.6973 40.1533 37.6514 40.1533 37.6051C40.1533 37.5587 40.1627 37.5129 40.1808 37.4702C40.1989 37.4276 40.2253 37.389 40.2585 37.3567L48.6507 28.4855L40.2585 19.6143L40.2497 19.6587Z" fill="black" stroke="black" stroke-width="0.5"></path><path d="M8.7319 19.1706C8.79823 19.1056 8.88741 19.0691 8.98029 19.0691C9.07317 19.0691 9.16236 19.1056 9.22869 19.1706C9.2937 19.2368 9.33012 19.3261 9.33012 19.419C9.33012 19.5118 9.2937 19.601 9.22869 19.6674L0.827663 28.5386L9.22869 37.4097C9.2937 37.4761 9.33012 37.5653 9.33012 37.6581C9.33012 37.751 9.2937 37.8402 9.22869 37.9065C9.16236 37.9715 9.07317 38.008 8.98029 38.008C8.88741 38.008 8.79823 37.9715 8.7319 37.9065L0.100225 28.7514C0.0384178 28.6871 0.00390625 28.6012 0.00390625 28.5119C0.00390625 28.4227 0.0384178 28.3368 0.100225 28.2725L8.7319 19.1706Z" fill="black" stroke="black" stroke-width="0.5"></path><path d="M0.179356 14.735C0.0988374 14.6886 0.0397845 14.6123 0.0148995 14.5228C-0.00998567 14.4332 0.00128523 14.3374 0.0462877 14.256C0.0692047 14.216 0.0998864 14.181 0.13653 14.153C0.173173 14.125 0.215039 14.1046 0.259668 14.0931C0.304297 14.0815 0.350788 14.0789 0.396411 14.0856C0.442032 14.0923 0.485865 14.1079 0.525333 14.1318L8.77554 18.8868L12.2087 7.29212C12.244 7.21145 12.308 7.14679 12.3885 7.11072C12.4688 7.07465 12.5597 7.06974 12.6433 7.09696L24.38 9.918V0.354847C24.38 0.260737 24.4173 0.17048 24.4839 0.103933C24.5505 0.0373857 24.6407 1.8702e-08 24.7348 1.8702e-08C24.7811 -1.51681e-05 24.8268 0.00921907 24.8693 0.0271582C24.9119 0.0450972 24.9504 0.0713779 24.9826 0.10445C25.0149 0.137522 25.0402 0.176717 25.057 0.219722C25.074 0.262728 25.082 0.308673 25.0808 0.354847V10.3172C25.0851 10.3436 25.0851 10.3706 25.0808 10.397C25.0704 10.4413 25.0513 10.4831 25.0247 10.5201C24.9981 10.557 24.9644 10.5883 24.9257 10.6122C24.887 10.6361 24.8439 10.6521 24.799 10.6593C24.7541 10.6666 24.7081 10.6649 24.6638 10.6543L12.7853 7.80666L9.31668 19.5167V19.5876C9.27019 19.6681 9.19394 19.7271 9.10437 19.752C9.01478 19.7769 8.919 19.7656 8.83764 19.7207L0.179356 14.735Z" fill="black" stroke="black" stroke-width="0.5"></path><path d="M48.9544 14.1317C48.9939 14.1078 49.0378 14.0921 49.0834 14.0855C49.129 14.0788 49.1755 14.0814 49.2201 14.093C49.2647 14.1045 49.3066 14.1249 49.3433 14.1529C49.3798 14.1809 49.4105 14.2159 49.4335 14.2558C49.4792 14.3361 49.4918 14.4312 49.4686 14.5206C49.4454 14.6101 49.3883 14.6869 49.3092 14.7349L40.6776 19.7205C40.5962 19.7655 40.5005 19.7767 40.4108 19.7519C40.3212 19.727 40.2451 19.668 40.1986 19.5875C40.197 19.5638 40.197 19.5401 40.1986 19.5164L36.6945 7.80649L24.8425 10.6453C24.7951 10.6643 24.744 10.6729 24.6929 10.6704C24.6418 10.6679 24.5919 10.6544 24.5466 10.6308C24.5012 10.6072 24.4615 10.574 24.43 10.5336C24.3987 10.4933 24.3764 10.4466 24.3648 10.3968C24.3532 10.3469 24.3524 10.2952 24.3625 10.2451C24.3728 10.195 24.3938 10.1477 24.424 10.1064C24.4541 10.0651 24.4929 10.0309 24.5377 10.006C24.5823 9.98109 24.6318 9.96616 24.6828 9.9622L36.8363 7.0968C36.9258 7.07198 37.0213 7.08315 37.1026 7.12793C37.1838 7.17269 37.2442 7.2475 37.271 7.33632L40.7131 18.9309L48.9544 14.1761V14.1317Z" fill="black" stroke="black" stroke-width="0.5"></path><path d="M0.525333 42.8922C0.485865 42.9159 0.442032 42.9316 0.396411 42.9383C0.350788 42.945 0.304297 42.9425 0.259668 42.9309C0.215039 42.9193 0.173173 42.899 0.13653 42.871C0.0998864 42.843 0.0692047 42.8079 0.0462877 42.7679C0.00128523 42.6866 -0.00998567 42.5908 0.0148995 42.5012C0.0397845 42.4117 0.0988374 42.3354 0.179356 42.2888L8.81102 37.3033C8.89239 37.2582 8.98817 37.247 9.07776 37.2718C9.16733 37.2968 9.24358 37.3558 9.29007 37.4364V37.5162L12.7587 49.2262L24.6638 46.3697C24.7081 46.3591 24.7541 46.3574 24.799 46.3646C24.8439 46.3718 24.887 46.3879 24.9257 46.4118C24.9644 46.4356 24.9981 46.467 25.0247 46.5039C25.0513 46.5408 25.0704 46.5826 25.0808 46.6269C25.0851 46.6533 25.0851 46.6803 25.0808 46.7068V56.6691C25.082 56.7152 25.074 56.7612 25.057 56.8042C25.0402 56.8472 25.0149 56.8864 24.9826 56.9195C24.9504 56.9526 24.9119 56.9789 24.8693 56.9968C24.8268 57.0147 24.7811 57.024 24.7348 57.024C24.6407 57.024 24.5505 56.9866 24.4839 56.92C24.4173 56.8534 24.38 56.7632 24.38 56.6691V47.1504L12.6523 49.9714C12.5629 49.9962 12.4673 49.985 12.3861 49.9403C12.3048 49.8954 12.2444 49.8207 12.2176 49.7318L8.77554 38.1461L0.525333 42.8922Z" fill="black" stroke="black" stroke-width="0.5"></path><path d="M18.1523 29.2483H31.2196V29.9491H18.1523V29.2483Z" fill="black" stroke="black" stroke-width="0.5"></path><path d="M49.3094 42.2892C49.3884 42.3371 49.4456 42.414 49.4688 42.5034C49.492 42.5929 49.4794 42.6879 49.4337 42.7682C49.4107 42.8082 49.38 42.8432 49.3433 42.8712C49.3068 42.8992 49.2649 42.9196 49.2202 42.9311C49.1756 42.9427 49.1291 42.9452 49.0835 42.9386C49.0378 42.9319 48.994 42.9162 48.9546 42.8924L40.7133 38.1463L37.2624 49.732C37.2356 49.8209 37.1751 49.8957 37.0939 49.9405C37.0127 49.9852 36.9171 49.9964 36.8276 49.9716L24.6652 47.0175C24.6143 47.0135 24.5647 46.9986 24.52 46.9737C24.4754 46.9488 24.4366 46.9146 24.4064 46.8733C24.3761 46.832 24.3553 46.7847 24.345 46.7345C24.3349 46.6845 24.3355 46.6327 24.3472 46.583C24.3588 46.5331 24.3811 46.4865 24.4125 46.446C24.4438 46.4056 24.4837 46.3725 24.5289 46.349C24.5743 46.3253 24.6243 46.3118 24.6754 46.3092C24.7265 46.3068 24.7774 46.3154 24.825 46.3345L36.6945 49.182L40.1633 37.4721C40.1599 37.4456 40.1599 37.4187 40.1633 37.3922C40.2097 37.3118 40.286 37.2527 40.3755 37.2278C40.4651 37.2029 40.5609 37.2142 40.6422 37.2591L49.274 42.2448L49.3094 42.2892Z" fill="black" stroke="black" stroke-width="0.5"></path><path d="M14.9504 36.0703C14.9271 36.1099 14.8962 36.1446 14.8595 36.1723C14.8228 36.1999 14.7811 36.2201 14.7366 36.2317C14.6921 36.2432 14.6458 36.2459 14.6003 36.2395C14.5548 36.2332 14.511 36.2179 14.4714 36.1946C14.4318 36.1713 14.3971 36.1404 14.3694 36.1037C14.3418 36.067 14.3216 36.0253 14.3101 35.9808C14.2985 35.9363 14.2958 35.89 14.3022 35.8445C14.3085 35.799 14.3238 35.7551 14.3471 35.7155L19.3949 26.9774L24.4426 18.2304C24.4655 18.1904 24.4961 18.1554 24.5328 18.1274C24.5695 18.0994 24.6114 18.0791 24.656 18.0675C24.7006 18.0559 24.7471 18.0534 24.7927 18.06C24.8383 18.0667 24.8822 18.0824 24.9217 18.1062C24.9714 18.1383 25.0137 18.1807 25.0458 18.2304L30.0936 26.9774L35.1413 35.7155C35.187 35.7958 35.1996 35.8908 35.1764 35.9803C35.1533 36.0698 35.0961 36.1466 35.017 36.1946C34.9776 36.2184 34.9338 36.2341 34.8882 36.2408C34.8426 36.2474 34.796 36.2449 34.7514 36.2333C34.7068 36.2217 34.6649 36.2014 34.6283 36.1734C34.5916 36.1454 34.5609 36.1104 34.5381 36.0703L29.4903 27.3234L24.7442 19.1087L19.9981 27.3234L14.9504 36.0703Z" fill="black" stroke="black" stroke-width="0.5"></path></g><defs><clipPath id="clip0_3101_2837"><rect width="50.1923" height="58" fill="white"></rect></clipPath></defs></svg> 