<svg width="1440" height="160" viewBox="0 0 1440 160" fill="none" xmlns="http://www.w3.org/2000/svg">
<rect x="45" width="1350" height="160" fill="#262626"/>
<rect x="100.707" y="80" width="69.7107" height="69.7107" transform="rotate(-45 100.707 80)" stroke="#DBB799"/>
<rect x="114.143" y="80" width="50.5076" height="50.5076" transform="rotate(-45 114.143 80)" fill="black"/>
<path d="M161.572 73.7486L161.531 73.0748L160.89 72.9559C156.404 72.1213 154.532 71.518 150.345 69.5573L150.003 69.396L149.662 69.5573C145.475 71.518 143.603 72.1213 139.117 72.9559L138.476 73.0748L138.435 73.7486C138.235 77.0348 138.661 80.0968 139.702 82.8496C140.554 85.095 141.815 87.1491 143.417 88.8999C146.19 91.9506 149.134 93.2756 149.696 93.5101L150.007 93.6397L150.318 93.5101C150.88 93.2756 153.824 91.9506 156.597 88.8999C158.196 87.1485 159.455 85.0944 160.305 82.8496C161.346 80.0968 161.772 77.0348 161.572 73.7486ZM148.456 85.3641L144.681 81.5267L145.843 80.2974L148.356 82.8512L154.068 76.0109L155.323 77.137L148.456 85.3641Z" fill="#DBB799"/>
<path d="M150.132 70.0093L150.133 70.0103C154.357 71.9887 156.271 72.6053 160.799 73.4478L161.056 73.4946L161.073 73.7788C161.269 77.0029 160.851 79.9933 159.838 82.6724C159.01 84.8588 157.783 86.8588 156.228 88.563V88.564C153.859 91.1692 151.364 92.4818 150.427 92.9155L150.126 93.0483L150.007 93.0972L149.888 93.0483H149.889C149.365 92.8299 146.493 91.5409 143.787 88.564L143.786 88.562L143.498 88.2397C142.171 86.717 141.099 84.9727 140.329 83.0796L140.169 82.6724C139.156 79.9933 138.738 77.0029 138.934 73.7788L138.95 73.4946L139.208 73.4478C143.736 72.6053 145.65 71.9887 149.874 70.0103L149.875 70.0093L150.003 69.9487L150.132 70.0093ZM153.685 75.6909L148.325 82.1069L146.199 79.9468L145.835 79.5776L145.479 79.9536L144.317 81.1831L143.986 81.5337L144.324 81.8774L148.1 85.7144L148.486 86.1079L148.84 85.6841L155.707 77.4575L156.016 77.0874L155.657 76.7651L154.401 75.6392L154.017 75.2925L153.685 75.6909Z" stroke="white" stroke-opacity="0.1"/>
<rect x="1266.71" y="80" width="69.7107" height="69.7107" transform="rotate(-45 1266.71 80)" stroke="#DBB799"/>
<rect x="1280.14" y="80" width="50.5076" height="50.5076" transform="rotate(-45 1280.14 80)" fill="black"/>
<path d="M1327.57 73.7486L1327.53 73.0748L1326.89 72.9559C1322.4 72.1213 1320.53 71.518 1316.35 69.5573L1316 69.396L1315.66 69.5573C1311.48 71.518 1309.6 72.1213 1305.12 72.9559L1304.48 73.0748L1304.43 73.7486C1304.23 77.0348 1304.66 80.0968 1305.7 82.8496C1306.55 85.095 1307.82 87.1491 1309.42 88.8999C1312.19 91.9506 1315.13 93.2756 1315.7 93.5101L1316.01 93.6397L1316.32 93.5101C1316.88 93.2756 1319.82 91.9506 1322.6 88.8999C1324.2 87.1485 1325.46 85.0944 1326.31 82.8496C1327.35 80.0968 1327.77 77.0348 1327.57 73.7486ZM1314.46 85.3641L1310.68 81.5267L1311.84 80.2974L1314.36 82.8512L1320.07 76.0109L1321.32 77.137L1314.46 85.3641Z" fill="#DBB799"/>
<path d="M599.544 63.032L608.064 71H605.184L597.696 64.112V71H595.536V55.064H597.696V61.952L605.184 55.064H608.064L599.544 63.032ZM614.449 59.648C616.097 59.648 617.473 60.208 618.577 61.328C619.681 62.432 620.233 63.816 620.233 65.48C620.233 67.144 619.681 68.536 618.577 69.656C617.473 70.76 616.097 71.312 614.449 71.312C612.785 71.312 611.401 70.76 610.297 69.656C609.209 68.536 608.665 67.144 608.665 65.48C608.665 63.816 609.209 62.432 610.297 61.328C611.401 60.208 612.785 59.648 614.449 59.648ZM611.785 68.264C612.489 69.016 613.377 69.392 614.449 69.392C615.521 69.392 616.409 69.016 617.113 68.264C617.817 67.512 618.169 66.584 618.169 65.48C618.169 64.36 617.817 63.432 617.113 62.696C616.425 61.944 615.537 61.568 614.449 61.568C613.361 61.568 612.465 61.944 611.761 62.696C611.073 63.432 610.729 64.36 610.729 65.48C610.729 66.584 611.081 67.512 611.785 68.264ZM631.874 59.96H633.938V71H631.874V66.344H625.418V71H623.354V59.96H625.418V64.52H631.874V59.96ZM644.008 54.944H646.072V59.96H647.176C648.872 59.96 650.272 60.48 651.376 61.52C652.48 62.56 653.032 63.872 653.032 65.456C653.032 67.136 652.512 68.48 651.472 69.488C650.432 70.496 649 71 647.176 71H646.072V75.896H644.008V71H642.904C641.08 71 639.648 70.496 638.608 69.488C637.568 68.48 637.048 67.136 637.048 65.456C637.048 63.872 637.6 62.56 638.704 61.52C639.808 60.48 641.208 59.96 642.904 59.96H644.008V54.944ZM647.104 61.784H646.072V69.176H647.128C648.376 69.176 649.328 68.832 649.984 68.144C650.64 67.456 650.968 66.56 650.968 65.456C650.968 64.384 650.616 63.504 649.912 62.816C649.224 62.128 648.288 61.784 647.104 61.784ZM644.008 61.784H642.976C641.792 61.784 640.848 62.128 640.144 62.816C639.456 63.504 639.112 64.384 639.112 65.456C639.112 66.56 639.44 67.456 640.096 68.144C640.752 68.832 641.704 69.176 642.952 69.176H644.008V61.784ZM658.207 71H656.143V59.96H658.207V68L664.663 59.96H666.727V71H664.663V62.96L658.207 71ZM682.509 74.024H680.445V71H671.181V74.024H669.117V69.176H670.413C671.325 68.328 671.781 66.784 671.781 64.544V59.96H680.709V69.176H682.509V74.024ZM673.845 61.784V64.52C673.845 66.584 673.525 68.136 672.885 69.176H678.645V61.784H673.845ZM690.457 69.392C691.833 69.392 692.809 68.896 693.385 67.904H695.617C695.233 68.96 694.577 69.792 693.649 70.4C692.737 71.008 691.673 71.312 690.457 71.312C688.793 71.312 687.409 70.76 686.305 69.656C685.217 68.552 684.673 67.152 684.673 65.456C684.673 63.792 685.201 62.408 686.257 61.304C687.329 60.2 688.689 59.648 690.337 59.648C691.889 59.648 693.177 60.2 694.201 61.304C695.241 62.392 695.761 63.736 695.761 65.336C695.761 65.8 695.745 66.104 695.713 66.248H686.809C686.937 67.16 687.337 67.912 688.009 68.504C688.697 69.096 689.513 69.392 690.457 69.392ZM690.337 61.568C689.393 61.568 688.601 61.832 687.961 62.36C687.337 62.872 686.961 63.568 686.833 64.448H693.601C693.473 63.568 693.121 62.872 692.545 62.36C691.969 61.832 691.233 61.568 690.337 61.568ZM707.389 59.96H709.453V71H707.389V66.344H700.933V71H698.869V59.96H700.933V64.52H707.389V59.96ZM725.475 74.024H723.411V71H713.283V59.96H715.347V69.176H721.611V59.96H723.675V69.176H725.475V74.024ZM730.418 71H728.354V59.96H730.418V68L736.874 59.96H738.938V71H736.874V62.96L730.418 71ZM747.184 59.648C748.784 59.648 750.064 60.032 751.024 60.8C751.984 61.552 752.464 62.608 752.464 63.968V71H750.4V69.8C749.472 70.808 748.192 71.312 746.56 71.312C745.216 71.312 744.128 71 743.296 70.376C742.48 69.752 742.072 68.84 742.072 67.64C742.072 66.392 742.52 65.488 743.416 64.928C744.328 64.352 745.496 64.064 746.92 64.064H750.4C750.4 62.4 749.328 61.568 747.184 61.568C746.48 61.568 745.84 61.712 745.264 62C744.704 62.272 744.312 62.664 744.088 63.176H741.808C742.112 62.072 742.76 61.208 743.752 60.584C744.744 59.96 745.888 59.648 747.184 59.648ZM750.4 66.584V65.864H746.896C745.056 65.864 744.136 66.456 744.136 67.64C744.136 68.808 745.016 69.392 746.776 69.392C747.88 69.392 748.76 69.136 749.416 68.624C750.072 68.096 750.4 67.416 750.4 66.584ZM757.137 59.96H765.969V71H763.905V61.784H759.201V64.64C759.201 65.312 759.185 65.896 759.153 66.392C759.121 66.872 759.025 67.432 758.865 68.072C758.721 68.696 758.513 69.2 758.241 69.584C757.985 69.968 757.609 70.304 757.113 70.592C756.617 70.864 756.017 71 755.313 71H754.617V69.056H755.049C755.529 69.056 755.921 68.928 756.225 68.672C756.529 68.416 756.737 68.032 756.849 67.52C756.977 67.008 757.057 66.56 757.089 66.176C757.121 65.792 757.137 65.28 757.137 64.64V59.96ZM771.879 63.608H775.719C777.079 63.608 778.111 63.96 778.815 64.664C779.519 65.352 779.871 66.232 779.871 67.304C779.871 68.376 779.519 69.264 778.815 69.968C778.111 70.656 777.079 71 775.719 71H769.815V59.96H771.879V63.608ZM771.879 69.176H775.647C776.335 69.176 776.863 69.016 777.231 68.696C777.615 68.376 777.807 67.912 777.807 67.304C777.807 66.696 777.615 66.232 777.231 65.912C776.863 65.592 776.335 65.432 775.647 65.432H771.879V69.176ZM791.038 59.96H793.102V71H791.038V66.344H784.582V71H782.518V59.96H784.582V64.52H791.038V59.96ZM801.996 59.648C803.644 59.648 805.02 60.208 806.124 61.328C807.228 62.432 807.78 63.816 807.78 65.48C807.78 67.144 807.228 68.536 806.124 69.656C805.02 70.76 803.644 71.312 801.996 71.312C800.332 71.312 798.948 70.76 797.844 69.656C796.756 68.536 796.212 67.144 796.212 65.48C796.212 63.816 796.756 62.432 797.844 61.328C798.948 60.208 800.332 59.648 801.996 59.648ZM799.332 68.264C800.036 69.016 800.924 69.392 801.996 69.392C803.068 69.392 803.956 69.016 804.66 68.264C805.364 67.512 805.716 66.584 805.716 65.48C805.716 64.36 805.364 63.432 804.66 62.696C803.972 61.944 803.084 61.568 801.996 61.568C800.908 61.568 800.012 61.944 799.308 62.696C798.62 63.432 798.276 64.36 798.276 65.48C798.276 66.584 798.628 67.512 799.332 68.264ZM821.148 63.176H818.892C818.268 62.104 817.284 61.568 815.94 61.568C814.868 61.568 813.98 61.944 813.276 62.696C812.588 63.432 812.244 64.36 812.244 65.48C812.244 66.6 812.588 67.536 813.276 68.288C813.98 69.024 814.868 69.392 815.94 69.392C817.284 69.392 818.268 68.856 818.892 67.784H821.148C820.748 68.872 820.084 69.736 819.156 70.376C818.228 71 817.156 71.312 815.94 71.312C814.308 71.312 812.94 70.76 811.836 69.656C810.732 68.536 810.18 67.144 810.18 65.48C810.18 63.816 810.732 62.432 811.836 61.328C812.94 60.208 814.308 59.648 815.94 59.648C817.156 59.648 818.228 59.968 819.156 60.608C820.084 61.232 820.748 62.088 821.148 63.176ZM822.703 61.784V59.96H833.311V61.784H829.039V71H826.975V61.784H822.703ZM837.785 63.608H841.625C842.985 63.608 844.017 63.96 844.721 64.664C845.425 65.352 845.777 66.232 845.777 67.304C845.777 68.376 845.425 69.264 844.721 69.968C844.017 70.656 842.985 71 841.625 71H835.721V59.96H837.785V63.608ZM837.785 69.176H841.553C842.241 69.176 842.769 69.016 843.137 68.696C843.521 68.376 843.713 67.912 843.713 67.304C843.713 66.696 843.521 66.232 843.137 65.912C842.769 65.592 842.241 65.432 841.553 65.432H837.785V69.176Z" fill="#DBB799"/>
<path d="M448.848 98.56H443.296L443.312 108H441.264V96.8H448.864L448.848 98.56ZM453.567 99.36C454.826 99.36 455.786 99.664 456.447 100.272C457.119 100.869 457.455 101.776 457.455 102.992V108H455.567V106.96C455.322 107.333 454.97 107.621 454.511 107.824C454.063 108.016 453.519 108.112 452.879 108.112C452.239 108.112 451.679 108.005 451.199 107.792C450.719 107.568 450.346 107.264 450.079 106.88C449.823 106.485 449.695 106.043 449.695 105.552C449.695 104.784 449.978 104.171 450.543 103.712C451.119 103.243 452.02 103.008 453.247 103.008H455.455V102.88C455.455 102.283 455.274 101.824 454.911 101.504C454.559 101.184 454.031 101.024 453.327 101.024C452.847 101.024 452.372 101.099 451.903 101.248C451.444 101.397 451.055 101.605 450.735 101.872L449.951 100.416C450.399 100.075 450.938 99.8133 451.567 99.632C452.196 99.4507 452.863 99.36 453.567 99.36ZM453.295 106.656C453.796 106.656 454.239 106.544 454.623 106.32C455.018 106.085 455.295 105.755 455.455 105.328V104.336H453.391C452.239 104.336 451.663 104.715 451.663 105.472C451.663 105.835 451.807 106.123 452.095 106.336C452.383 106.549 452.783 106.656 453.295 106.656ZM464.666 99.36C465.498 99.36 466.239 99.5413 466.89 99.904C467.551 100.267 468.069 100.779 468.442 101.44C468.815 102.101 469.002 102.864 469.002 103.728C469.002 104.592 468.815 105.36 468.442 106.032C468.069 106.693 467.551 107.205 466.89 107.568C466.239 107.931 465.498 108.112 464.666 108.112C463.514 108.112 462.602 107.728 461.93 106.96V111.104H459.93V99.456H461.834V100.576C462.165 100.171 462.57 99.8667 463.05 99.664C463.541 99.4613 464.079 99.36 464.666 99.36ZM464.442 106.4C465.178 106.4 465.781 106.155 466.25 105.664C466.73 105.173 466.97 104.528 466.97 103.728C466.97 102.928 466.73 102.283 466.25 101.792C465.781 101.301 465.178 101.056 464.442 101.056C463.962 101.056 463.53 101.168 463.146 101.392C462.762 101.605 462.458 101.915 462.234 102.32C462.01 102.725 461.898 103.195 461.898 103.728C461.898 104.261 462.01 104.731 462.234 105.136C462.458 105.541 462.762 105.856 463.146 106.08C463.53 106.293 463.962 106.4 464.442 106.4ZM474.067 99.36C475.326 99.36 476.286 99.664 476.947 100.272C477.619 100.869 477.955 101.776 477.955 102.992V108H476.067V106.96C475.822 107.333 475.47 107.621 475.011 107.824C474.563 108.016 474.019 108.112 473.379 108.112C472.739 108.112 472.179 108.005 471.699 107.792C471.219 107.568 470.846 107.264 470.579 106.88C470.323 106.485 470.195 106.043 470.195 105.552C470.195 104.784 470.478 104.171 471.043 103.712C471.619 103.243 472.52 103.008 473.747 103.008H475.955V102.88C475.955 102.283 475.774 101.824 475.411 101.504C475.059 101.184 474.531 101.024 473.827 101.024C473.347 101.024 472.872 101.099 472.403 101.248C471.944 101.397 471.555 101.605 471.235 101.872L470.451 100.416C470.899 100.075 471.438 99.8133 472.067 99.632C472.696 99.4507 473.363 99.36 474.067 99.36ZM473.795 106.656C474.296 106.656 474.739 106.544 475.123 106.32C475.518 106.085 475.795 105.755 475.955 105.328V104.336H473.891C472.739 104.336 472.163 104.715 472.163 105.472C472.163 105.835 472.307 106.123 472.595 106.336C472.883 106.549 473.283 106.656 473.795 106.656ZM480.43 99.456H482.43V102.928H486.734V99.456H488.734V108H486.734V104.624H482.43V108H480.43V99.456ZM498.182 101.152H495.19V108H493.19V101.152H490.182V99.456H498.182V101.152ZM499.633 99.456H501.633V105.088L506.353 99.456H508.177V108H506.177V102.368L501.473 108H499.633V99.456ZM515.603 99.36C516.435 99.36 517.177 99.5413 517.827 99.904C518.489 100.267 519.006 100.779 519.379 101.44C519.753 102.101 519.939 102.864 519.939 103.728C519.939 104.592 519.753 105.36 519.379 106.032C519.006 106.693 518.489 107.205 517.827 107.568C517.177 107.931 516.435 108.112 515.603 108.112C514.451 108.112 513.539 107.728 512.867 106.96V111.104H510.867V99.456H512.771V100.576C513.102 100.171 513.507 99.8667 513.987 99.664C514.478 99.4613 515.017 99.36 515.603 99.36ZM515.379 106.4C516.115 106.4 516.718 106.155 517.187 105.664C517.667 105.173 517.907 104.528 517.907 103.728C517.907 102.928 517.667 102.283 517.187 101.792C516.718 101.301 516.115 101.056 515.379 101.056C514.899 101.056 514.467 101.168 514.083 101.392C513.699 101.605 513.395 101.915 513.171 102.32C512.947 102.725 512.835 103.195 512.835 103.728C512.835 104.261 512.947 104.731 513.171 105.136C513.395 105.541 513.699 105.856 514.083 106.08C514.467 106.293 514.899 106.4 515.379 106.4ZM529.76 99.456L525.76 108.688C525.386 109.616 524.933 110.267 524.4 110.64C523.866 111.024 523.221 111.216 522.464 111.216C522.037 111.216 521.616 111.147 521.2 111.008C520.784 110.869 520.442 110.677 520.176 110.432L520.976 108.96C521.168 109.141 521.392 109.285 521.648 109.392C521.914 109.499 522.181 109.552 522.448 109.552C522.8 109.552 523.088 109.461 523.312 109.28C523.546 109.099 523.76 108.795 523.952 108.368L524.096 108.032L520.368 99.456H522.448L525.136 105.776L527.84 99.456H529.76ZM538.914 103.776C538.914 103.915 538.904 104.112 538.882 104.368H532.178C532.296 104.997 532.6 105.499 533.09 105.872C533.592 106.235 534.21 106.416 534.946 106.416C535.885 106.416 536.658 106.107 537.266 105.488L538.338 106.72C537.954 107.179 537.469 107.525 536.882 107.76C536.296 107.995 535.634 108.112 534.898 108.112C533.96 108.112 533.133 107.925 532.418 107.552C531.704 107.179 531.149 106.661 530.754 106C530.37 105.328 530.178 104.571 530.178 103.728C530.178 102.896 530.365 102.149 530.738 101.488C531.122 100.816 531.65 100.293 532.322 99.92C532.994 99.5467 533.752 99.36 534.594 99.36C535.426 99.36 536.168 99.5467 536.818 99.92C537.48 100.283 537.992 100.8 538.354 101.472C538.728 102.133 538.914 102.901 538.914 103.776ZM534.594 100.96C533.954 100.96 533.41 101.152 532.962 101.536C532.525 101.909 532.258 102.411 532.162 103.04H537.01C536.925 102.421 536.664 101.92 536.226 101.536C535.789 101.152 535.245 100.96 534.594 100.96ZM549.502 108V102.336L546.622 107.104H545.758L542.926 102.32V108H541.102V99.456H543.198L546.238 104.8L549.422 99.456H551.294L551.31 108H549.502ZM566.606 99.456V108H564.622V101.152H560.414V108H558.414V99.456H566.606ZM573.113 108.112C572.249 108.112 571.47 107.925 570.777 107.552C570.084 107.179 569.54 106.661 569.145 106C568.761 105.328 568.569 104.571 568.569 103.728C568.569 102.885 568.761 102.133 569.145 101.472C569.54 100.811 570.084 100.293 570.777 99.92C571.47 99.5467 572.249 99.36 573.113 99.36C573.988 99.36 574.772 99.5467 575.465 99.92C576.158 100.293 576.697 100.811 577.081 101.472C577.476 102.133 577.673 102.885 577.673 103.728C577.673 104.571 577.476 105.328 577.081 106C576.697 106.661 576.158 107.179 575.465 107.552C574.772 107.925 573.988 108.112 573.113 108.112ZM573.113 106.4C573.849 106.4 574.457 106.155 574.937 105.664C575.417 105.173 575.657 104.528 575.657 103.728C575.657 102.928 575.417 102.283 574.937 101.792C574.457 101.301 573.849 101.056 573.113 101.056C572.377 101.056 571.769 101.301 571.289 101.792C570.82 102.283 570.585 102.928 570.585 103.728C570.585 104.528 570.82 105.173 571.289 105.664C571.769 106.155 572.377 106.4 573.113 106.4ZM587.299 99.456V108H585.299V101.152H582.099L582.019 102.848C581.966 103.979 581.859 104.928 581.699 105.696C581.55 106.453 581.288 107.056 580.915 107.504C580.552 107.941 580.051 108.16 579.411 108.16C579.112 108.16 578.744 108.101 578.307 107.984L578.403 106.304C578.552 106.336 578.68 106.352 578.787 106.352C579.192 106.352 579.496 106.192 579.699 105.872C579.902 105.541 580.03 105.152 580.083 104.704C580.147 104.245 580.2 103.595 580.243 102.752L580.387 99.456H587.299ZM589.992 99.456H591.992V102.928H596.296V99.456H598.296V108H596.296V104.624H591.992V108H589.992V99.456ZM609.041 99.456L605.041 108.688C604.667 109.616 604.214 110.267 603.681 110.64C603.147 111.024 602.502 111.216 601.745 111.216C601.318 111.216 600.897 111.147 600.481 111.008C600.065 110.869 599.723 110.677 599.457 110.432L600.257 108.96C600.449 109.141 600.673 109.285 600.929 109.392C601.195 109.499 601.462 109.552 601.729 109.552C602.081 109.552 602.369 109.461 602.593 109.28C602.827 109.099 603.041 108.795 603.233 108.368L603.377 108.032L599.649 99.456H601.729L604.417 105.776L607.121 99.456H609.041ZM618.238 99.36C619.091 99.36 619.854 99.5467 620.526 99.92C621.198 100.283 621.726 100.8 622.11 101.472C622.494 102.133 622.686 102.885 622.686 103.728C622.686 104.571 622.494 105.328 622.11 106C621.726 106.661 621.198 107.179 620.526 107.552C619.854 107.925 619.091 108.112 618.238 108.112C617.491 108.112 616.809 107.968 616.19 107.68C615.571 107.381 615.059 106.965 614.654 106.432C614.249 105.888 613.987 105.269 613.87 104.576H612.43V108H610.43V99.456H612.43V102.768H613.902C614.03 102.096 614.297 101.504 614.702 100.992C615.107 100.469 615.614 100.069 616.222 99.792C616.83 99.504 617.502 99.36 618.238 99.36ZM618.238 106.416C618.707 106.416 619.129 106.309 619.502 106.096C619.875 105.872 620.169 105.557 620.382 105.152C620.595 104.736 620.702 104.261 620.702 103.728C620.702 102.917 620.467 102.272 619.998 101.792C619.539 101.301 618.953 101.056 618.238 101.056C617.523 101.056 616.937 101.301 616.478 101.792C616.019 102.272 615.79 102.917 615.79 103.728C615.79 104.539 616.019 105.189 616.478 105.68C616.947 106.171 617.534 106.416 618.238 106.416ZM632.623 104.576H631.071V108H629.071V99.456H631.071V102.912H632.671L635.199 99.456H637.343L634.239 103.568L637.551 108H635.199L632.623 104.576ZM642.488 108.112C641.624 108.112 640.845 107.925 640.152 107.552C639.459 107.179 638.915 106.661 638.52 106C638.136 105.328 637.944 104.571 637.944 103.728C637.944 102.885 638.136 102.133 638.52 101.472C638.915 100.811 639.459 100.293 640.152 99.92C640.845 99.5467 641.624 99.36 642.488 99.36C643.363 99.36 644.147 99.5467 644.84 99.92C645.533 100.293 646.072 100.811 646.456 101.472C646.851 102.133 647.048 102.885 647.048 103.728C647.048 104.571 646.851 105.328 646.456 106C646.072 106.661 645.533 107.179 644.84 107.552C644.147 107.925 643.363 108.112 642.488 108.112ZM642.488 106.4C643.224 106.4 643.832 106.155 644.312 105.664C644.792 105.173 645.032 104.528 645.032 103.728C645.032 102.928 644.792 102.283 644.312 101.792C643.832 101.301 643.224 101.056 642.488 101.056C641.752 101.056 641.144 101.301 640.664 101.792C640.195 102.283 639.96 102.928 639.96 103.728C639.96 104.528 640.195 105.173 640.664 105.664C641.144 106.155 641.752 106.4 642.488 106.4ZM649.024 99.456H651.024V102.928H655.328V99.456H657.328V108H655.328V104.624H651.024V108H649.024V99.456ZM671.304 103.712C671.304 105.035 670.861 106.075 669.976 106.832C669.101 107.589 667.848 108.021 666.216 108.128V111.104H664.328V108.144C662.696 108.037 661.443 107.605 660.568 106.848C659.693 106.091 659.256 105.045 659.256 103.712C659.256 102.389 659.693 101.36 660.568 100.624C661.443 99.8773 662.696 99.4507 664.328 99.344V96.128H666.216V99.344C667.848 99.4507 669.101 99.8773 669.976 100.624C670.861 101.371 671.304 102.4 671.304 103.712ZM661.224 103.712C661.224 104.533 661.475 105.173 661.976 105.632C662.488 106.091 663.272 106.368 664.328 106.464V101.04C663.272 101.125 662.488 101.392 661.976 101.84C661.475 102.288 661.224 102.912 661.224 103.712ZM666.216 106.464C668.307 106.272 669.352 105.355 669.352 103.712C669.352 102.901 669.091 102.277 668.568 101.84C668.056 101.392 667.272 101.125 666.216 101.04V106.464ZM673.242 99.456H675.242V105.088L679.962 99.456H681.786V108H679.786V102.368L675.082 108H673.242V99.456ZM693.597 106.304V109.904H691.725V108H685.133V109.904H683.277V106.304H683.677C684.221 106.283 684.589 105.936 684.781 105.264C684.983 104.581 685.117 103.621 685.181 102.384L685.293 99.456H692.333V106.304H693.597ZM687.005 102.528C686.962 103.509 686.882 104.309 686.765 104.928C686.647 105.547 686.434 106.005 686.125 106.304H690.333V101.152H687.053L687.005 102.528ZM703.383 103.776C703.383 103.915 703.372 104.112 703.351 104.368H696.647C696.764 104.997 697.068 105.499 697.559 105.872C698.06 106.235 698.679 106.416 699.415 106.416C700.354 106.416 701.127 106.107 701.735 105.488L702.807 106.72C702.423 107.179 701.938 107.525 701.351 107.76C700.764 107.995 700.103 108.112 699.367 108.112C698.428 108.112 697.602 107.925 696.887 107.552C696.172 107.179 695.618 106.661 695.223 106C694.839 105.328 694.647 104.571 694.647 103.728C694.647 102.896 694.834 102.149 695.207 101.488C695.591 100.816 696.119 100.293 696.791 99.92C697.463 99.5467 698.22 99.36 699.063 99.36C699.895 99.36 700.636 99.5467 701.287 99.92C701.948 100.283 702.46 100.8 702.823 101.472C703.196 102.133 703.383 102.901 703.383 103.776ZM699.063 100.96C698.423 100.96 697.879 101.152 697.431 101.536C696.994 101.909 696.727 102.411 696.631 103.04H701.479C701.394 102.421 701.132 101.92 700.695 101.536C700.258 101.152 699.714 100.96 699.063 100.96ZM705.571 99.456H707.571V102.928H711.875V99.456H713.875V108H711.875V104.624H707.571V108H705.571V99.456ZM725.931 106.304V109.968H724.059V108H716.555V99.456H718.555V106.304H722.635V99.456H724.635V106.304H725.931ZM727.711 99.456H729.711V105.088L734.431 99.456H736.255V108H734.255V102.368L729.551 108H727.711V99.456ZM742.13 99.36C743.388 99.36 744.348 99.664 745.01 100.272C745.682 100.869 746.018 101.776 746.018 102.992V108H744.13V106.96C743.884 107.333 743.532 107.621 743.074 107.824C742.626 108.016 742.082 108.112 741.442 108.112C740.802 108.112 740.242 108.005 739.762 107.792C739.282 107.568 738.908 107.264 738.642 106.88C738.386 106.485 738.258 106.043 738.258 105.552C738.258 104.784 738.54 104.171 739.106 103.712C739.682 103.243 740.583 103.008 741.81 103.008H744.018V102.88C744.018 102.283 743.836 101.824 743.474 101.504C743.122 101.184 742.594 101.024 741.89 101.024C741.41 101.024 740.935 101.099 740.466 101.248C740.007 101.397 739.618 101.605 739.298 101.872L738.514 100.416C738.962 100.075 739.5 99.8133 740.13 99.632C740.759 99.4507 741.426 99.36 742.13 99.36ZM741.858 106.656C742.359 106.656 742.802 106.544 743.186 106.32C743.58 106.085 743.858 105.755 744.018 105.328V104.336H741.954C740.802 104.336 740.226 104.715 740.226 105.472C740.226 105.835 740.37 106.123 740.658 106.336C740.946 106.549 741.346 106.656 741.858 106.656ZM756.236 99.456V108H754.236V101.152H751.036L750.956 102.848C750.903 103.979 750.796 104.928 750.636 105.696C750.487 106.453 750.226 107.056 749.852 107.504C749.49 107.941 748.988 108.16 748.348 108.16C748.05 108.16 747.682 108.101 747.244 107.984L747.34 106.304C747.49 106.336 747.618 106.352 747.724 106.352C748.13 106.352 748.434 106.192 748.636 105.872C748.839 105.541 748.967 105.152 749.02 104.704C749.084 104.245 749.138 103.595 749.18 102.752L749.324 99.456H756.236ZM763.218 102.272C764.306 102.272 765.138 102.517 765.714 103.008C766.301 103.499 766.594 104.192 766.594 105.088C766.594 106.027 766.274 106.752 765.634 107.264C764.994 107.776 764.093 108.027 762.93 108.016L758.93 108V99.456H760.93V102.256L763.218 102.272ZM762.754 106.544C763.341 106.555 763.789 106.432 764.098 106.176C764.407 105.92 764.562 105.547 764.562 105.056C764.562 104.576 764.413 104.224 764.114 104C763.815 103.776 763.362 103.659 762.754 103.648L760.93 103.632V106.528L762.754 106.544ZM768.352 99.456H770.352V102.928H774.656V99.456H776.656V108H774.656V104.624H770.352V108H768.352V99.456ZM783.144 108.112C782.28 108.112 781.502 107.925 780.808 107.552C780.115 107.179 779.571 106.661 779.176 106C778.792 105.328 778.6 104.571 778.6 103.728C778.6 102.885 778.792 102.133 779.176 101.472C779.571 100.811 780.115 100.293 780.808 99.92C781.502 99.5467 782.28 99.36 783.144 99.36C784.019 99.36 784.803 99.5467 785.496 99.92C786.19 100.293 786.728 100.811 787.112 101.472C787.507 102.133 787.704 102.885 787.704 103.728C787.704 104.571 787.507 105.328 787.112 106C786.728 106.661 786.19 107.179 785.496 107.552C784.803 107.925 784.019 108.112 783.144 108.112ZM783.144 106.4C783.88 106.4 784.488 106.155 784.968 105.664C785.448 105.173 785.688 104.528 785.688 103.728C785.688 102.928 785.448 102.283 784.968 101.792C784.488 101.301 783.88 101.056 783.144 101.056C782.408 101.056 781.8 101.301 781.32 101.792C780.851 102.283 780.616 102.928 780.616 103.728C780.616 104.528 780.851 105.173 781.32 105.664C781.8 106.155 782.408 106.4 783.144 106.4ZM793.568 108.112C792.683 108.112 791.888 107.925 791.184 107.552C790.48 107.179 789.931 106.661 789.536 106C789.141 105.328 788.944 104.571 788.944 103.728C788.944 102.885 789.141 102.133 789.536 101.472C789.931 100.811 790.475 100.293 791.168 99.92C791.872 99.5467 792.672 99.36 793.568 99.36C794.411 99.36 795.147 99.5307 795.776 99.872C796.416 100.213 796.896 100.704 797.216 101.344L795.68 102.24C795.435 101.845 795.125 101.552 794.752 101.36C794.389 101.157 793.989 101.056 793.552 101.056C792.805 101.056 792.187 101.301 791.696 101.792C791.205 102.272 790.96 102.917 790.96 103.728C790.96 104.539 791.2 105.189 791.68 105.68C792.171 106.16 792.795 106.4 793.552 106.4C793.989 106.4 794.389 106.304 794.752 106.112C795.125 105.909 795.435 105.611 795.68 105.216L797.216 106.112C796.885 106.752 796.4 107.248 795.76 107.6C795.131 107.941 794.4 108.112 793.568 108.112ZM805.667 101.152H802.675V108H800.675V101.152H797.667V99.456H805.667V101.152ZM811.405 102.272C812.493 102.272 813.325 102.517 813.901 103.008C814.488 103.499 814.781 104.192 814.781 105.088C814.781 106.027 814.461 106.752 813.821 107.264C813.181 107.776 812.28 108.027 811.117 108.016L807.117 108V99.456H809.117V102.256L811.405 102.272ZM810.941 106.544C811.528 106.555 811.976 106.432 812.285 106.176C812.595 105.92 812.749 105.547 812.749 105.056C812.749 104.576 812.6 104.224 812.301 104C812.003 103.776 811.549 103.659 810.941 103.648L809.117 103.632V106.528L810.941 106.544ZM824.769 108.112C823.905 108.112 823.127 107.925 822.433 107.552C821.74 107.179 821.196 106.661 820.801 106C820.417 105.328 820.225 104.571 820.225 103.728C820.225 102.885 820.417 102.133 820.801 101.472C821.196 100.811 821.74 100.293 822.433 99.92C823.127 99.5467 823.905 99.36 824.769 99.36C825.644 99.36 826.428 99.5467 827.121 99.92C827.815 100.293 828.353 100.811 828.737 101.472C829.132 102.133 829.329 102.885 829.329 103.728C829.329 104.571 829.132 105.328 828.737 106C828.353 106.661 827.815 107.179 827.121 107.552C826.428 107.925 825.644 108.112 824.769 108.112ZM824.769 106.4C825.505 106.4 826.113 106.155 826.593 105.664C827.073 105.173 827.313 104.528 827.313 103.728C827.313 102.928 827.073 102.283 826.593 101.792C826.113 101.301 825.505 101.056 824.769 101.056C824.033 101.056 823.425 101.301 822.945 101.792C822.476 102.283 822.241 102.928 822.241 103.728C822.241 104.528 822.476 105.173 822.945 105.664C823.425 106.155 824.033 106.4 824.769 106.4ZM839.615 108.112C838.729 108.112 837.935 107.925 837.231 107.552C836.527 107.179 835.977 106.661 835.583 106C835.188 105.328 834.991 104.571 834.991 103.728C834.991 102.885 835.188 102.133 835.583 101.472C835.977 100.811 836.521 100.293 837.215 99.92C837.919 99.5467 838.719 99.36 839.615 99.36C840.457 99.36 841.193 99.5307 841.823 99.872C842.463 100.213 842.943 100.704 843.263 101.344L841.727 102.24C841.481 101.845 841.172 101.552 840.799 101.36C840.436 101.157 840.036 101.056 839.599 101.056C838.852 101.056 838.233 101.301 837.743 101.792C837.252 102.272 837.007 102.917 837.007 103.728C837.007 104.539 837.247 105.189 837.727 105.68C838.217 106.16 838.841 106.4 839.599 106.4C840.036 106.4 840.436 106.304 840.799 106.112C841.172 105.909 841.481 105.611 841.727 105.216L843.263 106.112C842.932 106.752 842.447 107.248 841.807 107.6C841.177 107.941 840.447 108.112 839.615 108.112ZM853.956 106.304V109.904H852.084V108H845.492V109.904H843.636V106.304H844.036C844.58 106.283 844.948 105.936 845.14 105.264C845.343 104.581 845.476 103.621 845.54 102.384L845.652 99.456H852.692V106.304H853.956ZM847.364 102.528C847.322 103.509 847.242 104.309 847.124 104.928C847.007 105.547 846.794 106.005 846.484 106.304H850.692V101.152H847.412L847.364 102.528ZM863.742 103.776C863.742 103.915 863.732 104.112 863.71 104.368H857.006C857.124 104.997 857.428 105.499 857.918 105.872C858.42 106.235 859.038 106.416 859.774 106.416C860.713 106.416 861.486 106.107 862.094 105.488L863.166 106.72C862.782 107.179 862.297 107.525 861.71 107.76C861.124 107.995 860.462 108.112 859.726 108.112C858.788 108.112 857.961 107.925 857.246 107.552C856.532 107.179 855.977 106.661 855.582 106C855.198 105.328 855.006 104.571 855.006 103.728C855.006 102.896 855.193 102.149 855.566 101.488C855.95 100.816 856.478 100.293 857.15 99.92C857.822 99.5467 858.58 99.36 859.422 99.36C860.254 99.36 860.996 99.5467 861.646 99.92C862.308 100.283 862.82 100.8 863.182 101.472C863.556 102.133 863.742 102.901 863.742 103.776ZM859.422 100.96C858.782 100.96 858.238 101.152 857.79 101.536C857.353 101.909 857.086 102.411 856.99 103.04H861.838C861.753 102.421 861.492 101.92 861.054 101.536C860.617 101.152 860.073 100.96 859.422 100.96ZM873.565 99.456V108H871.565V101.152H868.365L868.285 102.848C868.231 103.979 868.125 104.928 867.965 105.696C867.815 106.453 867.554 107.056 867.181 107.504C866.818 107.941 866.317 108.16 865.677 108.16C865.378 108.16 865.01 108.101 864.573 107.984L864.669 106.304C864.818 106.336 864.946 106.352 865.053 106.352C865.458 106.352 865.762 106.192 865.965 105.872C866.167 105.541 866.295 105.152 866.349 104.704C866.413 104.245 866.466 103.595 866.509 102.752L866.653 99.456H873.565ZM879.81 104.576H878.258V108H876.258V99.456H878.258V102.912H879.858L882.386 99.456H884.53L881.426 103.568L884.738 108H882.386L879.81 104.576ZM893.867 103.776C893.867 103.915 893.857 104.112 893.835 104.368H887.131C887.249 104.997 887.553 105.499 888.043 105.872C888.545 106.235 889.163 106.416 889.899 106.416C890.838 106.416 891.611 106.107 892.219 105.488L893.291 106.72C892.907 107.179 892.422 107.525 891.835 107.76C891.249 107.995 890.587 108.112 889.851 108.112C888.913 108.112 888.086 107.925 887.371 107.552C886.657 107.179 886.102 106.661 885.707 106C885.323 105.328 885.131 104.571 885.131 103.728C885.131 102.896 885.318 102.149 885.691 101.488C886.075 100.816 886.603 100.293 887.275 99.92C887.947 99.5467 888.705 99.36 889.547 99.36C890.379 99.36 891.121 99.5467 891.771 99.92C892.433 100.283 892.945 100.8 893.307 101.472C893.681 102.133 893.867 102.901 893.867 103.776ZM889.547 100.96C888.907 100.96 888.363 101.152 887.915 101.536C887.478 101.909 887.211 102.411 887.115 103.04H891.963C891.878 102.421 891.617 101.92 891.179 101.536C890.742 101.152 890.198 100.96 889.547 100.96ZM900.477 99.456H902.477V105.088L907.197 99.456H909.021V108H907.021V102.368L902.317 108H900.477V99.456ZM919.941 108.112C919.077 108.112 918.298 107.925 917.605 107.552C916.912 107.179 916.368 106.661 915.973 106C915.589 105.328 915.397 104.571 915.397 103.728C915.397 102.885 915.589 102.133 915.973 101.472C916.368 100.811 916.912 100.293 917.605 99.92C918.298 99.5467 919.077 99.36 919.941 99.36C920.816 99.36 921.6 99.5467 922.293 99.92C922.986 100.293 923.525 100.811 923.909 101.472C924.304 102.133 924.501 102.885 924.501 103.728C924.501 104.571 924.304 105.328 923.909 106C923.525 106.661 922.986 107.179 922.293 107.552C921.6 107.925 920.816 108.112 919.941 108.112ZM919.941 106.4C920.677 106.4 921.285 106.155 921.765 105.664C922.245 105.173 922.485 104.528 922.485 103.728C922.485 102.928 922.245 102.283 921.765 101.792C921.285 101.301 920.677 101.056 919.941 101.056C919.205 101.056 918.597 101.301 918.117 101.792C917.648 102.283 917.413 102.928 917.413 103.728C917.413 104.528 917.648 105.173 918.117 105.664C918.597 106.155 919.205 106.4 919.941 106.4ZM934.451 104.576H932.899V108H930.899V99.456H932.899V102.912H934.499L937.027 99.456H939.171L936.067 103.568L939.379 108H937.027L934.451 104.576ZM948.533 99.456V108H946.533V101.152H943.333L943.253 102.848C943.2 103.979 943.093 104.928 942.933 105.696C942.784 106.453 942.523 107.056 942.149 107.504C941.787 107.941 941.285 108.16 940.645 108.16C940.347 108.16 939.979 108.101 939.541 107.984L939.637 106.304C939.787 106.336 939.915 106.352 940.021 106.352C940.427 106.352 940.731 106.192 940.933 105.872C941.136 105.541 941.264 105.152 941.317 104.704C941.381 104.245 941.435 103.595 941.477 102.752L941.621 99.456H948.533ZM951.227 99.456H953.227V105.088L957.947 99.456H959.771V108H957.771V102.368L953.067 108H951.227V99.456ZM970.461 103.776C970.461 103.915 970.451 104.112 970.429 104.368H963.725C963.843 104.997 964.147 105.499 964.637 105.872C965.139 106.235 965.757 106.416 966.493 106.416C967.432 106.416 968.205 106.107 968.813 105.488L969.885 106.72C969.501 107.179 969.016 107.525 968.429 107.76C967.843 107.995 967.181 108.112 966.445 108.112C965.507 108.112 964.68 107.925 963.965 107.552C963.251 107.179 962.696 106.661 962.301 106C961.917 105.328 961.725 104.571 961.725 103.728C961.725 102.896 961.912 102.149 962.285 101.488C962.669 100.816 963.197 100.293 963.869 99.92C964.541 99.5467 965.299 99.36 966.141 99.36C966.973 99.36 967.715 99.5467 968.365 99.92C969.027 100.283 969.539 100.8 969.901 101.472C970.275 102.133 970.461 102.901 970.461 103.776ZM966.141 100.96C965.501 100.96 964.957 101.152 964.509 101.536C964.072 101.909 963.805 102.411 963.709 103.04H968.557C968.472 102.421 968.211 101.92 967.773 101.536C967.336 101.152 966.792 100.96 966.141 100.96ZM972.649 99.456H974.649V102.928H978.953V99.456H980.953V108H978.953V104.624H974.649V108H972.649V99.456ZM990.401 101.152H987.409V108H985.409V101.152H982.401V99.456H990.401V101.152ZM999.477 103.776C999.477 103.915 999.466 104.112 999.445 104.368H992.741C992.858 104.997 993.162 105.499 993.653 105.872C994.154 106.235 994.773 106.416 995.509 106.416C996.447 106.416 997.221 106.107 997.829 105.488L998.901 106.72C998.517 107.179 998.031 107.525 997.445 107.76C996.858 107.995 996.197 108.112 995.461 108.112C994.522 108.112 993.695 107.925 992.981 107.552C992.266 107.179 991.711 106.661 991.317 106C990.933 105.328 990.741 104.571 990.741 103.728C990.741 102.896 990.927 102.149 991.301 101.488C991.685 100.816 992.213 100.293 992.885 99.92C993.557 99.5467 994.314 99.36 995.157 99.36C995.989 99.36 996.73 99.5467 997.381 99.92C998.042 100.283 998.554 100.8 998.917 101.472C999.29 102.133 999.477 102.901 999.477 103.776ZM995.157 100.96C994.517 100.96 993.973 101.152 993.525 101.536C993.087 101.909 992.821 102.411 992.725 103.04H997.573C997.487 102.421 997.226 101.92 996.789 101.536C996.351 101.152 995.807 100.96 995.157 100.96Z" fill="white"/>
</svg>
