<svg width="40" height="40" viewBox="0 0 40 40" fill="none" xmlns="http://www.w3.org/2000/svg">
<path d="M31.4071 13.125C31.1782 16.3023 28.8212 18.75 26.2508 18.75C23.6805 18.75 21.3196 16.3031 21.0946 13.125C20.8602 9.81953 23.1547 7.5 26.2508 7.5C29.3469 7.5 31.6415 9.87969 31.4071 13.125Z" stroke="#BA846E" stroke-width="2" stroke-linecap="round" stroke-linejoin="round"/>
<path d="M26.2497 23.75C21.1583 23.75 16.2622 26.2789 15.0356 31.2039C14.8731 31.8555 15.2817 32.5 15.9513 32.5H36.5489C37.2184 32.5 37.6247 31.8555 37.4645 31.2039C36.238 26.2 31.3419 23.75 26.2497 23.75Z" stroke="#BA846E" stroke-width="2" stroke-miterlimit="10"/>
<path d="M15.6243 14.5266C15.4415 17.0641 13.5368 19.0625 11.4837 19.0625C9.43053 19.0625 7.52272 17.0648 7.34303 14.5266C7.15631 11.8867 9.01022 10 11.4837 10C13.9571 10 15.811 11.9352 15.6243 14.5266Z" stroke="#BA846E" stroke-width="2" stroke-linecap="round" stroke-linejoin="round"/>
<path d="M16.0945 23.9063C14.6844 23.2602 13.1312 23.0117 11.4851 23.0117C7.42264 23.0117 3.50858 25.0313 2.52811 28.9648C2.3992 29.4852 2.72576 30 3.26014 30H12.032" stroke="#BA846E" stroke-width="2" stroke-miterlimit="10" stroke-linecap="round"/>
</svg>
