<svg width="29" height="36" viewBox="0 0 29 36" fill="none" xmlns="http://www.w3.org/2000/svg">
<path fill-rule="evenodd" clip-rule="evenodd" d="M17.4512 0.000265662C17.4583 0.00730236 17.5716 0.3521 17.6919 0.781339C17.8123 1.21058 18.0317 1.87203 18.1803 2.25904C18.3361 2.64606 18.7112 3.46936 19.0227 4.08859C19.3342 4.70782 19.8013 5.58037 20.0703 6.02368C20.3393 6.46699 20.8207 7.22695 21.1463 7.71248C21.4719 8.19802 22.0948 9.07057 22.5337 9.64758C22.9726 10.2316 23.7371 11.1745 24.2396 11.7515C24.7422 12.3286 25.3722 13.0604 25.6341 13.37C25.9031 13.6866 26.3774 14.3199 26.6888 14.7844C27.0003 15.2488 27.4604 16.0369 27.7082 16.5435C27.963 17.0502 28.2886 17.8383 28.4443 18.3027C28.593 18.7671 28.7699 19.4145 28.8337 19.7452C28.8974 20.076 28.9681 20.7585 28.9894 21.2581C29.0177 21.8985 28.9894 22.4825 28.9044 23.1932C28.8407 23.7562 28.685 24.6287 28.5505 25.1283C28.4231 25.6279 28.2037 26.3316 28.0692 26.6764C27.9347 27.0212 27.6728 27.6123 27.4887 27.9782C27.3047 28.3441 27.0215 28.8507 26.8658 29.104C26.703 29.3574 26.3632 29.8499 26.1084 30.1947C25.8536 30.5395 25.3581 31.1236 25.0041 31.4895C24.6573 31.8484 24.1193 32.362 23.8078 32.6224C23.4964 32.8827 22.923 33.312 22.5337 33.5723C22.1444 33.8257 21.4931 34.2056 21.0826 34.4097C20.672 34.6208 20.0491 34.9023 19.7022 35.036C19.3554 35.1767 18.6334 35.4019 18.1096 35.5356C17.5857 35.6693 16.7222 35.8311 16.1983 35.8874C15.6745 35.9507 14.91 36 14.4995 36C14.0889 36 13.3527 35.9507 12.8572 35.8945C12.3546 35.8382 11.6539 35.7256 11.2999 35.6482C10.9389 35.5637 10.2594 35.3737 9.79219 35.2189C9.32501 35.0571 8.56052 34.7475 8.09333 34.5223C7.62614 34.2901 6.92536 33.896 6.53603 33.6357C6.14671 33.3824 5.5875 32.9742 5.29728 32.735C5.00705 32.5028 4.46908 32.0032 4.10807 31.6373C3.73998 31.2713 3.23032 30.6803 2.96134 30.3355C2.69943 29.9907 2.31718 29.4348 2.10482 29.104C1.89954 28.7733 1.57393 28.1752 1.38281 27.7671C1.19168 27.3589 0.901461 26.6482 0.75281 26.1838C0.597081 25.7194 0.391801 24.9735 0.299779 24.5302C0.207757 24.0869 0.0944994 23.341 0.0520278 22.8766C0.00247752 22.391 -0.0116797 21.6029 0.00955612 21.0118C0.0378706 20.4489 0.101578 19.6889 0.165286 19.323C0.228993 18.9571 0.356408 18.3379 0.455508 17.9509C0.554609 17.5639 0.75281 16.9446 0.887304 16.5787C1.02888 16.2128 1.31202 15.5654 1.52438 15.1362C1.74382 14.707 2.08359 14.1088 2.28179 13.7992C2.48707 13.4896 3.2374 12.4271 3.95234 11.4419C4.66728 10.4568 5.26188 9.6335 5.27604 9.61239C5.2902 9.59128 5.83525 10.105 6.48648 10.7523C7.22974 11.4912 7.76771 11.9697 7.9376 12.033C8.07917 12.0963 8.38355 12.1456 8.61007 12.1456C8.88613 12.1456 9.11265 12.0963 9.32501 11.9838C9.50197 11.8993 9.72141 11.7375 9.81343 11.6179C9.91253 11.4982 10.0399 11.2942 10.0966 11.1605C10.1674 11.0057 10.224 10.5201 10.2594 9.82349C10.2877 9.22537 10.3797 8.40208 10.4576 7.99395C10.5425 7.58582 10.6983 6.97363 10.8186 6.6218C10.9319 6.26996 11.1796 5.69295 11.3636 5.33408C11.5548 4.97521 11.9087 4.39116 12.1635 4.03933C12.4184 3.68046 12.9422 3.06826 13.3315 2.67421C13.7208 2.28719 14.3083 1.76648 14.641 1.52019C14.9737 1.28094 15.4338 0.97133 15.6674 0.837632C15.901 0.696899 16.3895 0.457651 16.7575 0.28877C17.1256 0.126926 17.4371 -0.00677103 17.4512 0.000265662ZM15.8019 3.2864C15.6108 3.44121 15.2215 3.80008 14.9313 4.07451C14.6481 4.35598 14.2305 4.8204 14.011 5.10891C13.7916 5.39741 13.466 5.91813 13.289 6.26996C13.105 6.61476 12.8926 7.10733 12.8077 7.36065C12.7298 7.61397 12.6095 8.05728 12.5529 8.34579C12.4891 8.63429 12.4113 9.39425 12.3759 10.0346C12.3334 10.8509 12.2697 11.3293 12.1706 11.653C12.0927 11.9064 11.9087 12.3004 11.753 12.5326C11.6043 12.7648 11.307 13.1096 11.0947 13.3067C10.8752 13.4966 10.5425 13.7429 10.3514 13.8485C10.1603 13.954 9.81343 14.0877 9.57984 14.144C9.34624 14.2074 8.90029 14.2566 8.58883 14.2566C8.27737 14.2566 7.8385 14.2074 7.61906 14.1511C7.39255 14.0948 7.05277 13.9681 6.85457 13.8696C6.66345 13.7711 6.28828 13.5037 6.02637 13.2785L5.54503 12.8633C4.18594 14.7421 3.79661 15.3754 3.42145 16.1213C3.10291 16.7617 2.79853 17.5005 2.65696 17.9861C2.52246 18.4294 2.35258 19.126 2.28179 19.5341C2.18269 20.09 2.1473 20.6037 2.15437 21.61C2.15437 22.5669 2.18977 23.144 2.28179 23.6506C2.35258 24.0376 2.51538 24.6991 2.6428 25.1283C2.77021 25.5575 3.01089 26.2049 3.17369 26.5708C3.32942 26.9367 3.62673 27.5067 3.82493 27.8374C4.02313 28.1682 4.3629 28.6748 4.58234 28.9563C4.80177 29.2448 5.21941 29.7373 5.50963 30.0399C5.79986 30.3495 6.2812 30.7999 6.57143 31.0391C6.86165 31.2784 7.34299 31.6302 7.63322 31.8272C7.92344 32.0243 8.51097 32.362 8.94276 32.5731C9.37456 32.7913 10.0541 33.0798 10.4647 33.2135C10.8752 33.3542 11.5123 33.5231 11.8804 33.6075C12.2485 33.6849 12.9209 33.7834 13.3669 33.8257C13.827 33.8749 14.549 33.889 15.0304 33.8608C15.4976 33.8397 16.1488 33.7764 16.4815 33.7201C16.8142 33.6638 17.3521 33.5512 17.6848 33.4668C18.0175 33.3824 18.5767 33.2064 18.9236 33.0657C19.2705 32.932 19.8297 32.6857 20.1624 32.5168C20.4951 32.3409 21.0401 32.0243 21.3799 31.7991C21.7126 31.5739 22.2718 31.1517 22.6116 30.8632C22.9513 30.5747 23.4681 30.0681 23.7583 29.7373C24.0485 29.4066 24.5157 28.7944 24.8059 28.3652C25.0891 27.9359 25.4784 27.2604 25.6766 26.8523C25.8677 26.4442 26.1296 25.8249 26.2429 25.4801C26.3632 25.1353 26.5189 24.5443 26.5968 24.1784C26.6747 23.8124 26.7738 23.1651 26.8233 22.7358C26.8658 22.2996 26.887 21.624 26.8658 21.1878C26.8375 20.7515 26.7455 20.1041 26.6464 19.7101C26.5543 19.323 26.3703 18.7531 26.25 18.4434C26.1225 18.1338 25.9243 17.6905 25.8111 17.4583C25.6908 17.2261 25.4359 16.7687 25.2377 16.438C25.0324 16.1073 24.6927 15.6006 24.4732 15.3121C24.2538 15.0236 23.6875 14.3411 23.2062 13.7992C22.7319 13.2574 22.0948 12.5115 21.7904 12.1456C21.4931 11.7797 20.9268 11.0479 20.5375 10.5272C20.1482 10.0064 19.5253 9.11982 19.1572 8.55689C18.7891 7.99395 18.2582 7.14251 17.9821 6.65698C17.7061 6.17145 17.246 5.28482 16.9557 4.68671C16.6655 4.08859 16.3682 3.46232 16.2974 3.30048L16.1559 3.00493L15.8019 3.2864ZM11.0239 17.7961C11.5194 17.8172 11.7884 17.8664 12.0361 17.972C12.2202 18.0564 12.5033 18.2464 12.6661 18.3872C12.8218 18.5349 13.0342 18.7812 13.1262 18.936C13.2182 19.0908 13.3386 19.3934 13.3952 19.6045C13.4589 19.8156 13.5014 20.1956 13.5014 20.4489C13.5014 20.7022 13.4731 21.04 13.4306 21.2018C13.3952 21.3707 13.289 21.6522 13.2041 21.8351C13.1191 22.011 12.928 22.2855 12.7794 22.4333C12.6307 22.581 12.3547 22.7781 12.1564 22.8766C11.9653 22.9751 11.6043 23.0806 11.3636 23.1158C11.1017 23.151 10.7336 23.151 10.4576 23.1088C10.1674 23.0736 9.84174 22.961 9.57276 22.8132C9.30377 22.6655 9.05602 22.4614 8.88613 22.2362C8.73748 22.0462 8.56759 21.7296 8.49681 21.5396C8.40479 21.2863 8.37647 20.9696 8.37647 20.4137C8.37647 19.7101 8.39063 19.5975 8.57467 19.2175C8.68085 18.9853 8.87197 18.6897 8.99939 18.5631C9.11973 18.4294 9.31793 18.2605 9.43118 18.1761C9.55152 18.0916 9.80635 17.972 9.99747 17.9016C10.2735 17.8031 10.5071 17.775 11.0239 17.7961ZM16.6372 17.9157H18.9519L18.8174 18.1409C18.7396 18.2675 17.253 20.4559 12.3334 27.6193L11.1867 27.6263C10.3019 27.6263 10.0399 27.6052 10.0612 27.5349C10.0753 27.4926 11.5618 25.3042 13.3598 22.6795L16.6372 17.9157ZM10.4434 19.696C10.3372 19.9282 10.316 20.1323 10.3372 20.6037C10.3514 21.0892 10.3868 21.2581 10.5071 21.4129C10.6133 21.5537 10.7336 21.617 10.8965 21.6381C11.0593 21.6522 11.1725 21.617 11.2504 21.5326C11.3141 21.4622 11.399 21.2933 11.4486 21.1526C11.4911 21.0189 11.5265 20.6952 11.5265 20.4348C11.5265 20.1393 11.4769 19.8508 11.4061 19.6678C11.3353 19.506 11.2221 19.3512 11.1584 19.316C11.0876 19.2808 10.9743 19.2597 10.9106 19.2597C10.8398 19.2597 10.7336 19.2878 10.677 19.3301C10.6204 19.3653 10.5142 19.5341 10.4434 19.696ZM18.1803 22.377C18.6758 22.391 18.9448 22.4403 19.1926 22.5529C19.3766 22.6373 19.6739 22.8414 19.8651 23.0103C20.0774 23.2073 20.2756 23.4817 20.403 23.7702C20.5658 24.115 20.6154 24.3543 20.6437 24.8117C20.6649 25.2339 20.6437 25.5505 20.5588 25.8672C20.4951 26.1346 20.3322 26.4934 20.1765 26.7116C19.9995 26.9719 19.7801 27.183 19.5253 27.3308C19.3129 27.4575 19.0085 27.5982 18.8528 27.6404C18.6971 27.6826 18.329 27.7178 18.0388 27.7108C17.6848 27.7108 17.3805 27.6615 17.1186 27.57C16.9062 27.4856 16.6018 27.3308 16.4461 27.2182C16.2904 27.1056 16.0638 26.8593 15.9364 26.6693C15.8161 26.4794 15.6604 26.1346 15.6037 25.9023C15.54 25.6701 15.4905 25.2761 15.4905 25.0228C15.4905 24.7765 15.5329 24.4106 15.5896 24.2135C15.6391 24.0235 15.7311 23.7632 15.8019 23.6365C15.8656 23.5099 16.0214 23.2917 16.1488 23.151C16.2691 23.0103 16.4744 22.8273 16.5877 22.7499C16.708 22.6725 16.9628 22.5458 17.1539 22.4755C17.43 22.377 17.6565 22.3558 18.1803 22.377ZM17.5787 24.2698C17.522 24.4176 17.4725 24.7483 17.4725 25.0087C17.4725 25.269 17.5079 25.5927 17.5503 25.7264C17.5999 25.8672 17.6848 26.029 17.7486 26.0994C17.8123 26.1697 17.9609 26.226 18.0742 26.226C18.1945 26.226 18.3361 26.1697 18.3998 26.0994C18.4635 26.029 18.5484 25.8672 18.598 25.7264C18.6405 25.5927 18.6758 25.269 18.6758 25.0087C18.6758 24.7131 18.6263 24.4246 18.5555 24.2417C18.4847 24.0798 18.3715 23.925 18.3078 23.8898C18.237 23.8547 18.1237 23.8265 18.0529 23.8265C17.9892 23.8265 17.876 23.8687 17.8123 23.918C17.7415 23.9673 17.6424 24.1221 17.5787 24.2698Z" fill="#BA846E"/>
</svg>
