<svg width="40" height="40" viewBox="0 0 40 40" fill="none" xmlns="http://www.w3.org/2000/svg">
<path fill-rule="evenodd" clip-rule="evenodd" d="M25.3728 3C25.7448 3 26.3427 3.02657 26.6947 3.06642C27.0535 3.10627 27.6314 3.19926 27.9768 3.27232C28.3222 3.34538 28.9068 3.51143 29.2721 3.63762C29.6375 3.76382 30.2486 4.0295 30.6339 4.22211C31.0192 4.41473 31.6037 4.75347 31.9292 4.97265C32.2547 5.19183 32.7994 5.61028 33.1249 5.89588C33.4504 6.18812 33.9619 6.70619 34.2476 7.05157C34.5399 7.39031 34.9318 7.91502 35.1244 8.20727C35.3171 8.49951 35.6558 9.11057 35.875 9.56886C36.0943 10.0272 36.3733 10.7445 36.4995 11.1629C36.6257 11.5814 36.7785 12.2123 36.8382 12.5577C36.898 12.9031 36.9645 13.5739 36.991 14.0522C37.011 14.5569 36.9977 15.2145 36.9512 15.6462C36.9047 16.0514 36.825 16.6027 36.7718 16.875C36.712 17.1473 36.5526 17.7318 36.4131 18.1701C36.267 18.6085 35.9946 19.2794 35.802 19.6646C35.6027 20.0498 35.2838 20.6011 35.0912 20.8933C34.8919 21.1856 34.5332 21.6638 34.2874 21.956C34.0483 22.2483 33.5966 22.7199 33.2844 23.0055C32.9788 23.2911 32.454 23.7162 32.1285 23.9486C31.7964 24.1877 31.1122 24.5862 30.6007 24.8386C30.0892 25.091 29.4316 25.3766 29.1393 25.4696C28.847 25.5626 28.3554 25.6954 28.0432 25.7685C27.731 25.8416 27.1797 25.9346 26.8143 25.9811C26.3892 26.0342 25.7448 26.0475 25.0208 26.0209C24.2502 25.9943 23.6789 25.9346 23.2272 25.8416C22.8619 25.7619 22.3238 25.6224 22.0315 25.5294C21.7392 25.4364 21.3207 25.2903 20.703 25.0379L16.9166 28.8304H15.0234V30.7234L12.7317 33.0148H10.5728V35.1735L8.74599 37H3V31.2547L14.9503 19.2993L14.7112 18.6683C14.585 18.3229 14.3923 17.7119 14.2927 17.3067C14.1864 16.9015 14.0735 16.3038 14.0336 15.9783C13.9938 15.6529 13.9606 14.9754 13.9606 14.4839C13.9606 13.9924 14.0071 13.2883 14.0536 12.923C14.1067 12.5577 14.213 12.0064 14.2927 11.6943C14.3724 11.3821 14.5385 10.8441 14.6713 10.4987C14.7976 10.1534 15.0699 9.55558 15.2625 9.17035C15.4618 8.78511 15.8205 8.20727 16.053 7.87517C16.2855 7.54308 16.7107 7.025 16.9963 6.71948C17.2819 6.40731 17.7536 5.95566 18.0459 5.7099C18.3381 5.47079 18.8297 5.09885 19.1419 4.89295C19.4541 4.68705 20.0055 4.36824 20.3708 4.1889C20.7362 4.00957 21.3938 3.7439 21.8322 3.59777C22.2707 3.45165 22.8685 3.2856 23.1608 3.22583C23.4531 3.17269 23.9181 3.09963 24.1904 3.06642C24.4628 3.03321 24.9942 3.00664 25.3662 3L25.3728 3ZM23.3003 5.24497C22.9682 5.32467 22.5231 5.45087 22.3039 5.53057C22.0847 5.60363 21.6662 5.78297 21.3739 5.9158C21.0816 6.05528 20.6033 6.3276 20.311 6.51358C20.0188 6.70619 19.5272 7.06486 19.2216 7.31725C18.9161 7.563 18.5241 7.94159 18.3514 8.15413C18.1787 8.36667 17.8798 8.76519 17.6805 9.03751C17.4812 9.30983 17.1956 9.77476 17.0428 10.067C16.8967 10.3593 16.6907 10.791 16.5977 11.0301C16.4981 11.2692 16.3453 11.7341 16.259 12.0596C16.1726 12.385 16.0663 12.8965 16.0265 13.1887C15.98 13.481 15.9467 14.092 15.9534 14.5503C15.9534 15.0086 15.9866 15.6064 16.0265 15.8787C16.0663 16.151 16.1593 16.6159 16.2324 16.9082C16.3121 17.2004 16.4582 17.6587 16.5645 17.9244C16.6708 18.1834 16.89 18.6749 17.0561 19.0004C17.2222 19.3258 17.355 19.6181 17.355 19.6513C17.355 19.6779 14.5783 22.4808 11.1772 25.8748L4.99947 32.0518V35.0074H7.88908L8.58657 34.31V31.1219C10.0015 31.0422 10.7521 31.0223 11.1573 31.0223H11.9079L13.0372 29.9264V26.9375C13.9871 26.8578 14.6713 26.8379 15.1629 26.8379H16.0597C17.7602 25.1309 18.7234 24.1811 19.3013 23.6298L20.3509 22.6202C21.6595 23.2579 22.2773 23.5169 22.5696 23.6165C22.8619 23.7095 23.3401 23.8357 23.6324 23.9021C24.0376 23.9885 24.4893 24.015 25.4924 24.015C26.4955 24.015 26.9472 23.9885 27.3524 23.9021C27.6447 23.8357 28.1229 23.7095 28.4152 23.6165C28.7075 23.5235 29.2721 23.2844 29.6773 23.0918C30.0759 22.8926 30.6738 22.5405 30.9993 22.3081C31.3248 22.0822 31.8495 21.6372 32.1617 21.3251C32.474 21.0129 32.8924 20.5546 33.0784 20.2956C33.2711 20.0365 33.5567 19.6048 33.7228 19.3325C33.8822 19.0602 34.128 18.5819 34.2609 18.2698C34.3937 17.9576 34.593 17.3598 34.6993 16.9414C34.8056 16.523 34.9318 15.8787 34.9716 15.5134C35.0115 15.1481 35.0248 14.5038 35.0048 14.0854C34.9849 13.6669 34.9052 13.0227 34.8321 12.6574C34.7591 12.292 34.6063 11.7208 34.4867 11.3954C34.3738 11.0633 34.1612 10.5585 34.0151 10.2663C33.8623 9.97402 33.5767 9.48252 33.3707 9.17035C33.1648 8.86482 32.7131 8.31354 32.3677 7.95487C32.0222 7.58957 31.4842 7.10471 31.172 6.87224C30.8598 6.63977 30.2951 6.28775 29.9098 6.08849C29.5246 5.88924 28.94 5.63684 28.6145 5.51729C28.2824 5.40438 27.731 5.25161 27.3856 5.17855C26.9804 5.09221 26.3958 5.03907 25.7581 5.01914C25.2068 5.00586 24.5691 5.01914 24.3299 5.05235C24.0908 5.07892 23.6258 5.17191 23.3003 5.24497ZM27.9834 8.34675C28.2558 8.36003 28.6743 8.43309 28.9134 8.49951C29.1526 8.57257 29.5246 8.73862 29.7438 8.87146C29.963 9.0043 30.3084 9.26997 30.5077 9.46923C30.707 9.66849 30.986 10.0139 31.1255 10.2463C31.265 10.4788 31.4377 10.8773 31.5174 11.1297C31.6303 11.4817 31.6635 11.7541 31.6635 12.2588C31.6569 12.7968 31.6237 13.0227 31.4842 13.4544C31.3845 13.7466 31.1786 14.1784 31.0192 14.4108C30.8664 14.6433 30.5741 14.982 30.3748 15.1614C30.1756 15.3407 29.8168 15.5864 29.5777 15.7126C29.3386 15.8322 28.9533 15.985 28.7141 16.0381C28.475 16.0979 28.0432 16.1444 27.7509 16.1444C27.4188 16.1444 27.0335 16.0912 26.7213 16.0049C26.449 15.9318 26.0305 15.7525 25.7913 15.613C25.5522 15.4735 25.2001 15.2012 25.0075 15.002C24.8082 14.8093 24.5358 14.4573 24.3897 14.2182C24.2436 13.9725 24.0775 13.554 23.9978 13.2551C23.9247 12.9562 23.8649 12.5112 23.8649 12.2389C23.8649 11.9799 23.8981 11.6013 23.938 11.4087C23.9779 11.2227 24.124 10.8175 24.2701 10.512C24.4628 10.1069 24.6421 9.85446 24.9743 9.51573C25.2666 9.23012 25.592 8.97773 25.891 8.82497C26.15 8.69213 26.522 8.53936 26.7213 8.47959C26.9206 8.42645 27.1797 8.36667 27.286 8.34675C27.3922 8.33346 27.7111 8.33346 27.9834 8.34675ZM26.9206 10.5187C26.7944 10.5784 26.5752 10.7378 26.4357 10.8773C26.2895 11.0168 26.1168 11.2493 26.0438 11.3954C25.964 11.5482 25.891 11.847 25.871 12.0928C25.8511 12.405 25.871 12.6241 25.9574 12.8898C26.0438 13.1489 26.1766 13.3548 26.4157 13.5939C26.6549 13.833 26.8608 13.9658 27.1199 14.0522C27.3856 14.1385 27.6048 14.1584 27.917 14.1385C28.1694 14.1186 28.4684 14.0455 28.6278 13.9592C28.7872 13.8861 29.0197 13.7068 29.1459 13.5673C29.2788 13.4345 29.4448 13.1887 29.5246 13.0227C29.6308 12.8101 29.6707 12.5976 29.6707 12.2588C29.6707 11.9334 29.6308 11.7009 29.5378 11.495C29.4648 11.329 29.2987 11.0832 29.1725 10.9437C29.0463 10.7976 28.7939 10.6116 28.6145 10.5253C28.4285 10.439 28.1163 10.3526 27.917 10.3393C27.7177 10.3194 27.4587 10.326 27.3524 10.3593C27.2461 10.3858 27.0468 10.4589 26.9206 10.5187Z" fill="white"/>
</svg>
