<svg width="34" height="35" viewBox="0 0 34 35" fill="none" xmlns="http://www.w3.org/2000/svg">
<path fill-rule="evenodd" clip-rule="evenodd" d="M14.9153 0.100098C26.5894 0.100098 27.1091 0.100098 27.5202 0.240304C27.7529 0.325985 28.0865 0.473981 28.2571 0.58303C28.4278 0.692079 28.7303 0.949124 28.9242 1.15943C29.1181 1.36974 29.3586 1.69689 29.4594 1.89162C29.5525 2.08635 29.6844 2.46802 29.7387 2.74844C29.8007 3.02885 29.8473 3.66757 29.8473 5.08521L30.6075 5.10857C31.2047 5.13194 31.4297 5.17089 31.7089 5.31109C31.9029 5.41235 32.1899 5.62266 32.3528 5.77845C32.5156 5.93423 32.7484 6.23022 33.0664 6.83778L33.0897 9.91453C33.1129 12.8277 33.1052 13.0146 32.9578 13.4197C32.8647 13.6845 32.6708 13.9883 32.4536 14.222C32.2597 14.4245 31.8951 14.6815 31.2047 15.0165L23.7116 15.0554C17.2035 15.0866 16.2029 15.1099 16.0788 15.2112C16.009 15.2735 15.8926 15.4215 15.8383 15.5384C15.7608 15.6941 15.7297 16.068 15.7375 17.8985L16.265 18.4048C16.552 18.6852 16.9631 19.1759 17.1725 19.4953C17.382 19.8146 17.6457 20.3054 17.762 20.5858C17.8706 20.8662 18.018 21.3725 18.0878 21.7152C18.2042 22.2605 18.2119 22.9693 18.1732 32.3865L18.0025 32.7136C17.9017 32.9006 17.6922 33.1888 17.5371 33.3679C17.3742 33.5393 17.0484 33.7807 16.8157 33.8898C16.3968 34.0923 16.3503 34.1001 14.9153 34.1001C13.5035 34.1001 13.4259 34.0923 13.0536 33.9054C12.8442 33.8041 12.5261 33.5704 12.3555 33.3991C12.1848 33.2277 11.9521 32.9083 11.6574 32.3086L11.6341 27.4014C11.6186 23.164 11.6341 22.4007 11.7427 21.8321C11.8048 21.466 11.9754 20.9051 12.1073 20.5858C12.2391 20.2664 12.5106 19.7601 12.7123 19.4563C12.914 19.1526 13.3096 18.693 14.1008 17.9374L14.1241 16.5899C14.1396 15.3514 14.1551 15.219 14.3335 14.8295C14.4421 14.5881 14.6903 14.2609 14.8998 14.074C15.1014 13.887 15.4272 13.6534 16.0012 13.3807L31.0108 13.3028L31.4374 12.8744V7.1883L31.2202 6.97799C31.0341 6.78326 30.9332 6.75989 29.8861 6.70537L29.8395 7.85817C29.8007 8.7773 29.7542 9.12003 29.6223 9.48612C29.5292 9.74317 29.3353 10.1093 29.1957 10.304C29.0561 10.4987 28.7691 10.7947 28.5596 10.9739C28.3502 11.1452 27.9701 11.3711 27.2487 11.6671L15.1092 11.6905C4.38141 11.7061 2.91536 11.6905 2.50424 11.5892C2.24827 11.5191 1.85267 11.3555 1.61996 11.2153C1.39501 11.0751 1.06922 10.8103 0.890812 10.6156C0.72016 10.4208 0.47194 10.0392 0.0996094 9.25245V2.55371L0.332316 2.04741C0.464183 1.76699 0.727917 1.36974 0.914083 1.15943C1.108 0.956913 1.41828 0.692079 1.6122 0.575241C1.80612 0.466192 2.13967 0.310407 2.34911 0.240304C2.71368 0.115676 3.58245 0.107887 14.9153 0.100098V0.100098ZM2.19397 2.24214C2.02332 2.4135 1.83715 2.69391 1.78285 2.86528C1.7208 3.08337 1.68977 4.01029 1.68977 5.94202L1.68201 8.7072C2.06986 9.45497 2.225 9.62633 2.50424 9.79769L2.87658 10.0314H26.9384C27.4737 9.72759 27.7374 9.48612 27.8693 9.30697L28.102 8.96424C28.1408 3.16127 28.133 2.96654 27.9934 2.69391C27.9081 2.53034 27.7452 2.30445 27.621 2.18761C27.5047 2.07077 27.272 1.92278 27.1091 1.86046C26.8531 1.75142 25.5189 1.73584 14.9308 1.74363C6.41372 1.75142 2.96966 1.77478 2.77574 1.8371C2.62836 1.88383 2.36462 2.07077 2.19397 2.24214ZM13.8914 20.6637C13.7595 20.8973 13.5656 21.3335 13.4725 21.6373C13.2941 22.1826 13.2941 22.2059 13.2708 26.9574C13.2475 30.9766 13.263 31.7633 13.3561 31.9814C13.4259 32.1294 13.5811 32.2852 13.744 32.3709C13.9612 32.4721 14.2249 32.5033 14.9153 32.5033C15.5358 32.5033 15.8926 32.4644 16.0788 32.3865C16.2339 32.3242 16.4046 32.1684 16.4666 32.036C16.5675 31.8334 16.583 31.1324 16.583 27.191C16.583 23.4055 16.5597 22.4708 16.4666 22.0268C16.4046 21.723 16.2339 21.2401 16.0943 20.9363C15.9469 20.6325 15.6522 20.173 15.435 19.9081C15.21 19.6355 15.0006 19.4174 14.9618 19.4174C14.9308 19.4174 14.7291 19.6043 14.5119 19.8302C14.3025 20.0483 14.0232 20.43 13.8914 20.6637Z" fill="white" stroke="white" stroke-width="0.2"/>
</svg>
