<svg width="40" height="40" viewBox="0 0 40 40" fill="none" xmlns="http://www.w3.org/2000/svg">
<path fill-rule="evenodd" clip-rule="evenodd" d="M19.959 5.00109C29.1113 4.99523 32.6797 5.01281 32.9023 5.05969C33.0723 5.09485 33.3711 5.2062 33.5645 5.30582C33.7578 5.40545 34.0508 5.61642 34.2148 5.78051C34.3789 5.9446 34.584 6.22003 34.666 6.38998C34.7539 6.55407 34.8652 6.84708 34.9121 7.03461C34.9883 7.32763 35 8.93921 35 19.9976C35 31.056 34.9883 32.6676 34.9121 32.9665C34.8652 33.1481 34.7539 33.4412 34.666 33.6111C34.584 33.7752 34.3789 34.0506 34.2148 34.2147C34.0508 34.3788 33.7754 34.5839 33.6055 34.666C33.4414 34.7539 33.1484 34.8652 32.9609 34.9121C32.668 34.9883 31.0566 35 20 35C8.94336 35 7.33203 34.9883 7.0332 34.9121C6.85156 34.8652 6.55859 34.7539 6.38867 34.666C6.22461 34.5839 5.94922 34.3788 5.78516 34.2147C5.62109 34.0506 5.41602 33.7752 5.33398 33.6111C5.24609 33.4412 5.13477 33.1481 5.08789 32.9665C5.01172 32.6676 5 31.056 5 19.9976C5 8.93921 5.01172 7.32763 5.08789 7.02875C5.13477 6.84708 5.24609 6.55407 5.33398 6.38998C5.41602 6.22003 5.62109 5.9446 5.78516 5.78051C5.94922 5.61642 6.22461 5.41131 6.38867 5.32926C6.55859 5.24136 6.83984 5.13587 7.00391 5.08899C7.26758 5.01281 9.16602 5.00109 19.9531 5.00109H19.959ZM6.99219 7.04633C6.93359 7.12838 6.86328 7.26317 6.82812 7.35693C6.78125 7.46242 6.76367 9.47836 6.76367 13.7564V19.9976H13.8535C13.8477 18.9252 13.8652 18.8314 13.9824 18.6497C14.0586 18.5384 14.2109 18.3977 14.3223 18.345C14.4336 18.2864 14.6211 18.2395 14.7324 18.2395C14.8496 18.2395 15.0195 18.2923 15.1367 18.3684C15.248 18.4446 15.3945 18.5794 15.459 18.6673C15.5762 18.8256 15.582 18.9135 15.5996 20.8063C15.6172 22.7695 15.6172 22.7813 15.4824 23.0391C15.4004 23.1915 15.2656 23.338 15.1426 23.4025C15.0312 23.4669 14.832 23.5138 14.7031 23.5138C14.5742 23.5138 14.3867 23.4611 14.2812 23.3966C14.1758 23.3321 14.0352 23.1915 13.9707 23.0919C13.877 22.9336 13.8535 22.793 13.8535 22.33V21.7557H6.76367C6.79297 32.5445 6.79297 32.65 6.91016 32.8082C6.97461 32.8903 7.10352 33.0192 7.19141 33.0895C7.35547 33.2126 7.39648 33.2126 10.6074 33.2302L13.8535 33.2419L13.8828 27.5574C14.1992 27.2351 14.3867 27.1237 14.498 27.1003C14.6094 27.071 14.7793 27.0651 14.8789 27.0886C14.9785 27.1062 15.125 27.1648 15.2188 27.2234C15.3066 27.2761 15.4297 27.4343 15.4941 27.575C15.6055 27.8094 15.6113 27.9559 15.6113 30.5344V33.2419H24.4004V28.8467C21.6523 28.8467 20.7617 28.8232 20.6504 28.7939C20.5391 28.7646 20.3574 28.6416 20.2578 28.5302C20.1465 28.4072 20.0469 28.2255 20.0293 28.1024C20.0059 27.9676 20.0234 27.7918 20.0703 27.6512C20.1172 27.5222 20.2461 27.3464 20.375 27.241L20.6035 27.0593L24.4004 27.03C24.4004 24.639 24.4238 24.2229 24.4766 24.0881C24.5234 23.9826 24.6406 23.8244 24.7402 23.7365C24.8457 23.6427 25.0273 23.5548 25.1504 23.5372C25.2852 23.5138 25.4609 23.5372 25.6191 23.5958C25.7773 23.6544 25.918 23.7658 26.0117 23.9123L26.1582 24.1291V33.2419C32.5508 33.2126 32.6562 33.2067 32.8145 33.0954C32.8965 33.0309 33.0254 32.902 33.0957 32.8141L33.2188 32.65L33.248 14.7233H26.1582L26.1641 19.3823C25.9531 19.6987 25.8008 19.8394 25.6895 19.898C25.543 19.9742 25.4082 19.9976 25.2207 19.9742C25.0742 19.9566 24.8926 19.898 24.8105 19.8335C24.7285 19.7691 24.6113 19.646 24.5469 19.564C24.4355 19.4116 24.4297 19.3002 24.418 17.0616L24.4004 14.7233C20.6738 14.694 20.5918 14.6882 20.4336 14.571C20.3457 14.5065 20.2109 14.36 20.1348 14.2487C20.0586 14.1314 20.0059 13.9615 20.0059 13.8443C20.0059 13.7329 20.0527 13.5454 20.1113 13.4341C20.1641 13.3227 20.3047 13.1704 20.416 13.0942L20.6211 12.9594L33.248 12.9652C33.2188 7.39795 33.2188 7.34521 33.0957 7.18112C33.0254 7.09322 32.8965 6.96429 32.8145 6.89983C32.6562 6.78262 32.5508 6.78262 24.1367 6.76504L15.6113 6.75332V13.9322C15.3828 14.3893 15.2773 14.4948 15.084 14.5944C14.8906 14.694 14.7676 14.7175 14.6152 14.694C14.5039 14.6706 14.334 14.6061 14.2344 14.5475C14.1406 14.4889 14.0117 14.36 13.959 14.2604C13.8594 14.0904 13.8535 13.7974 13.8535 10.416V6.75332C8.26953 6.75918 7.44922 6.77676 7.29102 6.8295C7.17969 6.87053 7.04492 6.97015 6.99219 7.04633Z" fill="white"/>
</svg>
