<svg width="40" height="40" viewBox="0 0 40 40" fill="none" xmlns="http://www.w3.org/2000/svg">
<path fill-rule="evenodd" clip-rule="evenodd" d="M29.9583 4.01067L30.5 4.2693C30.8 4.40279 31.2083 4.66978 31.4 4.85333C31.6 5.02853 31.875 5.34557 32 5.55415C32.1333 5.76273 32.2917 6.13818 32.3667 6.38847C32.45 6.68048 32.5 7.16439 32.5 8.64113H33.35C33.9417 8.64113 34.3417 8.68285 34.625 8.78297C34.875 8.8664 35.175 9.05829 35.375 9.26687C35.5583 9.45042 35.775 9.79249 35.8583 10.0178C35.9833 10.3765 36 10.7436 36 14.8985L35.7917 15.1071C35.6667 15.2406 35.5 15.3157 35.3333 15.3157C35.175 15.3157 35.0083 15.2406 34.6667 14.8985V10.4766L34.4167 10.2263C34.175 9.98439 34.15 9.97604 32.5 9.97604V20.8055C32.5 28.3561 32.475 31.7267 32.4083 31.9603C32.35 32.1773 32.1667 32.4359 31.8917 32.7196C31.575 33.0199 31.35 33.1618 30.6667 33.337V33.8626C30.6667 34.2297 30.6083 34.505 30.475 34.797C30.3667 35.0306 30.15 35.331 29.9917 35.4645C29.8333 35.6063 29.5417 35.7899 29.3333 35.8733C29.0083 35.9984 28.725 36.0151 27.2083 35.9901C25.6 35.9651 25.4333 35.9484 25.125 35.7815C24.9417 35.6897 24.6917 35.4978 24.5667 35.3644C24.4417 35.2392 24.2667 34.9639 24.175 34.7553C24.0583 34.505 24 34.2047 24 33.337H16V33.8626C16 34.2297 15.9417 34.505 15.8083 34.797C15.7 35.0306 15.4833 35.331 15.325 35.4645C15.1667 35.6063 14.875 35.7899 14.6667 35.8733C14.3417 35.9984 14.0583 36.0151 12.5417 35.9901C10.9333 35.9651 10.7667 35.9484 10.4583 35.7815C10.275 35.6897 10.025 35.4978 9.9 35.3644C9.775 35.2392 9.6 34.9639 9.50833 34.7553C9.39167 34.505 9.33333 34.2047 9.33333 33.337L8.94167 33.2368C8.70833 33.1701 8.4 32.9949 8.175 32.7947C7.975 32.6111 7.73333 32.3107 7.65833 32.1272C7.50833 31.8102 7.5 31.2261 7.5 9.97604H6.65833C5.83333 9.97604 5.81667 9.98439 5.33333 10.4766V14.8985L5.125 15.1071C5 15.2406 4.83333 15.3157 4.66667 15.3157C4.50833 15.3157 4.34167 15.2406 4 14.8985V12.6625C4 10.7436 4.01667 10.3765 4.14167 10.0178C4.225 9.78415 4.43333 9.45876 4.625 9.26687C4.81667 9.07498 5.14167 8.8664 5.375 8.78297C5.675 8.68285 6.04167 8.64113 7.5 8.64113L7.525 7.53149C7.55 6.52196 7.56667 6.38847 7.79167 5.9296C7.925 5.64593 8.23333 5.22877 8.49167 4.97013C8.75 4.71149 9.10833 4.43617 9.29167 4.34439C9.475 4.26096 9.79167 4.14416 10 4.08575C10.2917 4.00232 12.55 3.98564 29.9583 4.01067ZM9.70833 5.66262C9.56667 5.74605 9.35833 5.96297 9.225 6.14652C9.1 6.32173 9 6.51362 9 6.55534C9 6.61374 12.725 6.63877 20 6.63877C28.7417 6.63877 31 6.61374 31 6.53031C31 6.48025 30.8917 6.2967 30.7667 6.13818C30.65 5.97966 30.4667 5.77942 30.375 5.70433C30.2833 5.62924 30.0417 5.5041 29.8333 5.42901C29.5 5.32055 28.3417 5.30386 19.9583 5.3122C12.9 5.3122 10.3917 5.34557 10.2083 5.41232C10.0667 5.47072 9.84167 5.57918 9.70833 5.66262ZM8.83333 22.6577H31.1667V7.97368H8.83333V22.6577ZM8.875 25.3525C9.65 25.5111 10.1583 25.7029 10.5 25.8782C10.8667 26.07 11.325 26.4038 11.625 26.7041C11.95 27.0295 12.2333 27.4216 12.4417 27.8305C12.6167 28.1725 12.75 28.5063 12.75 28.5647C12.75 28.6397 14.25 28.6648 19.9833 28.6648H27.2083C27.3667 28.1809 27.5583 27.8054 27.75 27.5134C27.9333 27.2297 28.2833 26.8042 28.5167 26.5706C28.7583 26.3454 29.2167 26.0283 29.5417 25.8698C29.8667 25.7113 30.3083 25.5361 30.5417 25.486C30.7667 25.4276 31.0083 25.3776 31.0583 25.3609C31.1333 25.3358 31.1667 25.1189 31.1667 24.66V23.9926H8.825L8.875 25.3525ZM8.83333 31.5849C9.25 31.9937 9.28333 32.0021 10.4583 32.0021H11.6667C11.625 29.2405 11.6167 29.1904 11.375 28.6648C11.2333 28.3644 10.95 27.9389 10.75 27.7137C10.5167 27.4634 10.1583 27.2047 9.79167 27.0295C9.475 26.871 9.125 26.7375 9.025 26.7375L8.83333 26.7458V31.5849ZM29.2583 27.7137C29.05 27.9389 28.7667 28.3644 28.6333 28.6648C28.3833 29.1904 28.375 29.2405 28.3583 30.6004L28.3333 32.0021C30.7333 32.0021 30.7667 31.9937 30.9667 31.7935L31.1667 31.5849V26.7458C30.8667 26.7458 30.525 26.871 30.2083 27.0295C29.85 27.2047 29.4833 27.4634 29.2583 27.7137ZM13 32.0021H27V29.9997H13V32.0021ZM10.6667 33.7958C10.6667 34.1713 10.7083 34.2881 10.875 34.4633C11.0833 34.6719 11.0917 34.6719 12.675 34.6719C14.2583 34.6719 14.2583 34.6719 14.4667 34.4633C14.6333 34.2881 14.6667 34.1713 14.6667 33.7958V33.337H10.6667V33.7958ZM25.3333 33.7958C25.3333 34.1713 25.375 34.2881 25.5417 34.4633C25.75 34.6719 25.7583 34.6719 27.3417 34.6719C28.925 34.6719 28.925 34.6719 29.1333 34.4633C29.3 34.2881 29.3333 34.1713 29.3333 33.7958V33.337H25.3333V33.7958Z" fill="#BA846E" stroke="#BA846E" stroke-width="0.5"/>
</svg>
