<svg width="40" height="40" viewBox="0 0 40 40" fill="none" xmlns="http://www.w3.org/2000/svg">
<path d="M38 17.493L20.1871 2.22143C20.0387 2.09414 19.8194 2.09457 19.6714 2.22244L12.543 8.38236C12.2869 8.60364 11.8893 8.42173 11.8893 8.0833V5.77554C11.8893 5.55724 11.7124 5.38028 11.4941 5.38028H7.48221C7.26392 5.38028 7.08696 5.55724 7.08696 5.77554V12.9163C7.08696 13.0311 7.03702 13.1403 6.95013 13.2154L2 17.493M33.1621 29.5V36.6047C33.1621 36.823 32.9851 37 32.7668 37H19.9289H7.09091C6.87261 37 6.69565 36.823 6.69565 36.6047V29.5M33.1621 29.5H6.69565M33.1621 29.5V21.5M6.69565 29.5V21.5M6.69565 21.5V17.6759C6.69565 17.5599 6.74665 17.4497 6.83513 17.3746L19.6731 6.47767C19.8206 6.35245 20.0371 6.35245 20.1846 6.47767L33.0226 17.3746C33.1111 17.4497 33.1621 17.5599 33.1621 17.6759V21.5M6.69565 21.5H33.1621" stroke="#BA846E" stroke-width="2"/>
</svg>
