<svg width="40" height="42" viewBox="0 0 40 42" fill="none" xmlns="http://www.w3.org/2000/svg">
<path d="M24.8119 31.1823V37.2332C24.8119 37.4072 24.7214 37.5687 24.573 37.6595L19.8927 40.5261C19.7388 40.6204 19.546 40.6244 19.3883 40.5366L17.3162 39.3828C17.1577 39.2946 17.0594 39.1274 17.0594 38.946V26.5801C17.0594 26.4008 17.1554 26.2353 17.3109 26.1462L28.3703 19.8124C28.7037 19.6215 29.1188 19.8622 29.1188 20.2463V34.3359C29.1188 34.7228 29.5394 34.9631 29.8727 34.7666L33.7539 32.4785C33.9064 32.3886 34 32.2247 34 32.0477V19.1115C34 18.9251 33.8964 18.7542 33.7311 18.6681L19.8724 11.4454C19.7288 11.3706 19.5579 11.3699 19.4138 11.4436L5.2725 18.669C5.10525 18.7544 5 18.9264 5 19.1142V32.0337C5 32.2182 5.10159 32.3877 5.2643 32.4747L8.57123 34.2423C8.9043 34.4203 9.30693 34.179 9.30693 33.8013V1.50203C9.30693 1.12692 9.70465 0.885394 10.0375 1.05837L24.5424 8.59625C24.708 8.68228 24.8119 8.85334 24.8119 9.03991V11.3262" stroke="#BA846E" stroke-width="2"/>
</svg>
