<svg width="40" height="40" viewBox="0 0 40 40" fill="none" xmlns="http://www.w3.org/2000/svg">
<path d="M38 17.493L20.1871 2.22143C20.0387 2.09414 19.8194 2.09457 19.6714 2.22244L12.543 8.38236C12.2869 8.60364 11.8893 8.42173 11.8893 8.0833V5.77554C11.8893 5.55724 11.7124 5.38028 11.4941 5.38028H7.48221C7.26392 5.38028 7.08696 5.55724 7.08696 5.77554V12.9163C7.08696 13.0311 7.03702 13.1403 6.95013 13.2154L2 17.493M19.9289 37H32.7668C32.9851 37 33.1621 36.823 33.1621 36.6047V17.6759C33.1621 17.5599 33.1111 17.4497 33.0226 17.3746L20.1846 6.47767C20.0371 6.35245 19.8206 6.35245 19.6731 6.47767L6.83513 17.3746C6.74665 17.4497 6.69565 17.5599 6.69565 17.6759V36.6047C6.69565 36.823 6.87261 37 7.09091 37H19.9289Z" stroke="#BA846E" stroke-width="2"/>
<path d="M16.9072 31.8555H15.1134L23.134 18.1445H24.9278L16.9072 31.8555ZM13.0103 19.0118C13.6838 18.3373 14.5155 18 15.5052 18C16.4948 18 17.3265 18.3373 18 19.0118C18.6735 19.6726 19.0103 20.4779 19.0103 21.4277C19.0103 22.3776 18.6735 23.1898 18 23.8643C17.3265 24.5251 16.4948 24.8555 15.5052 24.8555C14.5155 24.8555 13.6838 24.5251 13.0103 23.8643C12.3368 23.1898 12 22.3776 12 21.4277C12 20.4779 12.3368 19.6726 13.0103 19.0118ZM14.1856 22.7493C14.543 23.1209 14.9828 23.3068 15.5052 23.3068C16.0275 23.3068 16.4605 23.1209 16.8041 22.7493C17.1615 22.3776 17.3402 21.9371 17.3402 21.4277C17.3402 20.9046 17.1615 20.4572 16.8041 20.0855C16.4605 19.7139 16.0275 19.528 15.5052 19.528C14.9828 19.528 14.543 19.7139 14.1856 20.0855C13.8419 20.4572 13.6701 20.9046 13.6701 21.4277C13.6701 21.9371 13.8419 22.3776 14.1856 22.7493ZM22 26.1563C22.6735 25.4818 23.5052 25.1445 24.4948 25.1445C25.4845 25.1445 26.3162 25.4818 26.9897 26.1563C27.6632 26.8171 28 27.6224 28 28.5723C28 29.5221 27.6632 30.3343 26.9897 31.0089C26.3162 31.6696 25.4845 32 24.4948 32C23.5052 32 22.6735 31.6696 22 31.0089C21.3265 30.3343 20.9897 29.5221 20.9897 28.5723C20.9897 27.6224 21.3265 26.8171 22 26.1563ZM23.1753 29.8938C23.5326 30.2655 23.9725 30.4513 24.4948 30.4513C25.0172 30.4513 25.4502 30.2655 25.7938 29.8938C26.1512 29.5221 26.3299 29.0816 26.3299 28.5723C26.3299 28.0492 26.1512 27.6018 25.7938 27.2301C25.4502 26.8584 25.0172 26.6726 24.4948 26.6726C23.9725 26.6726 23.5326 26.8584 23.1753 27.2301C22.8316 27.6018 22.6598 28.0492 22.6598 28.5723C22.6598 29.0816 22.8316 29.5221 23.1753 29.8938Z" fill="#BA846E" stroke="#BA846E" stroke-width="0.2"/>
</svg>
