<svg width="40" height="40" viewBox="0 0 40 40" fill="none" xmlns="http://www.w3.org/2000/svg">
<path d="M25 35H33.5C33.6326 35 33.7598 34.9392 33.8536 34.831C33.9473 34.7228 34 34.5761 34 34.4231V13.0769C34 12.7709 33.8946 12.4774 33.7071 12.261C33.5196 12.0446 33.2652 11.9231 33 11.9231H26C25.7348 11.9231 25.4804 12.0446 25.2929 12.261C25.1054 12.4774 25 12.7709 25 13.0769V35ZM25 35V6.15385C25 5.84783 24.8946 5.55434 24.7071 5.33795C24.5196 5.12157 24.2652 5 24 5H16C15.7348 5 15.4804 5.12157 15.2929 5.33795C15.1054 5.55434 15 5.84783 15 6.15385V35M25 35H15M15 35V17.6923C15 17.3863 14.8946 17.0928 14.7071 16.8764C14.5196 16.66 14.2652 16.5385 14 16.5385H7C6.73478 16.5385 6.48043 16.66 6.29289 16.8764C6.10536 17.0928 6 17.3863 6 17.6923V34.4231C6 34.5761 6.05268 34.7228 6.14645 34.831C6.24021 34.9392 6.36739 35 6.5 35H15Z" stroke="#BA846E" stroke-width="2" stroke-linecap="round" stroke-linejoin="round"/>
</svg>
