<svg width="40" height="40" viewBox="0 0 40 40" fill="none" xmlns="http://www.w3.org/2000/svg">
<path d="M31.7012 3.09961H36.1846C36.6505 3.09972 37.0582 3.42666 37.1689 3.89355L38.8711 11.0918C38.9445 11.4019 38.8749 11.7293 38.6826 11.9795C38.4902 12.2299 38.1964 12.376 37.8867 12.376H34.9561V19.5381H35.9297C37.5651 19.5381 38.9002 20.8998 38.9004 22.5781V32.8594C38.9003 34.5381 37.5651 35.9004 35.9297 35.9004H4.07031C2.43488 35.9004 1.09968 34.5381 1.09961 32.8594V22.5781C1.0998 20.8998 2.43495 19.5381 4.07031 19.5381H5.67676V18.1182C5.67687 16.2877 7.13286 14.8018 8.91699 14.8018H31.083C31.7032 14.8018 32.2832 14.9814 32.7764 15.292L32.9297 15.3887V12.376H29.999C29.6891 12.376 29.3956 12.2299 29.2031 11.9795C29.0107 11.7292 28.9403 11.4019 29.0137 11.0918L30.7158 3.89355C30.8265 3.42647 31.2351 3.09961 31.7012 3.09961ZM4.07031 21.6152C3.54807 21.6152 3.12714 22.0492 3.12695 22.5781V32.8594C3.12702 33.3883 3.54796 33.8223 4.07031 33.8223H8.04395C8.56661 33.8223 8.98821 33.3883 8.98828 32.8594V22.5781C8.9881 22.0492 8.5665 21.6152 8.04395 21.6152H4.07031ZM11.0146 32.8594C11.0146 33.1493 10.9738 33.4293 10.8994 33.6953L10.8643 33.8223H29.1357L29.1006 33.6953C29.0262 33.4293 28.9854 33.1493 28.9854 32.8594V28.7578H11.0146V32.8594ZM31.9561 21.6152C31.4335 21.6152 31.0119 22.0492 31.0117 22.5781V32.8594C31.0118 33.3883 31.4334 33.8223 31.9561 33.8223H35.9297C36.452 33.8223 36.873 33.3883 36.873 32.8594V22.5781C36.8729 22.0492 36.4519 21.6152 35.9297 21.6152H31.9561ZM8.91699 16.8799C8.24596 16.8799 7.70324 17.4374 7.70312 18.1182V19.5381H8.04395C9.67931 19.5381 11.0145 20.8998 11.0146 22.5781V26.6797H28.9854V22.5781C28.9855 20.8998 30.3204 19.5381 31.9561 19.5381H32.2969V18.1182C32.2968 17.4374 31.754 16.8799 31.083 16.8799H8.91699ZM32.4795 5.25488L31.3154 10.1748L31.2871 10.2979H36.5986L36.5693 10.1748L35.4053 5.25488L35.3877 5.17773H32.498L32.4795 5.25488Z" fill="white" stroke="#BA846E" stroke-width="0.2"/>
</svg>
